%TF.GenerationSoftware,KiCad,Pcbnew,7.0.2*%
%TF.CreationDate,2024-05-06T14:06:19-04:00*%
%TF.ProjectId,800+,3830302b-2e6b-4696-9361-645f70636258,rev?*%
%TF.SameCoordinates,Original*%
%TF.FileFunction,Paste,Top*%
%TF.FilePolarity,Positive*%
%FSLAX46Y46*%
G04 Gerber Fmt 4.6, Leading zero omitted, Abs format (unit mm)*
G04 Created by KiCad (PCBNEW 7.0.2) date 2024-05-06 14:06:19*
%MOMM*%
%LPD*%
G01*
G04 APERTURE LIST*
%ADD10C,0.250000*%
%TA.AperFunction,Profile*%
%ADD11C,0.200000*%
%TD*%
%TA.AperFunction,Profile*%
%ADD12C,0.100000*%
%TD*%
G04 APERTURE END LIST*
D10*
%TO.C,SW29*%
X93390000Y-158000000D03*
X93706167Y-158918416D03*
X93733172Y-157000000D03*
X94390000Y-159700000D03*
X94440000Y-156200000D03*
X95440000Y-156000000D03*
X95440000Y-160099488D03*
X96490000Y-156250000D03*
X96625258Y-159650000D03*
X97140000Y-156950000D03*
X97290000Y-158750000D03*
%TD*%
%TO.C,SW1*%
X99575000Y-47900000D03*
X99891167Y-48818416D03*
X99918172Y-46900000D03*
X100575000Y-49600000D03*
X100625000Y-46100000D03*
X101625000Y-45900000D03*
X101625000Y-49999488D03*
X102675000Y-46150000D03*
X102810258Y-49550000D03*
X103325000Y-46850000D03*
X103475000Y-48650000D03*
%TD*%
%TO.C,SW7*%
X77280000Y-99040000D03*
X77596167Y-99958416D03*
X77623172Y-98040000D03*
X78280000Y-100740000D03*
X78330000Y-97240000D03*
X79330000Y-97040000D03*
X79330000Y-101139488D03*
X80380000Y-97290000D03*
X80515258Y-100690000D03*
X81030000Y-97990000D03*
X81180000Y-99790000D03*
%TD*%
%TO.C,SW26*%
X99440000Y-148950000D03*
X99756167Y-149868416D03*
X99783172Y-147950000D03*
X100440000Y-150650000D03*
X100490000Y-147150000D03*
X101490000Y-146950000D03*
X101490000Y-151049488D03*
X102540000Y-147200000D03*
X102675258Y-150600000D03*
X103190000Y-147900000D03*
X103340000Y-149700000D03*
%TD*%
%TO.C,SW17*%
X78920000Y-117140000D03*
X79236167Y-118058416D03*
X79263172Y-116140000D03*
X79920000Y-118840000D03*
X79970000Y-115340000D03*
X80970000Y-115140000D03*
X80970000Y-119239488D03*
X82020000Y-115390000D03*
X82155258Y-118790000D03*
X82670000Y-116090000D03*
X82820000Y-117890000D03*
%TD*%
%TO.C,SW14*%
X99540000Y-112750000D03*
X99856167Y-113668416D03*
X99883172Y-111750000D03*
X100540000Y-114450000D03*
X100590000Y-110950000D03*
X101590000Y-110750000D03*
X101590000Y-114849488D03*
X102640000Y-111000000D03*
X102775258Y-114400000D03*
X103290000Y-111700000D03*
X103440000Y-113500000D03*
%TD*%
%TO.C,SW50*%
X113000000Y-213400000D03*
X113316167Y-214318416D03*
X113343172Y-212400000D03*
X114000000Y-215100000D03*
X114050000Y-211600000D03*
X115050000Y-211400000D03*
X115050000Y-215499488D03*
X116100000Y-211650000D03*
X116235258Y-215050000D03*
X116750000Y-212350000D03*
X116900000Y-214150000D03*
%TD*%
%TO.C,SW52*%
X88625000Y-221190000D03*
X88941167Y-222108416D03*
X88968172Y-220190000D03*
X89625000Y-222890000D03*
X89675000Y-219390000D03*
X90675000Y-219190000D03*
X90675000Y-223289488D03*
X91725000Y-219440000D03*
X91860258Y-222840000D03*
X92375000Y-220140000D03*
X92525000Y-221940000D03*
%TD*%
%TO.C,SW6*%
X77120000Y-90270000D03*
X77436167Y-91188416D03*
X77463172Y-89270000D03*
X78120000Y-91970000D03*
X78170000Y-88470000D03*
X79170000Y-88270000D03*
X79170000Y-92369488D03*
X80220000Y-88520000D03*
X80355258Y-91920000D03*
X80870000Y-89220000D03*
X81020000Y-91020000D03*
%TD*%
%TO.C,SW34*%
X82050000Y-182100000D03*
X82366167Y-183018416D03*
X82393172Y-181100000D03*
X83050000Y-183800000D03*
X83100000Y-180300000D03*
X84100000Y-180100000D03*
X84100000Y-184199488D03*
X85150000Y-180350000D03*
X85285258Y-183750000D03*
X85800000Y-181050000D03*
X85950000Y-182850000D03*
%TD*%
%TO.C,SW27*%
X99480000Y-140090000D03*
X99796167Y-141008416D03*
X99823172Y-139090000D03*
X100480000Y-141790000D03*
X100530000Y-138290000D03*
X101530000Y-138090000D03*
X101530000Y-142189488D03*
X102580000Y-138340000D03*
X102715258Y-141740000D03*
X103230000Y-139040000D03*
X103380000Y-140840000D03*
%TD*%
%TO.C,SW30*%
X84470000Y-169120000D03*
X84786167Y-170038416D03*
X84813172Y-168120000D03*
X85470000Y-170820000D03*
X85520000Y-167320000D03*
X86520000Y-167120000D03*
X86520000Y-171219488D03*
X87570000Y-167370000D03*
X87705258Y-170770000D03*
X88220000Y-168070000D03*
X88370000Y-169870000D03*
%TD*%
%TO.C,SW13*%
X112520000Y-112610000D03*
X112836167Y-113528416D03*
X112863172Y-111610000D03*
X113520000Y-114310000D03*
X113570000Y-110810000D03*
X114570000Y-110610000D03*
X114570000Y-114709488D03*
X115620000Y-110860000D03*
X115755258Y-114260000D03*
X116270000Y-111560000D03*
X116420000Y-113360000D03*
%TD*%
%TO.C,SW46*%
X99610000Y-206330000D03*
X99926167Y-207248416D03*
X99953172Y-205330000D03*
X100610000Y-208030000D03*
X100660000Y-204530000D03*
X101660000Y-204330000D03*
X101660000Y-208429488D03*
X102710000Y-204580000D03*
X102845258Y-207980000D03*
X103360000Y-205280000D03*
X103510000Y-207080000D03*
%TD*%
%TO.C,SW15*%
X88280000Y-118600000D03*
X88596167Y-119518416D03*
X88623172Y-117600000D03*
X89280000Y-120300000D03*
X89330000Y-116800000D03*
X90330000Y-116600000D03*
X90330000Y-120699488D03*
X91380000Y-116850000D03*
X91515258Y-120250000D03*
X92030000Y-117550000D03*
X92180000Y-119350000D03*
%TD*%
%TO.C,SW44*%
X115000000Y-199200000D03*
X115316167Y-200118416D03*
X115343172Y-198200000D03*
X116000000Y-200900000D03*
X116050000Y-197400000D03*
X117050000Y-197200000D03*
X117050000Y-201299488D03*
X118100000Y-197450000D03*
X118235258Y-200850000D03*
X118750000Y-198150000D03*
X118900000Y-199950000D03*
%TD*%
%TO.C,SW24*%
X92710000Y-140060000D03*
X93026167Y-140978416D03*
X93053172Y-139060000D03*
X93710000Y-141760000D03*
X93760000Y-138260000D03*
X94760000Y-138060000D03*
X94760000Y-142159488D03*
X95810000Y-138310000D03*
X95945258Y-141710000D03*
X96460000Y-139010000D03*
X96610000Y-140810000D03*
%TD*%
%TO.C,SW35*%
X93360000Y-182100000D03*
X93676167Y-183018416D03*
X93703172Y-181100000D03*
X94360000Y-183800000D03*
X94410000Y-180300000D03*
X95410000Y-180100000D03*
X95410000Y-184199488D03*
X96460000Y-180350000D03*
X96595258Y-183750000D03*
X97110000Y-181050000D03*
X97260000Y-182850000D03*
%TD*%
%TO.C,SW33*%
X114655000Y-169130000D03*
X114971167Y-170048416D03*
X114998172Y-168130000D03*
X115655000Y-170830000D03*
X115705000Y-167330000D03*
X116705000Y-167130000D03*
X116705000Y-171229488D03*
X117755000Y-167380000D03*
X117890258Y-170780000D03*
X118405000Y-168080000D03*
X118555000Y-169880000D03*
%TD*%
%TO.C,SW21*%
X118515000Y-130010000D03*
X118831167Y-130928416D03*
X118858172Y-129010000D03*
X119515000Y-131710000D03*
X119565000Y-128210000D03*
X120565000Y-128010000D03*
X120565000Y-132109488D03*
X121615000Y-128260000D03*
X121750258Y-131660000D03*
X122265000Y-128960000D03*
X122415000Y-130760000D03*
%TD*%
%TO.C,SW38*%
X81560000Y-189200000D03*
X81876167Y-190118416D03*
X81903172Y-188200000D03*
X82560000Y-190900000D03*
X82610000Y-187400000D03*
X83610000Y-187200000D03*
X83610000Y-191299488D03*
X84660000Y-187450000D03*
X84795258Y-190850000D03*
X85310000Y-188150000D03*
X85460000Y-189950000D03*
%TD*%
%TO.C,SW2*%
X90375000Y-53950000D03*
X90691167Y-54868416D03*
X90718172Y-52950000D03*
X91375000Y-55650000D03*
X91425000Y-52150000D03*
X92425000Y-51950000D03*
X92425000Y-56049488D03*
X93475000Y-52200000D03*
X93610258Y-55600000D03*
X94125000Y-52900000D03*
X94275000Y-54700000D03*
%TD*%
%TO.C,SW45*%
X84870000Y-206270000D03*
X85186167Y-207188416D03*
X85213172Y-205270000D03*
X85870000Y-207970000D03*
X85920000Y-204470000D03*
X86920000Y-204270000D03*
X86920000Y-208369488D03*
X87970000Y-204520000D03*
X88105258Y-207920000D03*
X88620000Y-205220000D03*
X88770000Y-207020000D03*
%TD*%
%TO.C,SW48*%
X86120000Y-213410000D03*
X86436167Y-214328416D03*
X86463172Y-212410000D03*
X87120000Y-215110000D03*
X87170000Y-211610000D03*
X88170000Y-211410000D03*
X88170000Y-215509488D03*
X89220000Y-211660000D03*
X89355258Y-215060000D03*
X89870000Y-212360000D03*
X90020000Y-214160000D03*
%TD*%
%TO.C,SW19*%
X80600000Y-130020000D03*
X80916167Y-130938416D03*
X80943172Y-129020000D03*
X81600000Y-131720000D03*
X81650000Y-128220000D03*
X82650000Y-128020000D03*
X82650000Y-132119488D03*
X83700000Y-128270000D03*
X83835258Y-131670000D03*
X84350000Y-128970000D03*
X84500000Y-130770000D03*
%TD*%
%TO.C,SW5*%
X77425000Y-81500000D03*
X77741167Y-82418416D03*
X77768172Y-80500000D03*
X78425000Y-83200000D03*
X78475000Y-79700000D03*
X79475000Y-79500000D03*
X79475000Y-83599488D03*
X80525000Y-79750000D03*
X80660258Y-83150000D03*
X81175000Y-80450000D03*
X81325000Y-82250000D03*
%TD*%
%TO.C,SW12*%
X86630000Y-112580000D03*
X86946167Y-113498416D03*
X86973172Y-111580000D03*
X87630000Y-114280000D03*
X87680000Y-110780000D03*
X88680000Y-110580000D03*
X88680000Y-114679488D03*
X89730000Y-110830000D03*
X89865258Y-114230000D03*
X90380000Y-111530000D03*
X90530000Y-113330000D03*
%TD*%
%TO.C,SW4*%
X77950000Y-72750000D03*
X78266167Y-73668416D03*
X78293172Y-71750000D03*
X78950000Y-74450000D03*
X79000000Y-70950000D03*
X80000000Y-70750000D03*
X80000000Y-74849488D03*
X81050000Y-71000000D03*
X81185258Y-74400000D03*
X81700000Y-71700000D03*
X81850000Y-73500000D03*
%TD*%
%TO.C,SW31*%
X94130000Y-171380000D03*
X94446167Y-172298416D03*
X94473172Y-170380000D03*
X95130000Y-173080000D03*
X95180000Y-169580000D03*
X96180000Y-169380000D03*
X96180000Y-173479488D03*
X97230000Y-169630000D03*
X97365258Y-173030000D03*
X97880000Y-170330000D03*
X98030000Y-172130000D03*
%TD*%
%TO.C,SW41*%
X117555000Y-189200000D03*
X117871167Y-190118416D03*
X117898172Y-188200000D03*
X118555000Y-190900000D03*
X118605000Y-187400000D03*
X119605000Y-187200000D03*
X119605000Y-191299488D03*
X120655000Y-187450000D03*
X120790258Y-190850000D03*
X121305000Y-188150000D03*
X121455000Y-189950000D03*
%TD*%
%TO.C,SW23*%
X99560000Y-131200000D03*
X99876167Y-132118416D03*
X99903172Y-130200000D03*
X100560000Y-132900000D03*
X100610000Y-129400000D03*
X101610000Y-129200000D03*
X101610000Y-133299488D03*
X102660000Y-129450000D03*
X102795258Y-132850000D03*
X103310000Y-130150000D03*
X103460000Y-131950000D03*
%TD*%
%TO.C,SW16*%
X110850000Y-118600000D03*
X111166167Y-119518416D03*
X111193172Y-117600000D03*
X111850000Y-120300000D03*
X111900000Y-116800000D03*
X112900000Y-116600000D03*
X112900000Y-120699488D03*
X113950000Y-116850000D03*
X114085258Y-120250000D03*
X114600000Y-117550000D03*
X114750000Y-119350000D03*
%TD*%
%TO.C,SW51*%
X99575000Y-220500000D03*
X99891167Y-221418416D03*
X99918172Y-219500000D03*
X100575000Y-222200000D03*
X100625000Y-218700000D03*
X101625000Y-218500000D03*
X101625000Y-222599488D03*
X102675000Y-218750000D03*
X102810258Y-222150000D03*
X103325000Y-219450000D03*
X103475000Y-221250000D03*
%TD*%
%TO.C,SW49*%
X99540000Y-213420000D03*
X99856167Y-214338416D03*
X99883172Y-212420000D03*
X100540000Y-215120000D03*
X100590000Y-211620000D03*
X101590000Y-211420000D03*
X101590000Y-215519488D03*
X102640000Y-211670000D03*
X102775258Y-215070000D03*
X103290000Y-212370000D03*
X103440000Y-214170000D03*
%TD*%
%TO.C,SW28*%
X105720000Y-157990000D03*
X106036167Y-158908416D03*
X106063172Y-156990000D03*
X106720000Y-159690000D03*
X106770000Y-156190000D03*
X107770000Y-155990000D03*
X107770000Y-160089488D03*
X108820000Y-156240000D03*
X108955258Y-159640000D03*
X109470000Y-156940000D03*
X109620000Y-158740000D03*
%TD*%
%TO.C,SW25*%
X106410000Y-140040000D03*
X106726167Y-140958416D03*
X106753172Y-139040000D03*
X107410000Y-141740000D03*
X107460000Y-138240000D03*
X108460000Y-138040000D03*
X108460000Y-142139488D03*
X109510000Y-138290000D03*
X109645258Y-141690000D03*
X110160000Y-138990000D03*
X110310000Y-140790000D03*
%TD*%
%TO.C,SW40*%
X106040000Y-189180000D03*
X106356167Y-190098416D03*
X106383172Y-188180000D03*
X107040000Y-190880000D03*
X107090000Y-187380000D03*
X108090000Y-187180000D03*
X108090000Y-191279488D03*
X109140000Y-187430000D03*
X109275258Y-190830000D03*
X109790000Y-188130000D03*
X109940000Y-189930000D03*
%TD*%
%TO.C,SW10*%
X122055000Y-90250000D03*
X122371167Y-91168416D03*
X122398172Y-89250000D03*
X123055000Y-91950000D03*
X123105000Y-88450000D03*
X124105000Y-88250000D03*
X124105000Y-92349488D03*
X125155000Y-88500000D03*
X125290258Y-91900000D03*
X125805000Y-89200000D03*
X125955000Y-91000000D03*
%TD*%
%TO.C,SW22*%
X113370000Y-148040000D03*
X113686167Y-148958416D03*
X113713172Y-147040000D03*
X114370000Y-149740000D03*
X114420000Y-146240000D03*
X115420000Y-146040000D03*
X115420000Y-150139488D03*
X116470000Y-146290000D03*
X116605258Y-149690000D03*
X117120000Y-146990000D03*
X117270000Y-148790000D03*
%TD*%
%TO.C,SW18*%
X120200000Y-117150000D03*
X120516167Y-118068416D03*
X120543172Y-116150000D03*
X121200000Y-118850000D03*
X121250000Y-115350000D03*
X122250000Y-115150000D03*
X122250000Y-119249488D03*
X123300000Y-115400000D03*
X123435258Y-118800000D03*
X123950000Y-116100000D03*
X124100000Y-117900000D03*
%TD*%
%TO.C,SW37*%
X117090000Y-182080000D03*
X117406167Y-182998416D03*
X117433172Y-181080000D03*
X118090000Y-183780000D03*
X118140000Y-180280000D03*
X119140000Y-180080000D03*
X119140000Y-184179488D03*
X120190000Y-180330000D03*
X120325258Y-183730000D03*
X120840000Y-181030000D03*
X120990000Y-182830000D03*
%TD*%
%TO.C,SW43*%
X99560000Y-199180000D03*
X99876167Y-200098416D03*
X99903172Y-198180000D03*
X100560000Y-200880000D03*
X100610000Y-197380000D03*
X101610000Y-197180000D03*
X101610000Y-201279488D03*
X102660000Y-197430000D03*
X102795258Y-200830000D03*
X103310000Y-198130000D03*
X103460000Y-199930000D03*
%TD*%
%TO.C,SW36*%
X105770000Y-182100000D03*
X106086167Y-183018416D03*
X106113172Y-181100000D03*
X106770000Y-183800000D03*
X106820000Y-180300000D03*
X107820000Y-180100000D03*
X107820000Y-184199488D03*
X108870000Y-180350000D03*
X109005258Y-183750000D03*
X109520000Y-181050000D03*
X109670000Y-182850000D03*
%TD*%
%TO.C,SW42*%
X84125000Y-199210000D03*
X84441167Y-200128416D03*
X84468172Y-198210000D03*
X85125000Y-200910000D03*
X85175000Y-197410000D03*
X86175000Y-197210000D03*
X86175000Y-201309488D03*
X87225000Y-197460000D03*
X87360258Y-200860000D03*
X87875000Y-198160000D03*
X88025000Y-199960000D03*
%TD*%
%TO.C,SW20*%
X85760000Y-148020000D03*
X86076167Y-148938416D03*
X86103172Y-147020000D03*
X86760000Y-149720000D03*
X86810000Y-146220000D03*
X87810000Y-146020000D03*
X87810000Y-150119488D03*
X88860000Y-146270000D03*
X88995258Y-149670000D03*
X89510000Y-146970000D03*
X89660000Y-148770000D03*
%TD*%
%TO.C,SW39*%
X93090000Y-189180000D03*
X93406167Y-190098416D03*
X93433172Y-188180000D03*
X94090000Y-190880000D03*
X94140000Y-187380000D03*
X95140000Y-187180000D03*
X95140000Y-191279488D03*
X96190000Y-187430000D03*
X96325258Y-190830000D03*
X96840000Y-188130000D03*
X96990000Y-189930000D03*
%TD*%
%TO.C,SW47*%
X114260000Y-206280000D03*
X114576167Y-207198416D03*
X114603172Y-205280000D03*
X115260000Y-207980000D03*
X115310000Y-204480000D03*
X116310000Y-204280000D03*
X116310000Y-208379488D03*
X117360000Y-204530000D03*
X117495258Y-207930000D03*
X118010000Y-205230000D03*
X118160000Y-207030000D03*
%TD*%
%TO.C,SW8*%
X121180000Y-72750000D03*
X121496167Y-73668416D03*
X121523172Y-71750000D03*
X122180000Y-74450000D03*
X122230000Y-70950000D03*
X123230000Y-70750000D03*
X123230000Y-74849488D03*
X124280000Y-71000000D03*
X124415258Y-74400000D03*
X124930000Y-71700000D03*
X125080000Y-73500000D03*
%TD*%
%TO.C,SW53*%
X110520000Y-221180000D03*
X110836167Y-222098416D03*
X110863172Y-220180000D03*
X111520000Y-222880000D03*
X111570000Y-219380000D03*
X112570000Y-219180000D03*
X112570000Y-223279488D03*
X113620000Y-219430000D03*
X113755258Y-222830000D03*
X114270000Y-220130000D03*
X114420000Y-221930000D03*
%TD*%
%TO.C,SW3*%
X108750000Y-53950000D03*
X109066167Y-54868416D03*
X109093172Y-52950000D03*
X109750000Y-55650000D03*
X109800000Y-52150000D03*
X110800000Y-51950000D03*
X110800000Y-56049488D03*
X111850000Y-52200000D03*
X111985258Y-55600000D03*
X112500000Y-52900000D03*
X112650000Y-54700000D03*
%TD*%
%TO.C,SW11*%
X121870000Y-99060000D03*
X122186167Y-99978416D03*
X122213172Y-98060000D03*
X122870000Y-100760000D03*
X122920000Y-97260000D03*
X123920000Y-97060000D03*
X123920000Y-101159488D03*
X124970000Y-97310000D03*
X125105258Y-100710000D03*
X125620000Y-98010000D03*
X125770000Y-99810000D03*
%TD*%
%TO.C,SW32*%
X104990000Y-171400000D03*
X105306167Y-172318416D03*
X105333172Y-170400000D03*
X105990000Y-173100000D03*
X106040000Y-169600000D03*
X107040000Y-169400000D03*
X107040000Y-173499488D03*
X108090000Y-169650000D03*
X108225258Y-173050000D03*
X108740000Y-170350000D03*
X108890000Y-172150000D03*
%TD*%
%TO.C,SW9*%
X121675000Y-81500000D03*
X121991167Y-82418416D03*
X122018172Y-80500000D03*
X122675000Y-83200000D03*
X122725000Y-79700000D03*
X123725000Y-79500000D03*
X123725000Y-83599488D03*
X124775000Y-79750000D03*
X124910258Y-83150000D03*
X125425000Y-80450000D03*
X125575000Y-82250000D03*
%TD*%
D11*
X124957787Y-185550035D02*
X123587431Y-185661847D01*
X88100000Y-229900000D02*
X90846015Y-231585032D01*
X126614331Y-101764031D02*
X125394275Y-102951174D01*
X122982904Y-142392064D02*
X121880997Y-143156584D01*
X90846015Y-231585032D02*
X93049943Y-232732052D01*
X79790067Y-124119007D02*
X80249492Y-142392086D01*
X81610490Y-122376435D02*
X82195356Y-122930672D01*
X78682146Y-119979309D02*
X79732178Y-120083292D01*
X80181413Y-123706012D02*
X79790067Y-124119007D01*
X116755233Y-52527641D02*
X119191583Y-52658007D01*
X77125916Y-70630799D02*
X76778999Y-72341714D01*
X79645011Y-188761946D02*
X79645014Y-194797097D01*
X126106406Y-70630774D02*
X126453324Y-72341688D01*
X110182546Y-232732043D02*
X107835432Y-233537464D01*
X82195356Y-122930672D02*
X81930711Y-123611619D01*
X79645010Y-185661869D02*
X79645011Y-188761946D01*
X80752433Y-58893891D02*
X79929816Y-61009855D01*
X121621885Y-122376414D02*
X121037020Y-122930652D01*
X126504120Y-194797073D02*
X125714891Y-205892113D01*
X122150389Y-152254660D02*
X122765104Y-152609991D01*
X123442310Y-124118985D02*
X122982904Y-142392064D01*
X122765104Y-152609991D02*
X123053233Y-156057012D01*
X117161677Y-227399643D02*
X115132486Y-229899986D01*
D12*
X127000000Y-74250000D02*
X126453324Y-72341688D01*
D11*
X119286066Y-54613064D02*
X119524628Y-54812781D01*
X81351404Y-151607846D02*
X81082017Y-152254681D01*
X123500195Y-120083270D02*
X123376465Y-122376413D01*
X84040720Y-52658025D02*
X83946239Y-54613082D01*
X125792277Y-179223518D02*
X126777893Y-185401526D01*
X80467302Y-152610013D02*
X80179177Y-156057034D01*
X108677965Y-42361801D02*
X110141254Y-43476010D01*
X123897293Y-164328740D02*
X124480692Y-168914319D01*
X79335126Y-164328763D02*
X78751731Y-168914342D01*
D12*
X78250000Y-120000000D02*
X78682146Y-119979309D01*
D11*
X78751731Y-168914342D02*
X78235340Y-172973265D01*
X93049943Y-232732052D02*
X95397058Y-233537471D01*
X108677963Y-40020535D02*
X108677965Y-42361801D01*
X125394275Y-102951174D02*
X123572997Y-104183283D01*
X107835432Y-233537464D02*
X101616245Y-233537467D01*
X78235340Y-172973265D02*
X77440157Y-179223543D01*
X81082017Y-152254681D02*
X80467302Y-152610013D01*
X124550227Y-119979285D02*
X123500195Y-120083270D01*
X123587431Y-185661847D02*
X123587432Y-188761924D01*
X121037020Y-122930652D02*
X121301666Y-123611599D01*
X77517571Y-205892138D02*
X78693579Y-210081346D01*
X124538887Y-210081323D02*
X122912565Y-216716267D01*
X83106505Y-223161241D02*
X86070807Y-227399659D01*
X123302495Y-61009832D02*
X123867456Y-62463038D01*
X86477070Y-52527656D02*
X84040720Y-52658025D01*
X79645014Y-194797097D02*
X76728330Y-194797099D01*
X79732339Y-160436057D02*
X79335126Y-164328763D01*
X121880997Y-143156584D02*
X121881002Y-151607825D01*
X78103818Y-66581731D02*
X77677520Y-68346849D01*
X106378765Y-37975933D02*
X101616144Y-37975936D01*
X96853523Y-37975938D02*
X94554327Y-40020543D01*
X79855910Y-122376436D02*
X81610490Y-122376435D01*
X80319908Y-216716289D02*
X83106505Y-223161241D01*
X79732178Y-120083292D02*
X79855910Y-122376436D01*
X82595561Y-54816856D02*
X81566130Y-56800873D01*
X79929816Y-61009855D02*
X79364858Y-62463061D01*
X79659359Y-104183305D02*
X79659364Y-113904283D01*
X78821700Y-64357063D02*
X78103818Y-66581731D01*
X83946239Y-54613082D02*
X83707678Y-54812800D01*
X94554328Y-42361808D02*
X93091039Y-43476018D01*
X76454547Y-185401552D02*
X78274654Y-185550059D01*
X94554327Y-40020543D02*
X94554328Y-42361808D01*
D12*
X127000000Y-101250000D02*
X127000000Y-74250000D01*
X78250000Y-114000000D02*
X78250000Y-120000000D01*
D11*
X81930711Y-123611619D02*
X80181413Y-123706012D01*
X125714891Y-205892113D02*
X124538887Y-210081323D01*
X96853523Y-37975938D02*
X101616144Y-37975936D01*
X126777893Y-185401526D02*
X124957787Y-185550035D01*
D12*
X124550224Y-113904260D02*
X125000000Y-114500000D01*
D11*
X76728330Y-194797099D02*
X77517571Y-205892138D01*
X115132486Y-229899986D02*
X112386473Y-231585020D01*
X123867456Y-62463038D02*
X124410615Y-64357040D01*
D12*
X78682143Y-113904284D02*
X78250000Y-114000000D01*
D11*
X119191583Y-52658007D02*
X119286066Y-54613064D01*
X76778999Y-72341714D02*
X76618023Y-101764057D01*
X81566130Y-56800873D02*
X80752433Y-58893891D01*
X86477068Y-49013081D02*
X86477070Y-52527656D01*
X80179177Y-156057034D02*
X79732339Y-160436057D01*
X79659364Y-113904283D02*
X78682143Y-113904284D01*
X120636745Y-54816837D02*
X121666177Y-56800853D01*
X124997087Y-172973241D02*
X125792277Y-179223518D01*
D12*
X125000000Y-119500000D02*
X124550227Y-119979285D01*
D11*
X125128499Y-66581706D02*
X125554800Y-68346824D01*
X123587436Y-194797074D02*
X126504120Y-194797073D01*
X78693579Y-210081346D02*
X80319908Y-216716289D01*
X80249492Y-142392086D02*
X81351399Y-143156605D01*
X123050963Y-123705990D02*
X123442310Y-124118985D01*
X121881002Y-151607825D02*
X122150389Y-152254660D01*
X77838080Y-102951198D02*
X79659359Y-104183305D01*
X123376465Y-122376413D02*
X121621885Y-122376414D01*
X123572997Y-104183283D02*
X123573002Y-113904260D01*
X116755231Y-49013065D02*
X116755233Y-52527641D01*
X119524628Y-54812781D02*
X120636745Y-54816837D01*
X125554800Y-68346824D02*
X126106406Y-70630774D01*
X86070807Y-227399659D02*
X88100000Y-229900000D01*
X121666177Y-56800853D02*
X122479876Y-58893870D01*
D12*
X125000000Y-114500000D02*
X125000000Y-119500000D01*
D11*
X93091039Y-43476018D02*
X86477068Y-49013081D01*
X112386473Y-231585020D02*
X110182546Y-232732043D01*
X120125975Y-223161222D02*
X117161677Y-227399643D01*
X106378765Y-37975933D02*
X108677963Y-40020535D01*
X123573002Y-113904260D02*
X124550224Y-113904260D01*
X121301666Y-123611599D02*
X123050963Y-123705990D01*
X79364858Y-62463061D02*
X78821700Y-64357063D01*
X78274654Y-185550059D02*
X79645010Y-185661869D01*
X83707678Y-54812800D02*
X82595561Y-54816856D01*
X77677520Y-68346849D02*
X77125916Y-70630799D01*
X124410615Y-64357040D02*
X125128499Y-66581706D01*
X123053233Y-156057012D02*
X123500075Y-160436035D01*
X124480692Y-168914319D02*
X124997087Y-172973241D01*
X122479876Y-58893870D02*
X123302495Y-61009832D01*
X110141254Y-43476010D02*
X116755231Y-49013065D01*
D12*
X126614331Y-101764031D02*
X127000000Y-101250000D01*
D11*
X76618023Y-101764057D02*
X77838080Y-102951198D01*
X81351399Y-143156605D02*
X81351404Y-151607846D01*
X95397058Y-233537471D02*
X101616245Y-233537467D01*
X123587432Y-188761924D02*
X123587436Y-194797074D01*
X123500075Y-160436035D02*
X123897293Y-164328740D01*
X77440157Y-179223543D02*
X76454547Y-185401552D01*
X122912565Y-216716267D02*
X120125975Y-223161222D01*
M02*
