M48
; DRILL file {KiCad 7.0.2} date Mon May  6 14:06:25 2024
; FORMAT={-:-/ absolute / inch / decimal}
; #@! TF.CreationDate,2024-05-06T14:06:25-04:00
; #@! TF.GenerationSoftware,Kicad,Pcbnew,7.0.2
; #@! TF.FileFunction,Plated,1,2,PTH
FMAT,2
INCH
; #@! TA.AperFunction,Plated,PTH,ViaDrill
T1C0.0157
; #@! TA.AperFunction,Plated,PTH,ComponentDrill
T2C0.0394
; #@! TA.AperFunction,Plated,PTH,ComponentDrill
T3C0.0472
%
G90
G05
T1
X3.1374Y-2.6787
X3.1417Y-3.5845
X3.1505Y-3.8709
X3.1571Y-4.0551
X3.1645Y-3.2254
X3.1776Y-4.2031
X3.1821Y-2.8421
X3.1927Y-3.7884
X3.2Y-2.5594
X3.2019Y-2.9761
X3.2128Y-4.6421
X3.2394Y-3.6638
X3.2689Y-4.7862
X3.2713Y-6.739
X3.272Y-3.8488
X3.2732Y-4.2764
X3.274Y-3.4957
X3.2843Y-8.078
X3.2879Y-5.1387
X3.3028Y-3.8906
X3.3098Y-3.628
X3.3099Y-7.2086
X3.3134Y-4.4134
X3.3185Y-3.3268
X3.3185Y-7.6024
X3.3209Y-8.3972
X3.3228Y-4.2819
X3.3252Y-7.4694
X3.3325Y-3.4776
X3.3343Y-2.9142
X3.3358Y-3.8693
X3.3476Y-6.8252
X3.3547Y-5.5035
X3.3559Y-4.3169
X3.3563Y-3.0228
X3.3594Y-2.6618
X3.3642Y-4.1874
X3.3681Y-2.2433
X3.3697Y-2.8563
X3.3915Y-5.0754
X3.3941Y-3.4626
X3.3969Y-6.9087
X3.3973Y-6.6965
X3.4075Y-3.7465
X3.4201Y-4.7839
X3.4232Y-7.8677
X3.4248Y-4.65
X3.4248Y-7.4996
X3.4248Y-7.6594
X3.4287Y-3.6354
X3.4322Y-8.3973
X3.4579Y-4.2921
X3.4606Y-4.9142
X3.4612Y-8.1247
X3.4642Y-3.4866
X3.4661Y-3.3287
X3.4741Y-8.4412
X3.4778Y-5.7941
X3.4783Y-2.8091
X3.4854Y-5.6866
X3.4897Y-4.3929
X3.4909Y-5.498
X3.5059Y-7.987
X3.5083Y-5.2469
X3.5169Y-6.1272
X3.5224Y-5.0961
X3.5232Y-3.8559
X3.5252Y-4.9764
X3.5305Y-8.7081
X3.5428Y-4.6324
X3.5453Y-4.2606
X3.55Y-3.3287
X3.5508Y-7.0429
X3.5559Y-7.802
X3.559Y-4.7085
X3.5772Y-4.1583
X3.6103Y-5.6481
X3.626Y-8.013
X3.6307Y-7.5346
X3.6319Y-5.8476
X3.6339Y-2.8091
X3.635Y-4.3382
X3.6508Y-6.4059
X3.6547Y-4.4602
X3.6583Y-4.9894
X3.6619Y-2.1558
X3.6622Y-5.098
X3.6657Y-8.285
X3.6693Y-5.2591
X3.6807Y-4.6201
X3.6823Y-4.915
X3.6831Y-6.8929
X3.686Y-8.4659
X3.6874Y-7.6634
X3.6929Y-8.0571
X3.6961Y-7.3028
X3.7105Y-5.5479
X3.7213Y-4.2051
X3.726Y-5.7528
X3.7295Y-5.2661
X3.7304Y-2.2907
X3.7343Y-7.4857
X3.7469Y-2.6496
X3.7512Y-4.7067
X3.7528Y-2.2543
X3.754Y-7.2086
X3.7575Y-3.5287
X3.7634Y-7.9764
X3.7714Y-6.7835
X3.7744Y-3.4803
X3.7752Y-5.3598
X3.7787Y-3.2713
X3.7788Y-5.9773
X3.7791Y-8.1386
X3.7819Y-5.7969
X3.7846Y-4.8902
X3.79Y-6.2425
X3.802Y-4.5177
X3.8047Y-5.0909
X3.813Y-6.0768
X3.8159Y-4.7102
X3.8197Y-7.789
X3.8205Y-6.8839
X3.824Y-5.2256
X3.824Y-7.8703
X3.8303Y-6.5472
X3.8394Y-3.7874
X3.8426Y-3.1045
X3.8461Y-4.6661
X3.8484Y-5.3386
X3.85Y-4.5701
X3.8547Y-7.6933
X3.8551Y-5.8071
X3.8756Y-8.0654
X3.8866Y-7.4795
X3.8969Y-4.3075
X3.9031Y-2.0681
X3.9079Y-5.772
X3.9177Y-5.2748
X3.9193Y-4.6492
X3.9228Y-7.2299
X3.9248Y-5.0638
X3.9331Y-4.9953
X3.9378Y-4.5904
X3.9425Y-5.6445
X3.9425Y-6.4327
X3.9574Y-5.8594
X3.9603Y-8.4032
X3.9606Y-6.0622
X3.9642Y-4.4561
X3.991Y-2.6545
X3.9925Y-2.1764
X3.9925Y-7.4146
X4.0Y-5.4761
X4.0003Y-5.2047
X4.0004Y-4.6138
X4.0063Y-6.5429
X4.0205Y-3.9528
X4.0228Y-3.4185
X4.0236Y-6.0337
X4.0236Y-6.3079
X4.025Y-3.3579
X4.0324Y-8.1485
X4.0331Y-7.8637
X4.0389Y-8.6707
X4.039Y-3.7421
X4.0403Y-1.8884
X4.0406Y-3.0904
X4.0531Y-3.3094
X4.0654Y-5.6634
X4.0768Y-3.9228
X4.0823Y-3.4778
X4.0835Y-3.5282
X4.0858Y-5.2732
X4.0862Y-6.4295
X4.0866Y-5.0283
X4.0898Y-6.1118
X4.0898Y-7.228
X4.0929Y-8.5878
X4.0937Y-4.3484
X4.0998Y-3.5703
X4.1063Y-2.6831
X4.1063Y-3.1409
X4.1105Y-3.4071
X4.1142Y-2.1284
X4.1197Y-7.5008
X4.1264Y-5.3591
X4.1295Y-5.572
X4.1378Y-5.0815
X4.1504Y-7.7012
X4.1588Y-3.1007
X4.1638Y-4.7043
X4.1661Y-5.2787
X4.1732Y-6.028
X4.1776Y-7.5709
X4.178Y-5.6331
X4.1802Y-4.8248
X4.1807Y-5.8465
X4.1807Y-5.9539
X4.1866Y-8.6776
X4.1908Y-3.048
X4.2063Y-4.6894
X4.2065Y-5.8082
X4.2083Y-4.2626
X4.2122Y-8.5248
X4.2152Y-6.7873
X4.2201Y-4.3402
X4.2352Y-7.4817
X4.2406Y-4.4067
X4.2443Y-7.13
X4.2449Y-7.9969
X4.2462Y-7.2086
X4.2465Y-3.5185
X4.248Y-3.4602
X4.252Y-3.4055
X4.252Y-8.3244
X4.2535Y-8.6358
X4.2543Y-5.3098
X4.2549Y-4.8913
X4.2559Y-4.7783
X4.2574Y-4.7028
X4.2579Y-6.0827
X4.2665Y-6.0197
X4.2737Y-6.1956
X4.2756Y-4.4843
X4.2817Y-6.3415
X4.2831Y-6.5697
X4.2913Y-5.8538
X4.2934Y-5.4817
X4.2954Y-5.893
X4.2959Y-5.9469
X4.2976Y-3.5724
X4.3Y-3.3547
X4.3059Y-3.2421
X4.3177Y-5.35
X4.3236Y-4.3398
X4.328Y-5.3913
X4.3319Y-4.1835
X4.3358Y-8.5547
X4.3555Y-3.3535
X4.3555Y-3.5748
X4.3563Y-8.1173
X4.362Y-2.1633
X4.3732Y-8.4402
X4.3902Y-8.2768
X4.3908Y-2.4028
X4.3953Y-8.6936
X4.4079Y-7.111
X4.4094Y-3.5756
X4.4114Y-3.3524
X4.4169Y-3.2343
X4.4193Y-2.3425
X4.4213Y-5.4579
X4.4295Y-6.2496
X4.4303Y-4.5374
X4.4343Y-8.3284
X4.4453Y-2.7287
X4.4453Y-7.928
X4.4476Y-3.1953
X4.4512Y-3.4055
X4.4512Y-3.4614
X4.4512Y-3.515
X4.4587Y-2.313
X4.4634Y-4.8346
X4.4744Y-4.9866
X4.4843Y-4.6687
X4.4862Y-3.2998
X4.4874Y-4.4227
X4.4911Y-8.3932
X4.4956Y-7.2877
X4.4976Y-7.6382
X4.5087Y-5.8113
X4.5126Y-5.2094
X4.5197Y-4.9063
X4.5205Y-4.8492
X4.5305Y-3.5843
X4.5421Y-3.6551
X4.5449Y-7.3449
X4.5516Y-3.7071
X4.5516Y-7.0217
X4.552Y-4.5492
X4.5533Y-6.7634
X4.5581Y-8.1545
X4.5673Y-3.3579
X4.5692Y-7.8478
X4.5693Y-2.2366
X4.5701Y-3.1677
X4.5795Y-4.1748
X4.5866Y-2.5591
X4.5866Y-2.6083
X4.5876Y-3.6118
X4.5902Y-6.0382
X4.5906Y-3.5122
X4.5921Y-5.1185
X4.6035Y-4.9315
X4.6055Y-6.6964
X4.6067Y-3.9287
X4.6114Y-2.3945
X4.6201Y-7.3457
X4.6268Y-5.3717
X4.6268Y-5.2713
X4.6311Y-7.6634
X4.6453Y-2.8476
X4.6602Y-4.3795
X4.6697Y-7.2925
X4.6705Y-4.276
X4.6709Y-4.998
X4.6756Y-4.4406
X4.6854Y-5.8536
X4.6929Y-4.6602
X4.6929Y-7.2077
X4.6972Y-4.8567
X4.6988Y-3.3728
X4.6992Y-3.3169
X4.7076Y-7.4882
X4.722Y-2.3157
X4.7283Y-3.9187
X4.7292Y-5.8928
X4.7303Y-3.8776
X4.7449Y-5.1578
X4.7453Y-5.9492
X4.7476Y-7.0098
X4.7512Y-6.8843
X4.7533Y-4.2299
X4.7535Y-5.2713
X4.763Y-7.3031
X4.7693Y-6.024
X4.7705Y-3.6134
X4.7732Y-7.7488
X4.7739Y-4.6168
X4.7902Y-3.798
X4.7953Y-4.7732
X4.8024Y-5.4665
X4.8024Y-5.5406
X4.8042Y-3.3192
X4.8055Y-2.6886
X4.8063Y-2.5004
X4.8111Y-3.9882
X4.8156Y-3.456
X4.8435Y-4.1791
X4.8467Y-3.8771
X4.8469Y-3.5575
X4.8488Y-2.825
X4.8559Y-3.2449
X4.8839Y-4.0311
X4.8898Y-7.1835
T2
X3.2827Y-5.6252
X3.2827Y-5.7252
X3.2827Y-5.8252
X3.2827Y-5.9252
X3.2827Y-6.0252
X3.9626Y-4.0189
X3.9642Y-4.1244
X4.0626Y-4.0189
X4.0642Y-4.1244
X4.1626Y-4.0189
X4.1642Y-4.1244
X4.2626Y-4.0189
X4.2642Y-4.1244
X4.3626Y-4.0189
X4.3642Y-4.1244
X4.4626Y-4.0189
X4.4642Y-4.1244
T3
X3.8449Y-2.1642
T0
M30
