%TF.GenerationSoftware,KiCad,Pcbnew,7.0.2*%
%TF.CreationDate,2024-05-06T14:06:20-04:00*%
%TF.ProjectId,800+,3830302b-2e6b-4696-9361-645f70636258,rev?*%
%TF.SameCoordinates,Original*%
%TF.FileFunction,Soldermask,Bot*%
%TF.FilePolarity,Negative*%
%FSLAX46Y46*%
G04 Gerber Fmt 4.6, Leading zero omitted, Abs format (unit mm)*
G04 Created by KiCad (PCBNEW 7.0.2) date 2024-05-06 14:06:20*
%MOMM*%
%LPD*%
G01*
G04 APERTURE LIST*
G04 Aperture macros list*
%AMRoundRect*
0 Rectangle with rounded corners*
0 $1 Rounding radius*
0 $2 $3 $4 $5 $6 $7 $8 $9 X,Y pos of 4 corners*
0 Add a 4 corners polygon primitive as box body*
4,1,4,$2,$3,$4,$5,$6,$7,$8,$9,$2,$3,0*
0 Add four circle primitives for the rounded corners*
1,1,$1+$1,$2,$3*
1,1,$1+$1,$4,$5*
1,1,$1+$1,$6,$7*
1,1,$1+$1,$8,$9*
0 Add four rect primitives between the rounded corners*
20,1,$1+$1,$2,$3,$4,$5,0*
20,1,$1+$1,$4,$5,$6,$7,0*
20,1,$1+$1,$6,$7,$8,$9,0*
20,1,$1+$1,$8,$9,$2,$3,0*%
G04 Aperture macros list end*
%ADD10RoundRect,0.250000X-0.450000X0.262500X-0.450000X-0.262500X0.450000X-0.262500X0.450000X0.262500X0*%
%ADD11R,1.500000X0.900000*%
%ADD12R,0.900000X1.500000*%
%ADD13R,0.900000X0.900000*%
%ADD14C,2.286000*%
%ADD15R,1.250000X1.225000*%
%ADD16R,1.225000X1.250000*%
%ADD17C,3.000000*%
%ADD18C,2.200000*%
%ADD19R,1.700000X1.700000*%
%ADD20O,1.700000X1.700000*%
%ADD21C,2.100000*%
%ADD22C,5.000000*%
%ADD23C,2.500000*%
%ADD24RoundRect,0.250000X0.250000X0.475000X-0.250000X0.475000X-0.250000X-0.475000X0.250000X-0.475000X0*%
%ADD25RoundRect,0.250000X0.475000X-0.250000X0.475000X0.250000X-0.475000X0.250000X-0.475000X-0.250000X0*%
%ADD26RoundRect,0.250000X-0.475000X0.250000X-0.475000X-0.250000X0.475000X-0.250000X0.475000X0.250000X0*%
%ADD27RoundRect,0.250000X-0.262500X-0.450000X0.262500X-0.450000X0.262500X0.450000X-0.262500X0.450000X0*%
%ADD28RoundRect,0.150000X-0.150000X0.512500X-0.150000X-0.512500X0.150000X-0.512500X0.150000X0.512500X0*%
%ADD29RoundRect,0.250000X-0.250000X-0.475000X0.250000X-0.475000X0.250000X0.475000X-0.250000X0.475000X0*%
%ADD30RoundRect,0.150000X0.150000X0.700000X-0.150000X0.700000X-0.150000X-0.700000X0.150000X-0.700000X0*%
%ADD31RoundRect,0.250000X0.250000X1.150000X-0.250000X1.150000X-0.250000X-1.150000X0.250000X-1.150000X0*%
%ADD32RoundRect,0.250000X0.312500X1.075000X-0.312500X1.075000X-0.312500X-1.075000X0.312500X-1.075000X0*%
%ADD33RoundRect,0.100000X0.637500X0.100000X-0.637500X0.100000X-0.637500X-0.100000X0.637500X-0.100000X0*%
%ADD34RoundRect,0.150000X0.587500X0.150000X-0.587500X0.150000X-0.587500X-0.150000X0.587500X-0.150000X0*%
%ADD35RoundRect,0.250000X0.262500X0.450000X-0.262500X0.450000X-0.262500X-0.450000X0.262500X-0.450000X0*%
%ADD36RoundRect,0.250000X1.075000X-0.400000X1.075000X0.400000X-1.075000X0.400000X-1.075000X-0.400000X0*%
%ADD37C,0.900000*%
%ADD38R,0.500000X2.500000*%
%ADD39R,2.000000X2.500000*%
%ADD40R,1.500000X2.000000*%
%ADD41R,3.800000X2.000000*%
%ADD42RoundRect,0.375000X0.375000X1.125000X-0.375000X1.125000X-0.375000X-1.125000X0.375000X-1.125000X0*%
%ADD43RoundRect,0.225000X0.225000X1.275000X-0.225000X1.275000X-0.225000X-1.275000X0.225000X-1.275000X0*%
%TA.AperFunction,Profile*%
%ADD44C,0.200000*%
%TD*%
%TA.AperFunction,Profile*%
%ADD45C,0.100000*%
%TD*%
G04 APERTURE END LIST*
D10*
%TO.C,R9*%
X120760000Y-87877500D03*
X120760000Y-89702500D03*
%TD*%
D11*
%TO.C,U2*%
X117850000Y-80180000D03*
X117850000Y-81450000D03*
X117850000Y-82720000D03*
X117850000Y-83990000D03*
X117850000Y-85260000D03*
X117850000Y-86530000D03*
X117850000Y-87800000D03*
X117850000Y-89070000D03*
X117850000Y-90340000D03*
X117850000Y-91610000D03*
X117850000Y-92880000D03*
X117850000Y-94150000D03*
X117850000Y-95420000D03*
X117850000Y-96690000D03*
D12*
X116085000Y-97940000D03*
X114815000Y-97940000D03*
X113545000Y-97940000D03*
X112275000Y-97940000D03*
X111005000Y-97940000D03*
X109735000Y-97940000D03*
X108465000Y-97940000D03*
X107195000Y-97940000D03*
X105925000Y-97940000D03*
X104655000Y-97940000D03*
X103385000Y-97940000D03*
X102115000Y-97940000D03*
D11*
X100350000Y-96690000D03*
X100350000Y-95420000D03*
X100350000Y-94150000D03*
X100350000Y-92880000D03*
X100350000Y-91610000D03*
X100350000Y-90340000D03*
X100350000Y-89070000D03*
X100350000Y-87800000D03*
X100350000Y-86530000D03*
X100350000Y-85260000D03*
X100350000Y-83990000D03*
X100350000Y-82720000D03*
X100350000Y-81450000D03*
X100350000Y-80180000D03*
D13*
X112000000Y-89300000D03*
X112000000Y-89300000D03*
X112000000Y-87900000D03*
X112000000Y-86500000D03*
X110600000Y-89300000D03*
X110600000Y-87900000D03*
X110600000Y-86500000D03*
X110600000Y-86500000D03*
X109200000Y-89300000D03*
X109200000Y-87900000D03*
X109200000Y-86500000D03*
%TD*%
D14*
%TO.C,D32*%
X97580000Y-185600000D03*
D15*
X97580000Y-183637500D03*
X97605000Y-187562500D03*
%TD*%
D14*
%TO.C,D31*%
X95070000Y-115670000D03*
D15*
X95070000Y-113707500D03*
X95095000Y-117632500D03*
%TD*%
D14*
%TO.C,D30*%
X99680000Y-202590000D03*
D16*
X101642500Y-202590000D03*
X97717500Y-202615000D03*
%TD*%
D14*
%TO.C,D29*%
X89740000Y-182430000D03*
D16*
X91702500Y-182430000D03*
X87777500Y-182455000D03*
%TD*%
D14*
%TO.C,D28*%
X101570000Y-171480000D03*
D15*
X101570000Y-169517500D03*
X101595000Y-173442500D03*
%TD*%
D14*
%TO.C,D27*%
X111700000Y-170700000D03*
D15*
X111700000Y-168737500D03*
X111725000Y-172662500D03*
%TD*%
D14*
%TO.C,D26*%
X91140000Y-170430000D03*
D15*
X91140000Y-168467500D03*
X91165000Y-172392500D03*
%TD*%
D14*
%TO.C,D25*%
X117730000Y-116300000D03*
D15*
X117730000Y-114337500D03*
X117755000Y-118262500D03*
%TD*%
D14*
%TO.C,D24*%
X123660000Y-94650000D03*
D16*
X125622500Y-94650000D03*
X121697500Y-94675000D03*
%TD*%
D14*
%TO.C,D23*%
X79910000Y-94740000D03*
D16*
X81872500Y-94740000D03*
X77947500Y-94765000D03*
%TD*%
D14*
%TO.C,D22*%
X107300000Y-50400000D03*
D16*
X109262500Y-50400000D03*
X105337500Y-50425000D03*
%TD*%
D14*
%TO.C,D21*%
X113840000Y-189170000D03*
D16*
X115802500Y-189170000D03*
X111877500Y-189195000D03*
%TD*%
D14*
%TO.C,D20*%
X113610000Y-182120000D03*
D16*
X115572500Y-182120000D03*
X111647500Y-182145000D03*
%TD*%
D14*
%TO.C,D19*%
X123340000Y-77220000D03*
D16*
X125302500Y-77220000D03*
X121377500Y-77245000D03*
%TD*%
D14*
%TO.C,D18*%
X89420000Y-189190000D03*
D16*
X91382500Y-189190000D03*
X87457500Y-189215000D03*
%TD*%
D14*
%TO.C,D17*%
X107500000Y-115760000D03*
D15*
X107500000Y-113797500D03*
X107525000Y-117722500D03*
%TD*%
D14*
%TO.C,D16*%
X85275000Y-116125000D03*
D15*
X85275000Y-114162500D03*
X85300000Y-118087500D03*
%TD*%
D14*
%TO.C,D15*%
X96140000Y-50360000D03*
D16*
X98102500Y-50360000D03*
X94177500Y-50385000D03*
%TD*%
D14*
%TO.C,D14*%
X79620000Y-85950000D03*
D16*
X81582500Y-85950000D03*
X77657500Y-85975000D03*
%TD*%
D14*
%TO.C,D13*%
X120090000Y-125664000D03*
D16*
X122052500Y-125664000D03*
X118127500Y-125689000D03*
%TD*%
D14*
%TO.C,D12*%
X123760000Y-85970000D03*
D16*
X125722500Y-85970000D03*
X121797500Y-85995000D03*
%TD*%
D14*
%TO.C,D11*%
X105350000Y-185950000D03*
D15*
X105350000Y-183987500D03*
X105375000Y-187912500D03*
%TD*%
D14*
%TO.C,D10*%
X80100000Y-77190000D03*
D16*
X82062500Y-77190000D03*
X78137500Y-77215000D03*
%TD*%
D14*
%TO.C,D9*%
X83200000Y-125274000D03*
D16*
X85162500Y-125274000D03*
X81237500Y-125299000D03*
%TD*%
D14*
%TO.C,D8*%
X118560000Y-210400000D03*
D16*
X120522500Y-210400000D03*
X116597500Y-210425000D03*
%TD*%
D14*
%TO.C,D7*%
X84470000Y-202980000D03*
D16*
X86432500Y-202980000D03*
X82507500Y-203005000D03*
%TD*%
D14*
%TO.C,D6*%
X85120000Y-210120000D03*
D16*
X87082500Y-210120000D03*
X83157500Y-210145000D03*
%TD*%
D14*
%TO.C,D5*%
X119190000Y-202830000D03*
D16*
X121152500Y-202830000D03*
X117227500Y-202855000D03*
%TD*%
D14*
%TO.C,D4*%
X103810000Y-209840000D03*
D16*
X105772500Y-209840000D03*
X101847500Y-209865000D03*
%TD*%
D14*
%TO.C,D3*%
X113550000Y-217170000D03*
D15*
X113550000Y-215207500D03*
X113575000Y-219132500D03*
%TD*%
D14*
%TO.C,D2*%
X99440000Y-216960000D03*
D16*
X101402500Y-216960000D03*
X97477500Y-216985000D03*
%TD*%
D14*
%TO.C,D1*%
X90430000Y-216910000D03*
D15*
X90430000Y-214947500D03*
X90455000Y-218872500D03*
%TD*%
D17*
%TO.C,H3*%
X101610000Y-178560000D03*
%TD*%
D18*
%TO.C,H8*%
X82570000Y-136990000D03*
%TD*%
D19*
%TO.C,J6*%
X100650000Y-102080000D03*
D20*
X103190000Y-102080000D03*
X105730000Y-102080000D03*
X108270000Y-102080000D03*
X110810000Y-102080000D03*
X113350000Y-102080000D03*
%TD*%
D18*
%TO.C,H7*%
X120680000Y-136950000D03*
%TD*%
D21*
%TO.C,H5*%
X116620000Y-217460000D03*
%TD*%
D18*
%TO.C,H6*%
X101600000Y-226100000D03*
%TD*%
D21*
%TO.C,H4*%
X86580000Y-217460000D03*
%TD*%
D22*
%TO.C,H1*%
X101640000Y-120900000D03*
%TD*%
D23*
%TO.C,TP1*%
X97660000Y-54970000D03*
%TD*%
D18*
%TO.C,H9*%
X101620000Y-52880000D03*
%TD*%
D19*
%TO.C,J7*%
X100690000Y-104760000D03*
D20*
X103230000Y-104760000D03*
X105770000Y-104760000D03*
X108310000Y-104760000D03*
X110850000Y-104760000D03*
X113390000Y-104760000D03*
%TD*%
D17*
%TO.C,H2*%
X101600000Y-192550000D03*
%TD*%
D24*
%TO.C,C1*%
X98490000Y-67280000D03*
X96590000Y-67280000D03*
%TD*%
D25*
%TO.C,C4*%
X112780000Y-142980000D03*
X112780000Y-141080000D03*
%TD*%
D26*
%TO.C,C6*%
X86130000Y-69540000D03*
X86130000Y-71440000D03*
%TD*%
D25*
%TO.C,C3*%
X115460000Y-142900000D03*
X115460000Y-141000000D03*
%TD*%
D27*
%TO.C,R3*%
X90507500Y-91570000D03*
X92332500Y-91570000D03*
%TD*%
D28*
%TO.C,U3*%
X103800000Y-55162500D03*
X104750000Y-55162500D03*
X105700000Y-55162500D03*
X105700000Y-57437500D03*
X104750000Y-57437500D03*
X103800000Y-57437500D03*
%TD*%
D27*
%TO.C,R1*%
X94727500Y-91310000D03*
X96552500Y-91310000D03*
%TD*%
D29*
%TO.C,C5*%
X96550000Y-64790000D03*
X98450000Y-64790000D03*
%TD*%
D30*
%TO.C,J4*%
X87210000Y-61960000D03*
X85960000Y-61960000D03*
X84710000Y-61960000D03*
D31*
X89060000Y-58610000D03*
X82860000Y-58610000D03*
%TD*%
D26*
%TO.C,C7*%
X120410000Y-80140000D03*
X120410000Y-82040000D03*
%TD*%
D32*
%TO.C,R6*%
X91085000Y-97820000D03*
X88160000Y-97820000D03*
%TD*%
D10*
%TO.C,R7*%
X93780000Y-46435000D03*
X93780000Y-48260000D03*
%TD*%
D33*
%TO.C,U1*%
X110422500Y-142905000D03*
X110422500Y-143555000D03*
X110422500Y-144205000D03*
X110422500Y-144855000D03*
X110422500Y-145505000D03*
X110422500Y-146155000D03*
X110422500Y-146805000D03*
X110422500Y-147455000D03*
X110422500Y-148105000D03*
X110422500Y-148755000D03*
X110422500Y-149405000D03*
X110422500Y-150055000D03*
X110422500Y-150705000D03*
X110422500Y-151355000D03*
X104697500Y-151355000D03*
X104697500Y-150705000D03*
X104697500Y-150055000D03*
X104697500Y-149405000D03*
X104697500Y-148755000D03*
X104697500Y-148105000D03*
X104697500Y-147455000D03*
X104697500Y-146805000D03*
X104697500Y-146155000D03*
X104697500Y-145505000D03*
X104697500Y-144855000D03*
X104697500Y-144205000D03*
X104697500Y-143555000D03*
X104697500Y-142905000D03*
%TD*%
D10*
%TO.C,R4*%
X98490000Y-143257500D03*
X98490000Y-145082500D03*
%TD*%
D34*
%TO.C,Q2*%
X94847500Y-94310000D03*
X94847500Y-96210000D03*
X92972500Y-95260000D03*
%TD*%
D35*
%TO.C,R8*%
X96792500Y-102620000D03*
X94967500Y-102620000D03*
%TD*%
D36*
%TO.C,F1*%
X99880000Y-61250000D03*
X99880000Y-58150000D03*
%TD*%
D35*
%TO.C,R5*%
X96757500Y-100025000D03*
X94932500Y-100025000D03*
%TD*%
D37*
%TO.C,J2*%
X99410000Y-42300000D03*
X103810000Y-42300000D03*
D38*
X100010000Y-44900000D03*
X100810000Y-44900000D03*
X101610000Y-44900000D03*
X102410000Y-44900000D03*
X103210000Y-44900000D03*
D39*
X97210000Y-39400000D03*
X97210000Y-44900000D03*
X106010000Y-39400000D03*
X106010000Y-44900000D03*
%TD*%
D25*
%TO.C,C2*%
X101600000Y-145090000D03*
X101600000Y-143190000D03*
%TD*%
D34*
%TO.C,Q1*%
X93780000Y-87310000D03*
X93780000Y-89210000D03*
X91905000Y-88260000D03*
%TD*%
D40*
%TO.C,U4*%
X88590000Y-67280000D03*
X90890000Y-67280000D03*
X93190000Y-67280000D03*
D41*
X90890000Y-73580000D03*
%TD*%
D35*
%TO.C,R2*%
X97360000Y-85260000D03*
X95535000Y-85260000D03*
%TD*%
D42*
%TO.C,J5*%
X105140000Y-160200000D03*
X89640000Y-160200000D03*
D43*
X102890000Y-157200000D03*
X97390000Y-157200000D03*
X91890000Y-157200000D03*
%TD*%
D19*
%TO.C,J3*%
X83380000Y-142880000D03*
D20*
X83380000Y-145420000D03*
X83380000Y-147960000D03*
X83380000Y-150500000D03*
X83380000Y-153040000D03*
%TD*%
D44*
X124957787Y-185550035D02*
X123587431Y-185661847D01*
X88100000Y-229900000D02*
X90846015Y-231585032D01*
X126614331Y-101764031D02*
X125394275Y-102951174D01*
X122982904Y-142392064D02*
X121880997Y-143156584D01*
X90846015Y-231585032D02*
X93049943Y-232732052D01*
X79790067Y-124119007D02*
X80249492Y-142392086D01*
X81610490Y-122376435D02*
X82195356Y-122930672D01*
X78682146Y-119979309D02*
X79732178Y-120083292D01*
X80181413Y-123706012D02*
X79790067Y-124119007D01*
X116755233Y-52527641D02*
X119191583Y-52658007D01*
X77125916Y-70630799D02*
X76778999Y-72341714D01*
X79645011Y-188761946D02*
X79645014Y-194797097D01*
X126106406Y-70630774D02*
X126453324Y-72341688D01*
X110182546Y-232732043D02*
X107835432Y-233537464D01*
X82195356Y-122930672D02*
X81930711Y-123611619D01*
X79645010Y-185661869D02*
X79645011Y-188761946D01*
X80752433Y-58893891D02*
X79929816Y-61009855D01*
X121621885Y-122376414D02*
X121037020Y-122930652D01*
X126504120Y-194797073D02*
X125714891Y-205892113D01*
X122150389Y-152254660D02*
X122765104Y-152609991D01*
X123442310Y-124118985D02*
X122982904Y-142392064D01*
X122765104Y-152609991D02*
X123053233Y-156057012D01*
X117161677Y-227399643D02*
X115132486Y-229899986D01*
D45*
X127000000Y-74250000D02*
X126453324Y-72341688D01*
D44*
X119286066Y-54613064D02*
X119524628Y-54812781D01*
X81351404Y-151607846D02*
X81082017Y-152254681D01*
X123500195Y-120083270D02*
X123376465Y-122376413D01*
X84040720Y-52658025D02*
X83946239Y-54613082D01*
X125792277Y-179223518D02*
X126777893Y-185401526D01*
X80467302Y-152610013D02*
X80179177Y-156057034D01*
X108677965Y-42361801D02*
X110141254Y-43476010D01*
X123897293Y-164328740D02*
X124480692Y-168914319D01*
X79335126Y-164328763D02*
X78751731Y-168914342D01*
D45*
X78250000Y-120000000D02*
X78682146Y-119979309D01*
D44*
X78751731Y-168914342D02*
X78235340Y-172973265D01*
X93049943Y-232732052D02*
X95397058Y-233537471D01*
X108677963Y-40020535D02*
X108677965Y-42361801D01*
X125394275Y-102951174D02*
X123572997Y-104183283D01*
X107835432Y-233537464D02*
X101616245Y-233537467D01*
X78235340Y-172973265D02*
X77440157Y-179223543D01*
X81082017Y-152254681D02*
X80467302Y-152610013D01*
X124550227Y-119979285D02*
X123500195Y-120083270D01*
X123587431Y-185661847D02*
X123587432Y-188761924D01*
X121037020Y-122930652D02*
X121301666Y-123611599D01*
X77517571Y-205892138D02*
X78693579Y-210081346D01*
X124538887Y-210081323D02*
X122912565Y-216716267D01*
X83106505Y-223161241D02*
X86070807Y-227399659D01*
X123302495Y-61009832D02*
X123867456Y-62463038D01*
X86477070Y-52527656D02*
X84040720Y-52658025D01*
X79645014Y-194797097D02*
X76728330Y-194797099D01*
X79732339Y-160436057D02*
X79335126Y-164328763D01*
X121880997Y-143156584D02*
X121881002Y-151607825D01*
X78103818Y-66581731D02*
X77677520Y-68346849D01*
X106378765Y-37975933D02*
X101616144Y-37975936D01*
X96853523Y-37975938D02*
X94554327Y-40020543D01*
X79855910Y-122376436D02*
X81610490Y-122376435D01*
X80319908Y-216716289D02*
X83106505Y-223161241D01*
X79732178Y-120083292D02*
X79855910Y-122376436D01*
X82595561Y-54816856D02*
X81566130Y-56800873D01*
X79929816Y-61009855D02*
X79364858Y-62463061D01*
X79659359Y-104183305D02*
X79659364Y-113904283D01*
X78821700Y-64357063D02*
X78103818Y-66581731D01*
X83946239Y-54613082D02*
X83707678Y-54812800D01*
X94554328Y-42361808D02*
X93091039Y-43476018D01*
X76454547Y-185401552D02*
X78274654Y-185550059D01*
X94554327Y-40020543D02*
X94554328Y-42361808D01*
D45*
X127000000Y-101250000D02*
X127000000Y-74250000D01*
X78250000Y-114000000D02*
X78250000Y-120000000D01*
D44*
X81930711Y-123611619D02*
X80181413Y-123706012D01*
X125714891Y-205892113D02*
X124538887Y-210081323D01*
X96853523Y-37975938D02*
X101616144Y-37975936D01*
X126777893Y-185401526D02*
X124957787Y-185550035D01*
D45*
X124550224Y-113904260D02*
X125000000Y-114500000D01*
D44*
X76728330Y-194797099D02*
X77517571Y-205892138D01*
X115132486Y-229899986D02*
X112386473Y-231585020D01*
X123867456Y-62463038D02*
X124410615Y-64357040D01*
D45*
X78682143Y-113904284D02*
X78250000Y-114000000D01*
D44*
X119191583Y-52658007D02*
X119286066Y-54613064D01*
X76778999Y-72341714D02*
X76618023Y-101764057D01*
X81566130Y-56800873D02*
X80752433Y-58893891D01*
X86477068Y-49013081D02*
X86477070Y-52527656D01*
X80179177Y-156057034D02*
X79732339Y-160436057D01*
X79659364Y-113904283D02*
X78682143Y-113904284D01*
X120636745Y-54816837D02*
X121666177Y-56800853D01*
X124997087Y-172973241D02*
X125792277Y-179223518D01*
D45*
X125000000Y-119500000D02*
X124550227Y-119979285D01*
D44*
X125128499Y-66581706D02*
X125554800Y-68346824D01*
X123587436Y-194797074D02*
X126504120Y-194797073D01*
X78693579Y-210081346D02*
X80319908Y-216716289D01*
X80249492Y-142392086D02*
X81351399Y-143156605D01*
X123050963Y-123705990D02*
X123442310Y-124118985D01*
X121881002Y-151607825D02*
X122150389Y-152254660D01*
X77838080Y-102951198D02*
X79659359Y-104183305D01*
X123376465Y-122376413D02*
X121621885Y-122376414D01*
X123572997Y-104183283D02*
X123573002Y-113904260D01*
X116755231Y-49013065D02*
X116755233Y-52527641D01*
X119524628Y-54812781D02*
X120636745Y-54816837D01*
X125554800Y-68346824D02*
X126106406Y-70630774D01*
X86070807Y-227399659D02*
X88100000Y-229900000D01*
X121666177Y-56800853D02*
X122479876Y-58893870D01*
D45*
X125000000Y-114500000D02*
X125000000Y-119500000D01*
D44*
X93091039Y-43476018D02*
X86477068Y-49013081D01*
X112386473Y-231585020D02*
X110182546Y-232732043D01*
X120125975Y-223161222D02*
X117161677Y-227399643D01*
X106378765Y-37975933D02*
X108677963Y-40020535D01*
X123573002Y-113904260D02*
X124550224Y-113904260D01*
X121301666Y-123611599D02*
X123050963Y-123705990D01*
X79364858Y-62463061D02*
X78821700Y-64357063D01*
X78274654Y-185550059D02*
X79645010Y-185661869D01*
X83707678Y-54812800D02*
X82595561Y-54816856D01*
X77677520Y-68346849D02*
X77125916Y-70630799D01*
X124410615Y-64357040D02*
X125128499Y-66581706D01*
X123053233Y-156057012D02*
X123500075Y-160436035D01*
X124480692Y-168914319D02*
X124997087Y-172973241D01*
X122479876Y-58893870D02*
X123302495Y-61009832D01*
X110141254Y-43476010D02*
X116755231Y-49013065D01*
D45*
X126614331Y-101764031D02*
X127000000Y-101250000D01*
D44*
X76618023Y-101764057D02*
X77838080Y-102951198D01*
X81351399Y-143156605D02*
X81351404Y-151607846D01*
X95397058Y-233537471D02*
X101616245Y-233537467D01*
X123587432Y-188761924D02*
X123587436Y-194797074D01*
X123500075Y-160436035D02*
X123897293Y-164328740D01*
X77440157Y-179223543D02*
X76454547Y-185401552D01*
X122912565Y-216716267D02*
X120125975Y-223161222D01*
M02*
