%TF.GenerationSoftware,KiCad,Pcbnew,7.0.2*%
%TF.CreationDate,2024-06-14T10:06:29-04:00*%
%TF.ProjectId,800+,3830302b-2e6b-4696-9361-645f70636258,rev?*%
%TF.SameCoordinates,Original*%
%TF.FileFunction,Legend,Top*%
%TF.FilePolarity,Positive*%
%FSLAX46Y46*%
G04 Gerber Fmt 4.6, Leading zero omitted, Abs format (unit mm)*
G04 Created by KiCad (PCBNEW 7.0.2) date 2024-06-14 10:06:29*
%MOMM*%
%LPD*%
G01*
G04 APERTURE LIST*
%ADD10C,0.150000*%
%ADD11C,0.100000*%
%TA.AperFunction,Profile*%
%ADD12C,0.200000*%
%TD*%
%TA.AperFunction,Profile*%
%ADD13C,0.100000*%
%TD*%
G04 APERTURE END LIST*
D10*
X97220952Y-231926190D02*
X97125714Y-231878571D01*
X97125714Y-231878571D02*
X97078095Y-231830952D01*
X97078095Y-231830952D02*
X97030476Y-231735714D01*
X97030476Y-231735714D02*
X97030476Y-231688095D01*
X97030476Y-231688095D02*
X97078095Y-231592857D01*
X97078095Y-231592857D02*
X97125714Y-231545238D01*
X97125714Y-231545238D02*
X97220952Y-231497619D01*
X97220952Y-231497619D02*
X97411428Y-231497619D01*
X97411428Y-231497619D02*
X97506666Y-231545238D01*
X97506666Y-231545238D02*
X97554285Y-231592857D01*
X97554285Y-231592857D02*
X97601904Y-231688095D01*
X97601904Y-231688095D02*
X97601904Y-231735714D01*
X97601904Y-231735714D02*
X97554285Y-231830952D01*
X97554285Y-231830952D02*
X97506666Y-231878571D01*
X97506666Y-231878571D02*
X97411428Y-231926190D01*
X97411428Y-231926190D02*
X97220952Y-231926190D01*
X97220952Y-231926190D02*
X97125714Y-231973809D01*
X97125714Y-231973809D02*
X97078095Y-232021428D01*
X97078095Y-232021428D02*
X97030476Y-232116666D01*
X97030476Y-232116666D02*
X97030476Y-232307142D01*
X97030476Y-232307142D02*
X97078095Y-232402380D01*
X97078095Y-232402380D02*
X97125714Y-232450000D01*
X97125714Y-232450000D02*
X97220952Y-232497619D01*
X97220952Y-232497619D02*
X97411428Y-232497619D01*
X97411428Y-232497619D02*
X97506666Y-232450000D01*
X97506666Y-232450000D02*
X97554285Y-232402380D01*
X97554285Y-232402380D02*
X97601904Y-232307142D01*
X97601904Y-232307142D02*
X97601904Y-232116666D01*
X97601904Y-232116666D02*
X97554285Y-232021428D01*
X97554285Y-232021428D02*
X97506666Y-231973809D01*
X97506666Y-231973809D02*
X97411428Y-231926190D01*
X98173333Y-231926190D02*
X98078095Y-231878571D01*
X98078095Y-231878571D02*
X98030476Y-231830952D01*
X98030476Y-231830952D02*
X97982857Y-231735714D01*
X97982857Y-231735714D02*
X97982857Y-231688095D01*
X97982857Y-231688095D02*
X98030476Y-231592857D01*
X98030476Y-231592857D02*
X98078095Y-231545238D01*
X98078095Y-231545238D02*
X98173333Y-231497619D01*
X98173333Y-231497619D02*
X98363809Y-231497619D01*
X98363809Y-231497619D02*
X98459047Y-231545238D01*
X98459047Y-231545238D02*
X98506666Y-231592857D01*
X98506666Y-231592857D02*
X98554285Y-231688095D01*
X98554285Y-231688095D02*
X98554285Y-231735714D01*
X98554285Y-231735714D02*
X98506666Y-231830952D01*
X98506666Y-231830952D02*
X98459047Y-231878571D01*
X98459047Y-231878571D02*
X98363809Y-231926190D01*
X98363809Y-231926190D02*
X98173333Y-231926190D01*
X98173333Y-231926190D02*
X98078095Y-231973809D01*
X98078095Y-231973809D02*
X98030476Y-232021428D01*
X98030476Y-232021428D02*
X97982857Y-232116666D01*
X97982857Y-232116666D02*
X97982857Y-232307142D01*
X97982857Y-232307142D02*
X98030476Y-232402380D01*
X98030476Y-232402380D02*
X98078095Y-232450000D01*
X98078095Y-232450000D02*
X98173333Y-232497619D01*
X98173333Y-232497619D02*
X98363809Y-232497619D01*
X98363809Y-232497619D02*
X98459047Y-232450000D01*
X98459047Y-232450000D02*
X98506666Y-232402380D01*
X98506666Y-232402380D02*
X98554285Y-232307142D01*
X98554285Y-232307142D02*
X98554285Y-232116666D01*
X98554285Y-232116666D02*
X98506666Y-232021428D01*
X98506666Y-232021428D02*
X98459047Y-231973809D01*
X98459047Y-231973809D02*
X98363809Y-231926190D01*
X99173333Y-231497619D02*
X99268571Y-231497619D01*
X99268571Y-231497619D02*
X99363809Y-231545238D01*
X99363809Y-231545238D02*
X99411428Y-231592857D01*
X99411428Y-231592857D02*
X99459047Y-231688095D01*
X99459047Y-231688095D02*
X99506666Y-231878571D01*
X99506666Y-231878571D02*
X99506666Y-232116666D01*
X99506666Y-232116666D02*
X99459047Y-232307142D01*
X99459047Y-232307142D02*
X99411428Y-232402380D01*
X99411428Y-232402380D02*
X99363809Y-232450000D01*
X99363809Y-232450000D02*
X99268571Y-232497619D01*
X99268571Y-232497619D02*
X99173333Y-232497619D01*
X99173333Y-232497619D02*
X99078095Y-232450000D01*
X99078095Y-232450000D02*
X99030476Y-232402380D01*
X99030476Y-232402380D02*
X98982857Y-232307142D01*
X98982857Y-232307142D02*
X98935238Y-232116666D01*
X98935238Y-232116666D02*
X98935238Y-231878571D01*
X98935238Y-231878571D02*
X98982857Y-231688095D01*
X98982857Y-231688095D02*
X99030476Y-231592857D01*
X99030476Y-231592857D02*
X99078095Y-231545238D01*
X99078095Y-231545238D02*
X99173333Y-231497619D01*
X99935238Y-232116666D02*
X100697143Y-232116666D01*
X100316190Y-232497619D02*
X100316190Y-231735714D01*
X101887619Y-232211904D02*
X102363809Y-232211904D01*
X101792381Y-232497619D02*
X102125714Y-231497619D01*
X102125714Y-231497619D02*
X102459047Y-232497619D01*
X102935238Y-232497619D02*
X102840000Y-232450000D01*
X102840000Y-232450000D02*
X102792381Y-232354761D01*
X102792381Y-232354761D02*
X102792381Y-231497619D01*
X103316191Y-231830952D02*
X103316191Y-232830952D01*
X103316191Y-231878571D02*
X103411429Y-231830952D01*
X103411429Y-231830952D02*
X103601905Y-231830952D01*
X103601905Y-231830952D02*
X103697143Y-231878571D01*
X103697143Y-231878571D02*
X103744762Y-231926190D01*
X103744762Y-231926190D02*
X103792381Y-232021428D01*
X103792381Y-232021428D02*
X103792381Y-232307142D01*
X103792381Y-232307142D02*
X103744762Y-232402380D01*
X103744762Y-232402380D02*
X103697143Y-232450000D01*
X103697143Y-232450000D02*
X103601905Y-232497619D01*
X103601905Y-232497619D02*
X103411429Y-232497619D01*
X103411429Y-232497619D02*
X103316191Y-232450000D01*
X104220953Y-232497619D02*
X104220953Y-231497619D01*
X104649524Y-232497619D02*
X104649524Y-231973809D01*
X104649524Y-231973809D02*
X104601905Y-231878571D01*
X104601905Y-231878571D02*
X104506667Y-231830952D01*
X104506667Y-231830952D02*
X104363810Y-231830952D01*
X104363810Y-231830952D02*
X104268572Y-231878571D01*
X104268572Y-231878571D02*
X104220953Y-231926190D01*
X105554286Y-232497619D02*
X105554286Y-231973809D01*
X105554286Y-231973809D02*
X105506667Y-231878571D01*
X105506667Y-231878571D02*
X105411429Y-231830952D01*
X105411429Y-231830952D02*
X105220953Y-231830952D01*
X105220953Y-231830952D02*
X105125715Y-231878571D01*
X105554286Y-232450000D02*
X105459048Y-232497619D01*
X105459048Y-232497619D02*
X105220953Y-232497619D01*
X105220953Y-232497619D02*
X105125715Y-232450000D01*
X105125715Y-232450000D02*
X105078096Y-232354761D01*
X105078096Y-232354761D02*
X105078096Y-232259523D01*
X105078096Y-232259523D02*
X105125715Y-232164285D01*
X105125715Y-232164285D02*
X105220953Y-232116666D01*
X105220953Y-232116666D02*
X105459048Y-232116666D01*
X105459048Y-232116666D02*
X105554286Y-232069047D01*
X105935239Y-231497619D02*
X106554286Y-231497619D01*
X106554286Y-231497619D02*
X106220953Y-231878571D01*
X106220953Y-231878571D02*
X106363810Y-231878571D01*
X106363810Y-231878571D02*
X106459048Y-231926190D01*
X106459048Y-231926190D02*
X106506667Y-231973809D01*
X106506667Y-231973809D02*
X106554286Y-232069047D01*
X106554286Y-232069047D02*
X106554286Y-232307142D01*
X106554286Y-232307142D02*
X106506667Y-232402380D01*
X106506667Y-232402380D02*
X106459048Y-232450000D01*
X106459048Y-232450000D02*
X106363810Y-232497619D01*
X106363810Y-232497619D02*
X106078096Y-232497619D01*
X106078096Y-232497619D02*
X105982858Y-232450000D01*
X105982858Y-232450000D02*
X105935239Y-232402380D01*
%TO.C,SW29*%
X94690476Y-161765000D02*
X94833333Y-161812619D01*
X94833333Y-161812619D02*
X95071428Y-161812619D01*
X95071428Y-161812619D02*
X95166666Y-161765000D01*
X95166666Y-161765000D02*
X95214285Y-161717380D01*
X95214285Y-161717380D02*
X95261904Y-161622142D01*
X95261904Y-161622142D02*
X95261904Y-161526904D01*
X95261904Y-161526904D02*
X95214285Y-161431666D01*
X95214285Y-161431666D02*
X95166666Y-161384047D01*
X95166666Y-161384047D02*
X95071428Y-161336428D01*
X95071428Y-161336428D02*
X94880952Y-161288809D01*
X94880952Y-161288809D02*
X94785714Y-161241190D01*
X94785714Y-161241190D02*
X94738095Y-161193571D01*
X94738095Y-161193571D02*
X94690476Y-161098333D01*
X94690476Y-161098333D02*
X94690476Y-161003095D01*
X94690476Y-161003095D02*
X94738095Y-160907857D01*
X94738095Y-160907857D02*
X94785714Y-160860238D01*
X94785714Y-160860238D02*
X94880952Y-160812619D01*
X94880952Y-160812619D02*
X95119047Y-160812619D01*
X95119047Y-160812619D02*
X95261904Y-160860238D01*
X95595238Y-160812619D02*
X95833333Y-161812619D01*
X95833333Y-161812619D02*
X96023809Y-161098333D01*
X96023809Y-161098333D02*
X96214285Y-161812619D01*
X96214285Y-161812619D02*
X96452381Y-160812619D01*
X96785714Y-160907857D02*
X96833333Y-160860238D01*
X96833333Y-160860238D02*
X96928571Y-160812619D01*
X96928571Y-160812619D02*
X97166666Y-160812619D01*
X97166666Y-160812619D02*
X97261904Y-160860238D01*
X97261904Y-160860238D02*
X97309523Y-160907857D01*
X97309523Y-160907857D02*
X97357142Y-161003095D01*
X97357142Y-161003095D02*
X97357142Y-161098333D01*
X97357142Y-161098333D02*
X97309523Y-161241190D01*
X97309523Y-161241190D02*
X96738095Y-161812619D01*
X96738095Y-161812619D02*
X97357142Y-161812619D01*
X97833333Y-161812619D02*
X98023809Y-161812619D01*
X98023809Y-161812619D02*
X98119047Y-161765000D01*
X98119047Y-161765000D02*
X98166666Y-161717380D01*
X98166666Y-161717380D02*
X98261904Y-161574523D01*
X98261904Y-161574523D02*
X98309523Y-161384047D01*
X98309523Y-161384047D02*
X98309523Y-161003095D01*
X98309523Y-161003095D02*
X98261904Y-160907857D01*
X98261904Y-160907857D02*
X98214285Y-160860238D01*
X98214285Y-160860238D02*
X98119047Y-160812619D01*
X98119047Y-160812619D02*
X97928571Y-160812619D01*
X97928571Y-160812619D02*
X97833333Y-160860238D01*
X97833333Y-160860238D02*
X97785714Y-160907857D01*
X97785714Y-160907857D02*
X97738095Y-161003095D01*
X97738095Y-161003095D02*
X97738095Y-161241190D01*
X97738095Y-161241190D02*
X97785714Y-161336428D01*
X97785714Y-161336428D02*
X97833333Y-161384047D01*
X97833333Y-161384047D02*
X97928571Y-161431666D01*
X97928571Y-161431666D02*
X98119047Y-161431666D01*
X98119047Y-161431666D02*
X98214285Y-161384047D01*
X98214285Y-161384047D02*
X98261904Y-161336428D01*
X98261904Y-161336428D02*
X98309523Y-161241190D01*
%TO.C,SW1*%
X100266667Y-44865000D02*
X100409524Y-44912619D01*
X100409524Y-44912619D02*
X100647619Y-44912619D01*
X100647619Y-44912619D02*
X100742857Y-44865000D01*
X100742857Y-44865000D02*
X100790476Y-44817380D01*
X100790476Y-44817380D02*
X100838095Y-44722142D01*
X100838095Y-44722142D02*
X100838095Y-44626904D01*
X100838095Y-44626904D02*
X100790476Y-44531666D01*
X100790476Y-44531666D02*
X100742857Y-44484047D01*
X100742857Y-44484047D02*
X100647619Y-44436428D01*
X100647619Y-44436428D02*
X100457143Y-44388809D01*
X100457143Y-44388809D02*
X100361905Y-44341190D01*
X100361905Y-44341190D02*
X100314286Y-44293571D01*
X100314286Y-44293571D02*
X100266667Y-44198333D01*
X100266667Y-44198333D02*
X100266667Y-44103095D01*
X100266667Y-44103095D02*
X100314286Y-44007857D01*
X100314286Y-44007857D02*
X100361905Y-43960238D01*
X100361905Y-43960238D02*
X100457143Y-43912619D01*
X100457143Y-43912619D02*
X100695238Y-43912619D01*
X100695238Y-43912619D02*
X100838095Y-43960238D01*
X101171429Y-43912619D02*
X101409524Y-44912619D01*
X101409524Y-44912619D02*
X101600000Y-44198333D01*
X101600000Y-44198333D02*
X101790476Y-44912619D01*
X101790476Y-44912619D02*
X102028572Y-43912619D01*
X102933333Y-44912619D02*
X102361905Y-44912619D01*
X102647619Y-44912619D02*
X102647619Y-43912619D01*
X102647619Y-43912619D02*
X102552381Y-44055476D01*
X102552381Y-44055476D02*
X102457143Y-44150714D01*
X102457143Y-44150714D02*
X102361905Y-44198333D01*
%TO.C,SW7*%
X83325000Y-100553332D02*
X83372619Y-100410475D01*
X83372619Y-100410475D02*
X83372619Y-100172380D01*
X83372619Y-100172380D02*
X83325000Y-100077142D01*
X83325000Y-100077142D02*
X83277380Y-100029523D01*
X83277380Y-100029523D02*
X83182142Y-99981904D01*
X83182142Y-99981904D02*
X83086904Y-99981904D01*
X83086904Y-99981904D02*
X82991666Y-100029523D01*
X82991666Y-100029523D02*
X82944047Y-100077142D01*
X82944047Y-100077142D02*
X82896428Y-100172380D01*
X82896428Y-100172380D02*
X82848809Y-100362856D01*
X82848809Y-100362856D02*
X82801190Y-100458094D01*
X82801190Y-100458094D02*
X82753571Y-100505713D01*
X82753571Y-100505713D02*
X82658333Y-100553332D01*
X82658333Y-100553332D02*
X82563095Y-100553332D01*
X82563095Y-100553332D02*
X82467857Y-100505713D01*
X82467857Y-100505713D02*
X82420238Y-100458094D01*
X82420238Y-100458094D02*
X82372619Y-100362856D01*
X82372619Y-100362856D02*
X82372619Y-100124761D01*
X82372619Y-100124761D02*
X82420238Y-99981904D01*
X82372619Y-99648570D02*
X83372619Y-99410475D01*
X83372619Y-99410475D02*
X82658333Y-99219999D01*
X82658333Y-99219999D02*
X83372619Y-99029523D01*
X83372619Y-99029523D02*
X82372619Y-98791428D01*
X82372619Y-98505713D02*
X82372619Y-97839047D01*
X82372619Y-97839047D02*
X83372619Y-98267618D01*
%TO.C,SW26*%
X99780476Y-152565000D02*
X99923333Y-152612619D01*
X99923333Y-152612619D02*
X100161428Y-152612619D01*
X100161428Y-152612619D02*
X100256666Y-152565000D01*
X100256666Y-152565000D02*
X100304285Y-152517380D01*
X100304285Y-152517380D02*
X100351904Y-152422142D01*
X100351904Y-152422142D02*
X100351904Y-152326904D01*
X100351904Y-152326904D02*
X100304285Y-152231666D01*
X100304285Y-152231666D02*
X100256666Y-152184047D01*
X100256666Y-152184047D02*
X100161428Y-152136428D01*
X100161428Y-152136428D02*
X99970952Y-152088809D01*
X99970952Y-152088809D02*
X99875714Y-152041190D01*
X99875714Y-152041190D02*
X99828095Y-151993571D01*
X99828095Y-151993571D02*
X99780476Y-151898333D01*
X99780476Y-151898333D02*
X99780476Y-151803095D01*
X99780476Y-151803095D02*
X99828095Y-151707857D01*
X99828095Y-151707857D02*
X99875714Y-151660238D01*
X99875714Y-151660238D02*
X99970952Y-151612619D01*
X99970952Y-151612619D02*
X100209047Y-151612619D01*
X100209047Y-151612619D02*
X100351904Y-151660238D01*
X100685238Y-151612619D02*
X100923333Y-152612619D01*
X100923333Y-152612619D02*
X101113809Y-151898333D01*
X101113809Y-151898333D02*
X101304285Y-152612619D01*
X101304285Y-152612619D02*
X101542381Y-151612619D01*
X101875714Y-151707857D02*
X101923333Y-151660238D01*
X101923333Y-151660238D02*
X102018571Y-151612619D01*
X102018571Y-151612619D02*
X102256666Y-151612619D01*
X102256666Y-151612619D02*
X102351904Y-151660238D01*
X102351904Y-151660238D02*
X102399523Y-151707857D01*
X102399523Y-151707857D02*
X102447142Y-151803095D01*
X102447142Y-151803095D02*
X102447142Y-151898333D01*
X102447142Y-151898333D02*
X102399523Y-152041190D01*
X102399523Y-152041190D02*
X101828095Y-152612619D01*
X101828095Y-152612619D02*
X102447142Y-152612619D01*
X103304285Y-151612619D02*
X103113809Y-151612619D01*
X103113809Y-151612619D02*
X103018571Y-151660238D01*
X103018571Y-151660238D02*
X102970952Y-151707857D01*
X102970952Y-151707857D02*
X102875714Y-151850714D01*
X102875714Y-151850714D02*
X102828095Y-152041190D01*
X102828095Y-152041190D02*
X102828095Y-152422142D01*
X102828095Y-152422142D02*
X102875714Y-152517380D01*
X102875714Y-152517380D02*
X102923333Y-152565000D01*
X102923333Y-152565000D02*
X103018571Y-152612619D01*
X103018571Y-152612619D02*
X103209047Y-152612619D01*
X103209047Y-152612619D02*
X103304285Y-152565000D01*
X103304285Y-152565000D02*
X103351904Y-152517380D01*
X103351904Y-152517380D02*
X103399523Y-152422142D01*
X103399523Y-152422142D02*
X103399523Y-152184047D01*
X103399523Y-152184047D02*
X103351904Y-152088809D01*
X103351904Y-152088809D02*
X103304285Y-152041190D01*
X103304285Y-152041190D02*
X103209047Y-151993571D01*
X103209047Y-151993571D02*
X103018571Y-151993571D01*
X103018571Y-151993571D02*
X102923333Y-152041190D01*
X102923333Y-152041190D02*
X102875714Y-152088809D01*
X102875714Y-152088809D02*
X102828095Y-152184047D01*
%TO.C,SW17*%
X80440476Y-120755000D02*
X80583333Y-120802619D01*
X80583333Y-120802619D02*
X80821428Y-120802619D01*
X80821428Y-120802619D02*
X80916666Y-120755000D01*
X80916666Y-120755000D02*
X80964285Y-120707380D01*
X80964285Y-120707380D02*
X81011904Y-120612142D01*
X81011904Y-120612142D02*
X81011904Y-120516904D01*
X81011904Y-120516904D02*
X80964285Y-120421666D01*
X80964285Y-120421666D02*
X80916666Y-120374047D01*
X80916666Y-120374047D02*
X80821428Y-120326428D01*
X80821428Y-120326428D02*
X80630952Y-120278809D01*
X80630952Y-120278809D02*
X80535714Y-120231190D01*
X80535714Y-120231190D02*
X80488095Y-120183571D01*
X80488095Y-120183571D02*
X80440476Y-120088333D01*
X80440476Y-120088333D02*
X80440476Y-119993095D01*
X80440476Y-119993095D02*
X80488095Y-119897857D01*
X80488095Y-119897857D02*
X80535714Y-119850238D01*
X80535714Y-119850238D02*
X80630952Y-119802619D01*
X80630952Y-119802619D02*
X80869047Y-119802619D01*
X80869047Y-119802619D02*
X81011904Y-119850238D01*
X81345238Y-119802619D02*
X81583333Y-120802619D01*
X81583333Y-120802619D02*
X81773809Y-120088333D01*
X81773809Y-120088333D02*
X81964285Y-120802619D01*
X81964285Y-120802619D02*
X82202381Y-119802619D01*
X83107142Y-120802619D02*
X82535714Y-120802619D01*
X82821428Y-120802619D02*
X82821428Y-119802619D01*
X82821428Y-119802619D02*
X82726190Y-119945476D01*
X82726190Y-119945476D02*
X82630952Y-120040714D01*
X82630952Y-120040714D02*
X82535714Y-120088333D01*
X83440476Y-119802619D02*
X84107142Y-119802619D01*
X84107142Y-119802619D02*
X83678571Y-120802619D01*
%TO.C,SW14*%
X99800476Y-109605000D02*
X99943333Y-109652619D01*
X99943333Y-109652619D02*
X100181428Y-109652619D01*
X100181428Y-109652619D02*
X100276666Y-109605000D01*
X100276666Y-109605000D02*
X100324285Y-109557380D01*
X100324285Y-109557380D02*
X100371904Y-109462142D01*
X100371904Y-109462142D02*
X100371904Y-109366904D01*
X100371904Y-109366904D02*
X100324285Y-109271666D01*
X100324285Y-109271666D02*
X100276666Y-109224047D01*
X100276666Y-109224047D02*
X100181428Y-109176428D01*
X100181428Y-109176428D02*
X99990952Y-109128809D01*
X99990952Y-109128809D02*
X99895714Y-109081190D01*
X99895714Y-109081190D02*
X99848095Y-109033571D01*
X99848095Y-109033571D02*
X99800476Y-108938333D01*
X99800476Y-108938333D02*
X99800476Y-108843095D01*
X99800476Y-108843095D02*
X99848095Y-108747857D01*
X99848095Y-108747857D02*
X99895714Y-108700238D01*
X99895714Y-108700238D02*
X99990952Y-108652619D01*
X99990952Y-108652619D02*
X100229047Y-108652619D01*
X100229047Y-108652619D02*
X100371904Y-108700238D01*
X100705238Y-108652619D02*
X100943333Y-109652619D01*
X100943333Y-109652619D02*
X101133809Y-108938333D01*
X101133809Y-108938333D02*
X101324285Y-109652619D01*
X101324285Y-109652619D02*
X101562381Y-108652619D01*
X102467142Y-109652619D02*
X101895714Y-109652619D01*
X102181428Y-109652619D02*
X102181428Y-108652619D01*
X102181428Y-108652619D02*
X102086190Y-108795476D01*
X102086190Y-108795476D02*
X101990952Y-108890714D01*
X101990952Y-108890714D02*
X101895714Y-108938333D01*
X103324285Y-108985952D02*
X103324285Y-109652619D01*
X103086190Y-108605000D02*
X102848095Y-109319285D01*
X102848095Y-109319285D02*
X103467142Y-109319285D01*
%TO.C,SW50*%
X117940476Y-214575000D02*
X118083333Y-214622619D01*
X118083333Y-214622619D02*
X118321428Y-214622619D01*
X118321428Y-214622619D02*
X118416666Y-214575000D01*
X118416666Y-214575000D02*
X118464285Y-214527380D01*
X118464285Y-214527380D02*
X118511904Y-214432142D01*
X118511904Y-214432142D02*
X118511904Y-214336904D01*
X118511904Y-214336904D02*
X118464285Y-214241666D01*
X118464285Y-214241666D02*
X118416666Y-214194047D01*
X118416666Y-214194047D02*
X118321428Y-214146428D01*
X118321428Y-214146428D02*
X118130952Y-214098809D01*
X118130952Y-214098809D02*
X118035714Y-214051190D01*
X118035714Y-214051190D02*
X117988095Y-214003571D01*
X117988095Y-214003571D02*
X117940476Y-213908333D01*
X117940476Y-213908333D02*
X117940476Y-213813095D01*
X117940476Y-213813095D02*
X117988095Y-213717857D01*
X117988095Y-213717857D02*
X118035714Y-213670238D01*
X118035714Y-213670238D02*
X118130952Y-213622619D01*
X118130952Y-213622619D02*
X118369047Y-213622619D01*
X118369047Y-213622619D02*
X118511904Y-213670238D01*
X118845238Y-213622619D02*
X119083333Y-214622619D01*
X119083333Y-214622619D02*
X119273809Y-213908333D01*
X119273809Y-213908333D02*
X119464285Y-214622619D01*
X119464285Y-214622619D02*
X119702381Y-213622619D01*
X120559523Y-213622619D02*
X120083333Y-213622619D01*
X120083333Y-213622619D02*
X120035714Y-214098809D01*
X120035714Y-214098809D02*
X120083333Y-214051190D01*
X120083333Y-214051190D02*
X120178571Y-214003571D01*
X120178571Y-214003571D02*
X120416666Y-214003571D01*
X120416666Y-214003571D02*
X120511904Y-214051190D01*
X120511904Y-214051190D02*
X120559523Y-214098809D01*
X120559523Y-214098809D02*
X120607142Y-214194047D01*
X120607142Y-214194047D02*
X120607142Y-214432142D01*
X120607142Y-214432142D02*
X120559523Y-214527380D01*
X120559523Y-214527380D02*
X120511904Y-214575000D01*
X120511904Y-214575000D02*
X120416666Y-214622619D01*
X120416666Y-214622619D02*
X120178571Y-214622619D01*
X120178571Y-214622619D02*
X120083333Y-214575000D01*
X120083333Y-214575000D02*
X120035714Y-214527380D01*
X121226190Y-213622619D02*
X121321428Y-213622619D01*
X121321428Y-213622619D02*
X121416666Y-213670238D01*
X121416666Y-213670238D02*
X121464285Y-213717857D01*
X121464285Y-213717857D02*
X121511904Y-213813095D01*
X121511904Y-213813095D02*
X121559523Y-214003571D01*
X121559523Y-214003571D02*
X121559523Y-214241666D01*
X121559523Y-214241666D02*
X121511904Y-214432142D01*
X121511904Y-214432142D02*
X121464285Y-214527380D01*
X121464285Y-214527380D02*
X121416666Y-214575000D01*
X121416666Y-214575000D02*
X121321428Y-214622619D01*
X121321428Y-214622619D02*
X121226190Y-214622619D01*
X121226190Y-214622619D02*
X121130952Y-214575000D01*
X121130952Y-214575000D02*
X121083333Y-214527380D01*
X121083333Y-214527380D02*
X121035714Y-214432142D01*
X121035714Y-214432142D02*
X120988095Y-214241666D01*
X120988095Y-214241666D02*
X120988095Y-214003571D01*
X120988095Y-214003571D02*
X121035714Y-213813095D01*
X121035714Y-213813095D02*
X121083333Y-213717857D01*
X121083333Y-213717857D02*
X121130952Y-213670238D01*
X121130952Y-213670238D02*
X121226190Y-213622619D01*
%TO.C,SW52*%
X88965476Y-224805000D02*
X89108333Y-224852619D01*
X89108333Y-224852619D02*
X89346428Y-224852619D01*
X89346428Y-224852619D02*
X89441666Y-224805000D01*
X89441666Y-224805000D02*
X89489285Y-224757380D01*
X89489285Y-224757380D02*
X89536904Y-224662142D01*
X89536904Y-224662142D02*
X89536904Y-224566904D01*
X89536904Y-224566904D02*
X89489285Y-224471666D01*
X89489285Y-224471666D02*
X89441666Y-224424047D01*
X89441666Y-224424047D02*
X89346428Y-224376428D01*
X89346428Y-224376428D02*
X89155952Y-224328809D01*
X89155952Y-224328809D02*
X89060714Y-224281190D01*
X89060714Y-224281190D02*
X89013095Y-224233571D01*
X89013095Y-224233571D02*
X88965476Y-224138333D01*
X88965476Y-224138333D02*
X88965476Y-224043095D01*
X88965476Y-224043095D02*
X89013095Y-223947857D01*
X89013095Y-223947857D02*
X89060714Y-223900238D01*
X89060714Y-223900238D02*
X89155952Y-223852619D01*
X89155952Y-223852619D02*
X89394047Y-223852619D01*
X89394047Y-223852619D02*
X89536904Y-223900238D01*
X89870238Y-223852619D02*
X90108333Y-224852619D01*
X90108333Y-224852619D02*
X90298809Y-224138333D01*
X90298809Y-224138333D02*
X90489285Y-224852619D01*
X90489285Y-224852619D02*
X90727381Y-223852619D01*
X91584523Y-223852619D02*
X91108333Y-223852619D01*
X91108333Y-223852619D02*
X91060714Y-224328809D01*
X91060714Y-224328809D02*
X91108333Y-224281190D01*
X91108333Y-224281190D02*
X91203571Y-224233571D01*
X91203571Y-224233571D02*
X91441666Y-224233571D01*
X91441666Y-224233571D02*
X91536904Y-224281190D01*
X91536904Y-224281190D02*
X91584523Y-224328809D01*
X91584523Y-224328809D02*
X91632142Y-224424047D01*
X91632142Y-224424047D02*
X91632142Y-224662142D01*
X91632142Y-224662142D02*
X91584523Y-224757380D01*
X91584523Y-224757380D02*
X91536904Y-224805000D01*
X91536904Y-224805000D02*
X91441666Y-224852619D01*
X91441666Y-224852619D02*
X91203571Y-224852619D01*
X91203571Y-224852619D02*
X91108333Y-224805000D01*
X91108333Y-224805000D02*
X91060714Y-224757380D01*
X92013095Y-223947857D02*
X92060714Y-223900238D01*
X92060714Y-223900238D02*
X92155952Y-223852619D01*
X92155952Y-223852619D02*
X92394047Y-223852619D01*
X92394047Y-223852619D02*
X92489285Y-223900238D01*
X92489285Y-223900238D02*
X92536904Y-223947857D01*
X92536904Y-223947857D02*
X92584523Y-224043095D01*
X92584523Y-224043095D02*
X92584523Y-224138333D01*
X92584523Y-224138333D02*
X92536904Y-224281190D01*
X92536904Y-224281190D02*
X91965476Y-224852619D01*
X91965476Y-224852619D02*
X92584523Y-224852619D01*
%TO.C,SW6*%
X83195000Y-91483332D02*
X83242619Y-91340475D01*
X83242619Y-91340475D02*
X83242619Y-91102380D01*
X83242619Y-91102380D02*
X83195000Y-91007142D01*
X83195000Y-91007142D02*
X83147380Y-90959523D01*
X83147380Y-90959523D02*
X83052142Y-90911904D01*
X83052142Y-90911904D02*
X82956904Y-90911904D01*
X82956904Y-90911904D02*
X82861666Y-90959523D01*
X82861666Y-90959523D02*
X82814047Y-91007142D01*
X82814047Y-91007142D02*
X82766428Y-91102380D01*
X82766428Y-91102380D02*
X82718809Y-91292856D01*
X82718809Y-91292856D02*
X82671190Y-91388094D01*
X82671190Y-91388094D02*
X82623571Y-91435713D01*
X82623571Y-91435713D02*
X82528333Y-91483332D01*
X82528333Y-91483332D02*
X82433095Y-91483332D01*
X82433095Y-91483332D02*
X82337857Y-91435713D01*
X82337857Y-91435713D02*
X82290238Y-91388094D01*
X82290238Y-91388094D02*
X82242619Y-91292856D01*
X82242619Y-91292856D02*
X82242619Y-91054761D01*
X82242619Y-91054761D02*
X82290238Y-90911904D01*
X82242619Y-90578570D02*
X83242619Y-90340475D01*
X83242619Y-90340475D02*
X82528333Y-90149999D01*
X82528333Y-90149999D02*
X83242619Y-89959523D01*
X83242619Y-89959523D02*
X82242619Y-89721428D01*
X82242619Y-88911904D02*
X82242619Y-89102380D01*
X82242619Y-89102380D02*
X82290238Y-89197618D01*
X82290238Y-89197618D02*
X82337857Y-89245237D01*
X82337857Y-89245237D02*
X82480714Y-89340475D01*
X82480714Y-89340475D02*
X82671190Y-89388094D01*
X82671190Y-89388094D02*
X83052142Y-89388094D01*
X83052142Y-89388094D02*
X83147380Y-89340475D01*
X83147380Y-89340475D02*
X83195000Y-89292856D01*
X83195000Y-89292856D02*
X83242619Y-89197618D01*
X83242619Y-89197618D02*
X83242619Y-89007142D01*
X83242619Y-89007142D02*
X83195000Y-88911904D01*
X83195000Y-88911904D02*
X83147380Y-88864285D01*
X83147380Y-88864285D02*
X83052142Y-88816666D01*
X83052142Y-88816666D02*
X82814047Y-88816666D01*
X82814047Y-88816666D02*
X82718809Y-88864285D01*
X82718809Y-88864285D02*
X82671190Y-88911904D01*
X82671190Y-88911904D02*
X82623571Y-89007142D01*
X82623571Y-89007142D02*
X82623571Y-89197618D01*
X82623571Y-89197618D02*
X82671190Y-89292856D01*
X82671190Y-89292856D02*
X82718809Y-89340475D01*
X82718809Y-89340475D02*
X82814047Y-89388094D01*
%TO.C,SW34*%
X82390476Y-185715000D02*
X82533333Y-185762619D01*
X82533333Y-185762619D02*
X82771428Y-185762619D01*
X82771428Y-185762619D02*
X82866666Y-185715000D01*
X82866666Y-185715000D02*
X82914285Y-185667380D01*
X82914285Y-185667380D02*
X82961904Y-185572142D01*
X82961904Y-185572142D02*
X82961904Y-185476904D01*
X82961904Y-185476904D02*
X82914285Y-185381666D01*
X82914285Y-185381666D02*
X82866666Y-185334047D01*
X82866666Y-185334047D02*
X82771428Y-185286428D01*
X82771428Y-185286428D02*
X82580952Y-185238809D01*
X82580952Y-185238809D02*
X82485714Y-185191190D01*
X82485714Y-185191190D02*
X82438095Y-185143571D01*
X82438095Y-185143571D02*
X82390476Y-185048333D01*
X82390476Y-185048333D02*
X82390476Y-184953095D01*
X82390476Y-184953095D02*
X82438095Y-184857857D01*
X82438095Y-184857857D02*
X82485714Y-184810238D01*
X82485714Y-184810238D02*
X82580952Y-184762619D01*
X82580952Y-184762619D02*
X82819047Y-184762619D01*
X82819047Y-184762619D02*
X82961904Y-184810238D01*
X83295238Y-184762619D02*
X83533333Y-185762619D01*
X83533333Y-185762619D02*
X83723809Y-185048333D01*
X83723809Y-185048333D02*
X83914285Y-185762619D01*
X83914285Y-185762619D02*
X84152381Y-184762619D01*
X84438095Y-184762619D02*
X85057142Y-184762619D01*
X85057142Y-184762619D02*
X84723809Y-185143571D01*
X84723809Y-185143571D02*
X84866666Y-185143571D01*
X84866666Y-185143571D02*
X84961904Y-185191190D01*
X84961904Y-185191190D02*
X85009523Y-185238809D01*
X85009523Y-185238809D02*
X85057142Y-185334047D01*
X85057142Y-185334047D02*
X85057142Y-185572142D01*
X85057142Y-185572142D02*
X85009523Y-185667380D01*
X85009523Y-185667380D02*
X84961904Y-185715000D01*
X84961904Y-185715000D02*
X84866666Y-185762619D01*
X84866666Y-185762619D02*
X84580952Y-185762619D01*
X84580952Y-185762619D02*
X84485714Y-185715000D01*
X84485714Y-185715000D02*
X84438095Y-185667380D01*
X85914285Y-185095952D02*
X85914285Y-185762619D01*
X85676190Y-184715000D02*
X85438095Y-185429285D01*
X85438095Y-185429285D02*
X86057142Y-185429285D01*
%TO.C,SW27*%
X99820476Y-143705000D02*
X99963333Y-143752619D01*
X99963333Y-143752619D02*
X100201428Y-143752619D01*
X100201428Y-143752619D02*
X100296666Y-143705000D01*
X100296666Y-143705000D02*
X100344285Y-143657380D01*
X100344285Y-143657380D02*
X100391904Y-143562142D01*
X100391904Y-143562142D02*
X100391904Y-143466904D01*
X100391904Y-143466904D02*
X100344285Y-143371666D01*
X100344285Y-143371666D02*
X100296666Y-143324047D01*
X100296666Y-143324047D02*
X100201428Y-143276428D01*
X100201428Y-143276428D02*
X100010952Y-143228809D01*
X100010952Y-143228809D02*
X99915714Y-143181190D01*
X99915714Y-143181190D02*
X99868095Y-143133571D01*
X99868095Y-143133571D02*
X99820476Y-143038333D01*
X99820476Y-143038333D02*
X99820476Y-142943095D01*
X99820476Y-142943095D02*
X99868095Y-142847857D01*
X99868095Y-142847857D02*
X99915714Y-142800238D01*
X99915714Y-142800238D02*
X100010952Y-142752619D01*
X100010952Y-142752619D02*
X100249047Y-142752619D01*
X100249047Y-142752619D02*
X100391904Y-142800238D01*
X100725238Y-142752619D02*
X100963333Y-143752619D01*
X100963333Y-143752619D02*
X101153809Y-143038333D01*
X101153809Y-143038333D02*
X101344285Y-143752619D01*
X101344285Y-143752619D02*
X101582381Y-142752619D01*
X101915714Y-142847857D02*
X101963333Y-142800238D01*
X101963333Y-142800238D02*
X102058571Y-142752619D01*
X102058571Y-142752619D02*
X102296666Y-142752619D01*
X102296666Y-142752619D02*
X102391904Y-142800238D01*
X102391904Y-142800238D02*
X102439523Y-142847857D01*
X102439523Y-142847857D02*
X102487142Y-142943095D01*
X102487142Y-142943095D02*
X102487142Y-143038333D01*
X102487142Y-143038333D02*
X102439523Y-143181190D01*
X102439523Y-143181190D02*
X101868095Y-143752619D01*
X101868095Y-143752619D02*
X102487142Y-143752619D01*
X102820476Y-142752619D02*
X103487142Y-142752619D01*
X103487142Y-142752619D02*
X103058571Y-143752619D01*
%TO.C,SW30*%
X84810476Y-172735000D02*
X84953333Y-172782619D01*
X84953333Y-172782619D02*
X85191428Y-172782619D01*
X85191428Y-172782619D02*
X85286666Y-172735000D01*
X85286666Y-172735000D02*
X85334285Y-172687380D01*
X85334285Y-172687380D02*
X85381904Y-172592142D01*
X85381904Y-172592142D02*
X85381904Y-172496904D01*
X85381904Y-172496904D02*
X85334285Y-172401666D01*
X85334285Y-172401666D02*
X85286666Y-172354047D01*
X85286666Y-172354047D02*
X85191428Y-172306428D01*
X85191428Y-172306428D02*
X85000952Y-172258809D01*
X85000952Y-172258809D02*
X84905714Y-172211190D01*
X84905714Y-172211190D02*
X84858095Y-172163571D01*
X84858095Y-172163571D02*
X84810476Y-172068333D01*
X84810476Y-172068333D02*
X84810476Y-171973095D01*
X84810476Y-171973095D02*
X84858095Y-171877857D01*
X84858095Y-171877857D02*
X84905714Y-171830238D01*
X84905714Y-171830238D02*
X85000952Y-171782619D01*
X85000952Y-171782619D02*
X85239047Y-171782619D01*
X85239047Y-171782619D02*
X85381904Y-171830238D01*
X85715238Y-171782619D02*
X85953333Y-172782619D01*
X85953333Y-172782619D02*
X86143809Y-172068333D01*
X86143809Y-172068333D02*
X86334285Y-172782619D01*
X86334285Y-172782619D02*
X86572381Y-171782619D01*
X86858095Y-171782619D02*
X87477142Y-171782619D01*
X87477142Y-171782619D02*
X87143809Y-172163571D01*
X87143809Y-172163571D02*
X87286666Y-172163571D01*
X87286666Y-172163571D02*
X87381904Y-172211190D01*
X87381904Y-172211190D02*
X87429523Y-172258809D01*
X87429523Y-172258809D02*
X87477142Y-172354047D01*
X87477142Y-172354047D02*
X87477142Y-172592142D01*
X87477142Y-172592142D02*
X87429523Y-172687380D01*
X87429523Y-172687380D02*
X87381904Y-172735000D01*
X87381904Y-172735000D02*
X87286666Y-172782619D01*
X87286666Y-172782619D02*
X87000952Y-172782619D01*
X87000952Y-172782619D02*
X86905714Y-172735000D01*
X86905714Y-172735000D02*
X86858095Y-172687380D01*
X88096190Y-171782619D02*
X88191428Y-171782619D01*
X88191428Y-171782619D02*
X88286666Y-171830238D01*
X88286666Y-171830238D02*
X88334285Y-171877857D01*
X88334285Y-171877857D02*
X88381904Y-171973095D01*
X88381904Y-171973095D02*
X88429523Y-172163571D01*
X88429523Y-172163571D02*
X88429523Y-172401666D01*
X88429523Y-172401666D02*
X88381904Y-172592142D01*
X88381904Y-172592142D02*
X88334285Y-172687380D01*
X88334285Y-172687380D02*
X88286666Y-172735000D01*
X88286666Y-172735000D02*
X88191428Y-172782619D01*
X88191428Y-172782619D02*
X88096190Y-172782619D01*
X88096190Y-172782619D02*
X88000952Y-172735000D01*
X88000952Y-172735000D02*
X87953333Y-172687380D01*
X87953333Y-172687380D02*
X87905714Y-172592142D01*
X87905714Y-172592142D02*
X87858095Y-172401666D01*
X87858095Y-172401666D02*
X87858095Y-172163571D01*
X87858095Y-172163571D02*
X87905714Y-171973095D01*
X87905714Y-171973095D02*
X87953333Y-171877857D01*
X87953333Y-171877857D02*
X88000952Y-171830238D01*
X88000952Y-171830238D02*
X88096190Y-171782619D01*
%TO.C,SW13*%
X112690476Y-109415000D02*
X112833333Y-109462619D01*
X112833333Y-109462619D02*
X113071428Y-109462619D01*
X113071428Y-109462619D02*
X113166666Y-109415000D01*
X113166666Y-109415000D02*
X113214285Y-109367380D01*
X113214285Y-109367380D02*
X113261904Y-109272142D01*
X113261904Y-109272142D02*
X113261904Y-109176904D01*
X113261904Y-109176904D02*
X113214285Y-109081666D01*
X113214285Y-109081666D02*
X113166666Y-109034047D01*
X113166666Y-109034047D02*
X113071428Y-108986428D01*
X113071428Y-108986428D02*
X112880952Y-108938809D01*
X112880952Y-108938809D02*
X112785714Y-108891190D01*
X112785714Y-108891190D02*
X112738095Y-108843571D01*
X112738095Y-108843571D02*
X112690476Y-108748333D01*
X112690476Y-108748333D02*
X112690476Y-108653095D01*
X112690476Y-108653095D02*
X112738095Y-108557857D01*
X112738095Y-108557857D02*
X112785714Y-108510238D01*
X112785714Y-108510238D02*
X112880952Y-108462619D01*
X112880952Y-108462619D02*
X113119047Y-108462619D01*
X113119047Y-108462619D02*
X113261904Y-108510238D01*
X113595238Y-108462619D02*
X113833333Y-109462619D01*
X113833333Y-109462619D02*
X114023809Y-108748333D01*
X114023809Y-108748333D02*
X114214285Y-109462619D01*
X114214285Y-109462619D02*
X114452381Y-108462619D01*
X115357142Y-109462619D02*
X114785714Y-109462619D01*
X115071428Y-109462619D02*
X115071428Y-108462619D01*
X115071428Y-108462619D02*
X114976190Y-108605476D01*
X114976190Y-108605476D02*
X114880952Y-108700714D01*
X114880952Y-108700714D02*
X114785714Y-108748333D01*
X115690476Y-108462619D02*
X116309523Y-108462619D01*
X116309523Y-108462619D02*
X115976190Y-108843571D01*
X115976190Y-108843571D02*
X116119047Y-108843571D01*
X116119047Y-108843571D02*
X116214285Y-108891190D01*
X116214285Y-108891190D02*
X116261904Y-108938809D01*
X116261904Y-108938809D02*
X116309523Y-109034047D01*
X116309523Y-109034047D02*
X116309523Y-109272142D01*
X116309523Y-109272142D02*
X116261904Y-109367380D01*
X116261904Y-109367380D02*
X116214285Y-109415000D01*
X116214285Y-109415000D02*
X116119047Y-109462619D01*
X116119047Y-109462619D02*
X115833333Y-109462619D01*
X115833333Y-109462619D02*
X115738095Y-109415000D01*
X115738095Y-109415000D02*
X115690476Y-109367380D01*
%TO.C,SW46*%
X97510476Y-210005000D02*
X97653333Y-210052619D01*
X97653333Y-210052619D02*
X97891428Y-210052619D01*
X97891428Y-210052619D02*
X97986666Y-210005000D01*
X97986666Y-210005000D02*
X98034285Y-209957380D01*
X98034285Y-209957380D02*
X98081904Y-209862142D01*
X98081904Y-209862142D02*
X98081904Y-209766904D01*
X98081904Y-209766904D02*
X98034285Y-209671666D01*
X98034285Y-209671666D02*
X97986666Y-209624047D01*
X97986666Y-209624047D02*
X97891428Y-209576428D01*
X97891428Y-209576428D02*
X97700952Y-209528809D01*
X97700952Y-209528809D02*
X97605714Y-209481190D01*
X97605714Y-209481190D02*
X97558095Y-209433571D01*
X97558095Y-209433571D02*
X97510476Y-209338333D01*
X97510476Y-209338333D02*
X97510476Y-209243095D01*
X97510476Y-209243095D02*
X97558095Y-209147857D01*
X97558095Y-209147857D02*
X97605714Y-209100238D01*
X97605714Y-209100238D02*
X97700952Y-209052619D01*
X97700952Y-209052619D02*
X97939047Y-209052619D01*
X97939047Y-209052619D02*
X98081904Y-209100238D01*
X98415238Y-209052619D02*
X98653333Y-210052619D01*
X98653333Y-210052619D02*
X98843809Y-209338333D01*
X98843809Y-209338333D02*
X99034285Y-210052619D01*
X99034285Y-210052619D02*
X99272381Y-209052619D01*
X100081904Y-209385952D02*
X100081904Y-210052619D01*
X99843809Y-209005000D02*
X99605714Y-209719285D01*
X99605714Y-209719285D02*
X100224761Y-209719285D01*
X101034285Y-209052619D02*
X100843809Y-209052619D01*
X100843809Y-209052619D02*
X100748571Y-209100238D01*
X100748571Y-209100238D02*
X100700952Y-209147857D01*
X100700952Y-209147857D02*
X100605714Y-209290714D01*
X100605714Y-209290714D02*
X100558095Y-209481190D01*
X100558095Y-209481190D02*
X100558095Y-209862142D01*
X100558095Y-209862142D02*
X100605714Y-209957380D01*
X100605714Y-209957380D02*
X100653333Y-210005000D01*
X100653333Y-210005000D02*
X100748571Y-210052619D01*
X100748571Y-210052619D02*
X100939047Y-210052619D01*
X100939047Y-210052619D02*
X101034285Y-210005000D01*
X101034285Y-210005000D02*
X101081904Y-209957380D01*
X101081904Y-209957380D02*
X101129523Y-209862142D01*
X101129523Y-209862142D02*
X101129523Y-209624047D01*
X101129523Y-209624047D02*
X101081904Y-209528809D01*
X101081904Y-209528809D02*
X101034285Y-209481190D01*
X101034285Y-209481190D02*
X100939047Y-209433571D01*
X100939047Y-209433571D02*
X100748571Y-209433571D01*
X100748571Y-209433571D02*
X100653333Y-209481190D01*
X100653333Y-209481190D02*
X100605714Y-209528809D01*
X100605714Y-209528809D02*
X100558095Y-209624047D01*
%TO.C,SW15*%
X88620476Y-122215000D02*
X88763333Y-122262619D01*
X88763333Y-122262619D02*
X89001428Y-122262619D01*
X89001428Y-122262619D02*
X89096666Y-122215000D01*
X89096666Y-122215000D02*
X89144285Y-122167380D01*
X89144285Y-122167380D02*
X89191904Y-122072142D01*
X89191904Y-122072142D02*
X89191904Y-121976904D01*
X89191904Y-121976904D02*
X89144285Y-121881666D01*
X89144285Y-121881666D02*
X89096666Y-121834047D01*
X89096666Y-121834047D02*
X89001428Y-121786428D01*
X89001428Y-121786428D02*
X88810952Y-121738809D01*
X88810952Y-121738809D02*
X88715714Y-121691190D01*
X88715714Y-121691190D02*
X88668095Y-121643571D01*
X88668095Y-121643571D02*
X88620476Y-121548333D01*
X88620476Y-121548333D02*
X88620476Y-121453095D01*
X88620476Y-121453095D02*
X88668095Y-121357857D01*
X88668095Y-121357857D02*
X88715714Y-121310238D01*
X88715714Y-121310238D02*
X88810952Y-121262619D01*
X88810952Y-121262619D02*
X89049047Y-121262619D01*
X89049047Y-121262619D02*
X89191904Y-121310238D01*
X89525238Y-121262619D02*
X89763333Y-122262619D01*
X89763333Y-122262619D02*
X89953809Y-121548333D01*
X89953809Y-121548333D02*
X90144285Y-122262619D01*
X90144285Y-122262619D02*
X90382381Y-121262619D01*
X91287142Y-122262619D02*
X90715714Y-122262619D01*
X91001428Y-122262619D02*
X91001428Y-121262619D01*
X91001428Y-121262619D02*
X90906190Y-121405476D01*
X90906190Y-121405476D02*
X90810952Y-121500714D01*
X90810952Y-121500714D02*
X90715714Y-121548333D01*
X92191904Y-121262619D02*
X91715714Y-121262619D01*
X91715714Y-121262619D02*
X91668095Y-121738809D01*
X91668095Y-121738809D02*
X91715714Y-121691190D01*
X91715714Y-121691190D02*
X91810952Y-121643571D01*
X91810952Y-121643571D02*
X92049047Y-121643571D01*
X92049047Y-121643571D02*
X92144285Y-121691190D01*
X92144285Y-121691190D02*
X92191904Y-121738809D01*
X92191904Y-121738809D02*
X92239523Y-121834047D01*
X92239523Y-121834047D02*
X92239523Y-122072142D01*
X92239523Y-122072142D02*
X92191904Y-122167380D01*
X92191904Y-122167380D02*
X92144285Y-122215000D01*
X92144285Y-122215000D02*
X92049047Y-122262619D01*
X92049047Y-122262619D02*
X91810952Y-122262619D01*
X91810952Y-122262619D02*
X91715714Y-122215000D01*
X91715714Y-122215000D02*
X91668095Y-122167380D01*
%TO.C,SW44*%
X114960476Y-196195000D02*
X115103333Y-196242619D01*
X115103333Y-196242619D02*
X115341428Y-196242619D01*
X115341428Y-196242619D02*
X115436666Y-196195000D01*
X115436666Y-196195000D02*
X115484285Y-196147380D01*
X115484285Y-196147380D02*
X115531904Y-196052142D01*
X115531904Y-196052142D02*
X115531904Y-195956904D01*
X115531904Y-195956904D02*
X115484285Y-195861666D01*
X115484285Y-195861666D02*
X115436666Y-195814047D01*
X115436666Y-195814047D02*
X115341428Y-195766428D01*
X115341428Y-195766428D02*
X115150952Y-195718809D01*
X115150952Y-195718809D02*
X115055714Y-195671190D01*
X115055714Y-195671190D02*
X115008095Y-195623571D01*
X115008095Y-195623571D02*
X114960476Y-195528333D01*
X114960476Y-195528333D02*
X114960476Y-195433095D01*
X114960476Y-195433095D02*
X115008095Y-195337857D01*
X115008095Y-195337857D02*
X115055714Y-195290238D01*
X115055714Y-195290238D02*
X115150952Y-195242619D01*
X115150952Y-195242619D02*
X115389047Y-195242619D01*
X115389047Y-195242619D02*
X115531904Y-195290238D01*
X115865238Y-195242619D02*
X116103333Y-196242619D01*
X116103333Y-196242619D02*
X116293809Y-195528333D01*
X116293809Y-195528333D02*
X116484285Y-196242619D01*
X116484285Y-196242619D02*
X116722381Y-195242619D01*
X117531904Y-195575952D02*
X117531904Y-196242619D01*
X117293809Y-195195000D02*
X117055714Y-195909285D01*
X117055714Y-195909285D02*
X117674761Y-195909285D01*
X118484285Y-195575952D02*
X118484285Y-196242619D01*
X118246190Y-195195000D02*
X118008095Y-195909285D01*
X118008095Y-195909285D02*
X118627142Y-195909285D01*
%TO.C,SW24*%
X93050476Y-143675000D02*
X93193333Y-143722619D01*
X93193333Y-143722619D02*
X93431428Y-143722619D01*
X93431428Y-143722619D02*
X93526666Y-143675000D01*
X93526666Y-143675000D02*
X93574285Y-143627380D01*
X93574285Y-143627380D02*
X93621904Y-143532142D01*
X93621904Y-143532142D02*
X93621904Y-143436904D01*
X93621904Y-143436904D02*
X93574285Y-143341666D01*
X93574285Y-143341666D02*
X93526666Y-143294047D01*
X93526666Y-143294047D02*
X93431428Y-143246428D01*
X93431428Y-143246428D02*
X93240952Y-143198809D01*
X93240952Y-143198809D02*
X93145714Y-143151190D01*
X93145714Y-143151190D02*
X93098095Y-143103571D01*
X93098095Y-143103571D02*
X93050476Y-143008333D01*
X93050476Y-143008333D02*
X93050476Y-142913095D01*
X93050476Y-142913095D02*
X93098095Y-142817857D01*
X93098095Y-142817857D02*
X93145714Y-142770238D01*
X93145714Y-142770238D02*
X93240952Y-142722619D01*
X93240952Y-142722619D02*
X93479047Y-142722619D01*
X93479047Y-142722619D02*
X93621904Y-142770238D01*
X93955238Y-142722619D02*
X94193333Y-143722619D01*
X94193333Y-143722619D02*
X94383809Y-143008333D01*
X94383809Y-143008333D02*
X94574285Y-143722619D01*
X94574285Y-143722619D02*
X94812381Y-142722619D01*
X95145714Y-142817857D02*
X95193333Y-142770238D01*
X95193333Y-142770238D02*
X95288571Y-142722619D01*
X95288571Y-142722619D02*
X95526666Y-142722619D01*
X95526666Y-142722619D02*
X95621904Y-142770238D01*
X95621904Y-142770238D02*
X95669523Y-142817857D01*
X95669523Y-142817857D02*
X95717142Y-142913095D01*
X95717142Y-142913095D02*
X95717142Y-143008333D01*
X95717142Y-143008333D02*
X95669523Y-143151190D01*
X95669523Y-143151190D02*
X95098095Y-143722619D01*
X95098095Y-143722619D02*
X95717142Y-143722619D01*
X96574285Y-143055952D02*
X96574285Y-143722619D01*
X96336190Y-142675000D02*
X96098095Y-143389285D01*
X96098095Y-143389285D02*
X96717142Y-143389285D01*
%TO.C,SW35*%
X92950476Y-179165000D02*
X93093333Y-179212619D01*
X93093333Y-179212619D02*
X93331428Y-179212619D01*
X93331428Y-179212619D02*
X93426666Y-179165000D01*
X93426666Y-179165000D02*
X93474285Y-179117380D01*
X93474285Y-179117380D02*
X93521904Y-179022142D01*
X93521904Y-179022142D02*
X93521904Y-178926904D01*
X93521904Y-178926904D02*
X93474285Y-178831666D01*
X93474285Y-178831666D02*
X93426666Y-178784047D01*
X93426666Y-178784047D02*
X93331428Y-178736428D01*
X93331428Y-178736428D02*
X93140952Y-178688809D01*
X93140952Y-178688809D02*
X93045714Y-178641190D01*
X93045714Y-178641190D02*
X92998095Y-178593571D01*
X92998095Y-178593571D02*
X92950476Y-178498333D01*
X92950476Y-178498333D02*
X92950476Y-178403095D01*
X92950476Y-178403095D02*
X92998095Y-178307857D01*
X92998095Y-178307857D02*
X93045714Y-178260238D01*
X93045714Y-178260238D02*
X93140952Y-178212619D01*
X93140952Y-178212619D02*
X93379047Y-178212619D01*
X93379047Y-178212619D02*
X93521904Y-178260238D01*
X93855238Y-178212619D02*
X94093333Y-179212619D01*
X94093333Y-179212619D02*
X94283809Y-178498333D01*
X94283809Y-178498333D02*
X94474285Y-179212619D01*
X94474285Y-179212619D02*
X94712381Y-178212619D01*
X94998095Y-178212619D02*
X95617142Y-178212619D01*
X95617142Y-178212619D02*
X95283809Y-178593571D01*
X95283809Y-178593571D02*
X95426666Y-178593571D01*
X95426666Y-178593571D02*
X95521904Y-178641190D01*
X95521904Y-178641190D02*
X95569523Y-178688809D01*
X95569523Y-178688809D02*
X95617142Y-178784047D01*
X95617142Y-178784047D02*
X95617142Y-179022142D01*
X95617142Y-179022142D02*
X95569523Y-179117380D01*
X95569523Y-179117380D02*
X95521904Y-179165000D01*
X95521904Y-179165000D02*
X95426666Y-179212619D01*
X95426666Y-179212619D02*
X95140952Y-179212619D01*
X95140952Y-179212619D02*
X95045714Y-179165000D01*
X95045714Y-179165000D02*
X94998095Y-179117380D01*
X96521904Y-178212619D02*
X96045714Y-178212619D01*
X96045714Y-178212619D02*
X95998095Y-178688809D01*
X95998095Y-178688809D02*
X96045714Y-178641190D01*
X96045714Y-178641190D02*
X96140952Y-178593571D01*
X96140952Y-178593571D02*
X96379047Y-178593571D01*
X96379047Y-178593571D02*
X96474285Y-178641190D01*
X96474285Y-178641190D02*
X96521904Y-178688809D01*
X96521904Y-178688809D02*
X96569523Y-178784047D01*
X96569523Y-178784047D02*
X96569523Y-179022142D01*
X96569523Y-179022142D02*
X96521904Y-179117380D01*
X96521904Y-179117380D02*
X96474285Y-179165000D01*
X96474285Y-179165000D02*
X96379047Y-179212619D01*
X96379047Y-179212619D02*
X96140952Y-179212619D01*
X96140952Y-179212619D02*
X96045714Y-179165000D01*
X96045714Y-179165000D02*
X95998095Y-179117380D01*
%TO.C,SW33*%
X114995476Y-172745000D02*
X115138333Y-172792619D01*
X115138333Y-172792619D02*
X115376428Y-172792619D01*
X115376428Y-172792619D02*
X115471666Y-172745000D01*
X115471666Y-172745000D02*
X115519285Y-172697380D01*
X115519285Y-172697380D02*
X115566904Y-172602142D01*
X115566904Y-172602142D02*
X115566904Y-172506904D01*
X115566904Y-172506904D02*
X115519285Y-172411666D01*
X115519285Y-172411666D02*
X115471666Y-172364047D01*
X115471666Y-172364047D02*
X115376428Y-172316428D01*
X115376428Y-172316428D02*
X115185952Y-172268809D01*
X115185952Y-172268809D02*
X115090714Y-172221190D01*
X115090714Y-172221190D02*
X115043095Y-172173571D01*
X115043095Y-172173571D02*
X114995476Y-172078333D01*
X114995476Y-172078333D02*
X114995476Y-171983095D01*
X114995476Y-171983095D02*
X115043095Y-171887857D01*
X115043095Y-171887857D02*
X115090714Y-171840238D01*
X115090714Y-171840238D02*
X115185952Y-171792619D01*
X115185952Y-171792619D02*
X115424047Y-171792619D01*
X115424047Y-171792619D02*
X115566904Y-171840238D01*
X115900238Y-171792619D02*
X116138333Y-172792619D01*
X116138333Y-172792619D02*
X116328809Y-172078333D01*
X116328809Y-172078333D02*
X116519285Y-172792619D01*
X116519285Y-172792619D02*
X116757381Y-171792619D01*
X117043095Y-171792619D02*
X117662142Y-171792619D01*
X117662142Y-171792619D02*
X117328809Y-172173571D01*
X117328809Y-172173571D02*
X117471666Y-172173571D01*
X117471666Y-172173571D02*
X117566904Y-172221190D01*
X117566904Y-172221190D02*
X117614523Y-172268809D01*
X117614523Y-172268809D02*
X117662142Y-172364047D01*
X117662142Y-172364047D02*
X117662142Y-172602142D01*
X117662142Y-172602142D02*
X117614523Y-172697380D01*
X117614523Y-172697380D02*
X117566904Y-172745000D01*
X117566904Y-172745000D02*
X117471666Y-172792619D01*
X117471666Y-172792619D02*
X117185952Y-172792619D01*
X117185952Y-172792619D02*
X117090714Y-172745000D01*
X117090714Y-172745000D02*
X117043095Y-172697380D01*
X117995476Y-171792619D02*
X118614523Y-171792619D01*
X118614523Y-171792619D02*
X118281190Y-172173571D01*
X118281190Y-172173571D02*
X118424047Y-172173571D01*
X118424047Y-172173571D02*
X118519285Y-172221190D01*
X118519285Y-172221190D02*
X118566904Y-172268809D01*
X118566904Y-172268809D02*
X118614523Y-172364047D01*
X118614523Y-172364047D02*
X118614523Y-172602142D01*
X118614523Y-172602142D02*
X118566904Y-172697380D01*
X118566904Y-172697380D02*
X118519285Y-172745000D01*
X118519285Y-172745000D02*
X118424047Y-172792619D01*
X118424047Y-172792619D02*
X118138333Y-172792619D01*
X118138333Y-172792619D02*
X118043095Y-172745000D01*
X118043095Y-172745000D02*
X117995476Y-172697380D01*
%TO.C,SW21*%
X118855476Y-133625000D02*
X118998333Y-133672619D01*
X118998333Y-133672619D02*
X119236428Y-133672619D01*
X119236428Y-133672619D02*
X119331666Y-133625000D01*
X119331666Y-133625000D02*
X119379285Y-133577380D01*
X119379285Y-133577380D02*
X119426904Y-133482142D01*
X119426904Y-133482142D02*
X119426904Y-133386904D01*
X119426904Y-133386904D02*
X119379285Y-133291666D01*
X119379285Y-133291666D02*
X119331666Y-133244047D01*
X119331666Y-133244047D02*
X119236428Y-133196428D01*
X119236428Y-133196428D02*
X119045952Y-133148809D01*
X119045952Y-133148809D02*
X118950714Y-133101190D01*
X118950714Y-133101190D02*
X118903095Y-133053571D01*
X118903095Y-133053571D02*
X118855476Y-132958333D01*
X118855476Y-132958333D02*
X118855476Y-132863095D01*
X118855476Y-132863095D02*
X118903095Y-132767857D01*
X118903095Y-132767857D02*
X118950714Y-132720238D01*
X118950714Y-132720238D02*
X119045952Y-132672619D01*
X119045952Y-132672619D02*
X119284047Y-132672619D01*
X119284047Y-132672619D02*
X119426904Y-132720238D01*
X119760238Y-132672619D02*
X119998333Y-133672619D01*
X119998333Y-133672619D02*
X120188809Y-132958333D01*
X120188809Y-132958333D02*
X120379285Y-133672619D01*
X120379285Y-133672619D02*
X120617381Y-132672619D01*
X120950714Y-132767857D02*
X120998333Y-132720238D01*
X120998333Y-132720238D02*
X121093571Y-132672619D01*
X121093571Y-132672619D02*
X121331666Y-132672619D01*
X121331666Y-132672619D02*
X121426904Y-132720238D01*
X121426904Y-132720238D02*
X121474523Y-132767857D01*
X121474523Y-132767857D02*
X121522142Y-132863095D01*
X121522142Y-132863095D02*
X121522142Y-132958333D01*
X121522142Y-132958333D02*
X121474523Y-133101190D01*
X121474523Y-133101190D02*
X120903095Y-133672619D01*
X120903095Y-133672619D02*
X121522142Y-133672619D01*
X122474523Y-133672619D02*
X121903095Y-133672619D01*
X122188809Y-133672619D02*
X122188809Y-132672619D01*
X122188809Y-132672619D02*
X122093571Y-132815476D01*
X122093571Y-132815476D02*
X121998333Y-132910714D01*
X121998333Y-132910714D02*
X121903095Y-132958333D01*
%TO.C,SW38*%
X81900476Y-192815000D02*
X82043333Y-192862619D01*
X82043333Y-192862619D02*
X82281428Y-192862619D01*
X82281428Y-192862619D02*
X82376666Y-192815000D01*
X82376666Y-192815000D02*
X82424285Y-192767380D01*
X82424285Y-192767380D02*
X82471904Y-192672142D01*
X82471904Y-192672142D02*
X82471904Y-192576904D01*
X82471904Y-192576904D02*
X82424285Y-192481666D01*
X82424285Y-192481666D02*
X82376666Y-192434047D01*
X82376666Y-192434047D02*
X82281428Y-192386428D01*
X82281428Y-192386428D02*
X82090952Y-192338809D01*
X82090952Y-192338809D02*
X81995714Y-192291190D01*
X81995714Y-192291190D02*
X81948095Y-192243571D01*
X81948095Y-192243571D02*
X81900476Y-192148333D01*
X81900476Y-192148333D02*
X81900476Y-192053095D01*
X81900476Y-192053095D02*
X81948095Y-191957857D01*
X81948095Y-191957857D02*
X81995714Y-191910238D01*
X81995714Y-191910238D02*
X82090952Y-191862619D01*
X82090952Y-191862619D02*
X82329047Y-191862619D01*
X82329047Y-191862619D02*
X82471904Y-191910238D01*
X82805238Y-191862619D02*
X83043333Y-192862619D01*
X83043333Y-192862619D02*
X83233809Y-192148333D01*
X83233809Y-192148333D02*
X83424285Y-192862619D01*
X83424285Y-192862619D02*
X83662381Y-191862619D01*
X83948095Y-191862619D02*
X84567142Y-191862619D01*
X84567142Y-191862619D02*
X84233809Y-192243571D01*
X84233809Y-192243571D02*
X84376666Y-192243571D01*
X84376666Y-192243571D02*
X84471904Y-192291190D01*
X84471904Y-192291190D02*
X84519523Y-192338809D01*
X84519523Y-192338809D02*
X84567142Y-192434047D01*
X84567142Y-192434047D02*
X84567142Y-192672142D01*
X84567142Y-192672142D02*
X84519523Y-192767380D01*
X84519523Y-192767380D02*
X84471904Y-192815000D01*
X84471904Y-192815000D02*
X84376666Y-192862619D01*
X84376666Y-192862619D02*
X84090952Y-192862619D01*
X84090952Y-192862619D02*
X83995714Y-192815000D01*
X83995714Y-192815000D02*
X83948095Y-192767380D01*
X85138571Y-192291190D02*
X85043333Y-192243571D01*
X85043333Y-192243571D02*
X84995714Y-192195952D01*
X84995714Y-192195952D02*
X84948095Y-192100714D01*
X84948095Y-192100714D02*
X84948095Y-192053095D01*
X84948095Y-192053095D02*
X84995714Y-191957857D01*
X84995714Y-191957857D02*
X85043333Y-191910238D01*
X85043333Y-191910238D02*
X85138571Y-191862619D01*
X85138571Y-191862619D02*
X85329047Y-191862619D01*
X85329047Y-191862619D02*
X85424285Y-191910238D01*
X85424285Y-191910238D02*
X85471904Y-191957857D01*
X85471904Y-191957857D02*
X85519523Y-192053095D01*
X85519523Y-192053095D02*
X85519523Y-192100714D01*
X85519523Y-192100714D02*
X85471904Y-192195952D01*
X85471904Y-192195952D02*
X85424285Y-192243571D01*
X85424285Y-192243571D02*
X85329047Y-192291190D01*
X85329047Y-192291190D02*
X85138571Y-192291190D01*
X85138571Y-192291190D02*
X85043333Y-192338809D01*
X85043333Y-192338809D02*
X84995714Y-192386428D01*
X84995714Y-192386428D02*
X84948095Y-192481666D01*
X84948095Y-192481666D02*
X84948095Y-192672142D01*
X84948095Y-192672142D02*
X84995714Y-192767380D01*
X84995714Y-192767380D02*
X85043333Y-192815000D01*
X85043333Y-192815000D02*
X85138571Y-192862619D01*
X85138571Y-192862619D02*
X85329047Y-192862619D01*
X85329047Y-192862619D02*
X85424285Y-192815000D01*
X85424285Y-192815000D02*
X85471904Y-192767380D01*
X85471904Y-192767380D02*
X85519523Y-192672142D01*
X85519523Y-192672142D02*
X85519523Y-192481666D01*
X85519523Y-192481666D02*
X85471904Y-192386428D01*
X85471904Y-192386428D02*
X85424285Y-192338809D01*
X85424285Y-192338809D02*
X85329047Y-192291190D01*
%TO.C,SW2*%
X91191667Y-57565000D02*
X91334524Y-57612619D01*
X91334524Y-57612619D02*
X91572619Y-57612619D01*
X91572619Y-57612619D02*
X91667857Y-57565000D01*
X91667857Y-57565000D02*
X91715476Y-57517380D01*
X91715476Y-57517380D02*
X91763095Y-57422142D01*
X91763095Y-57422142D02*
X91763095Y-57326904D01*
X91763095Y-57326904D02*
X91715476Y-57231666D01*
X91715476Y-57231666D02*
X91667857Y-57184047D01*
X91667857Y-57184047D02*
X91572619Y-57136428D01*
X91572619Y-57136428D02*
X91382143Y-57088809D01*
X91382143Y-57088809D02*
X91286905Y-57041190D01*
X91286905Y-57041190D02*
X91239286Y-56993571D01*
X91239286Y-56993571D02*
X91191667Y-56898333D01*
X91191667Y-56898333D02*
X91191667Y-56803095D01*
X91191667Y-56803095D02*
X91239286Y-56707857D01*
X91239286Y-56707857D02*
X91286905Y-56660238D01*
X91286905Y-56660238D02*
X91382143Y-56612619D01*
X91382143Y-56612619D02*
X91620238Y-56612619D01*
X91620238Y-56612619D02*
X91763095Y-56660238D01*
X92096429Y-56612619D02*
X92334524Y-57612619D01*
X92334524Y-57612619D02*
X92525000Y-56898333D01*
X92525000Y-56898333D02*
X92715476Y-57612619D01*
X92715476Y-57612619D02*
X92953572Y-56612619D01*
X93286905Y-56707857D02*
X93334524Y-56660238D01*
X93334524Y-56660238D02*
X93429762Y-56612619D01*
X93429762Y-56612619D02*
X93667857Y-56612619D01*
X93667857Y-56612619D02*
X93763095Y-56660238D01*
X93763095Y-56660238D02*
X93810714Y-56707857D01*
X93810714Y-56707857D02*
X93858333Y-56803095D01*
X93858333Y-56803095D02*
X93858333Y-56898333D01*
X93858333Y-56898333D02*
X93810714Y-57041190D01*
X93810714Y-57041190D02*
X93239286Y-57612619D01*
X93239286Y-57612619D02*
X93858333Y-57612619D01*
%TO.C,SW45*%
X83555000Y-208599523D02*
X83602619Y-208456666D01*
X83602619Y-208456666D02*
X83602619Y-208218571D01*
X83602619Y-208218571D02*
X83555000Y-208123333D01*
X83555000Y-208123333D02*
X83507380Y-208075714D01*
X83507380Y-208075714D02*
X83412142Y-208028095D01*
X83412142Y-208028095D02*
X83316904Y-208028095D01*
X83316904Y-208028095D02*
X83221666Y-208075714D01*
X83221666Y-208075714D02*
X83174047Y-208123333D01*
X83174047Y-208123333D02*
X83126428Y-208218571D01*
X83126428Y-208218571D02*
X83078809Y-208409047D01*
X83078809Y-208409047D02*
X83031190Y-208504285D01*
X83031190Y-208504285D02*
X82983571Y-208551904D01*
X82983571Y-208551904D02*
X82888333Y-208599523D01*
X82888333Y-208599523D02*
X82793095Y-208599523D01*
X82793095Y-208599523D02*
X82697857Y-208551904D01*
X82697857Y-208551904D02*
X82650238Y-208504285D01*
X82650238Y-208504285D02*
X82602619Y-208409047D01*
X82602619Y-208409047D02*
X82602619Y-208170952D01*
X82602619Y-208170952D02*
X82650238Y-208028095D01*
X82602619Y-207694761D02*
X83602619Y-207456666D01*
X83602619Y-207456666D02*
X82888333Y-207266190D01*
X82888333Y-207266190D02*
X83602619Y-207075714D01*
X83602619Y-207075714D02*
X82602619Y-206837619D01*
X82935952Y-206028095D02*
X83602619Y-206028095D01*
X82555000Y-206266190D02*
X83269285Y-206504285D01*
X83269285Y-206504285D02*
X83269285Y-205885238D01*
X82602619Y-205028095D02*
X82602619Y-205504285D01*
X82602619Y-205504285D02*
X83078809Y-205551904D01*
X83078809Y-205551904D02*
X83031190Y-205504285D01*
X83031190Y-205504285D02*
X82983571Y-205409047D01*
X82983571Y-205409047D02*
X82983571Y-205170952D01*
X82983571Y-205170952D02*
X83031190Y-205075714D01*
X83031190Y-205075714D02*
X83078809Y-205028095D01*
X83078809Y-205028095D02*
X83174047Y-204980476D01*
X83174047Y-204980476D02*
X83412142Y-204980476D01*
X83412142Y-204980476D02*
X83507380Y-205028095D01*
X83507380Y-205028095D02*
X83555000Y-205075714D01*
X83555000Y-205075714D02*
X83602619Y-205170952D01*
X83602619Y-205170952D02*
X83602619Y-205409047D01*
X83602619Y-205409047D02*
X83555000Y-205504285D01*
X83555000Y-205504285D02*
X83507380Y-205551904D01*
%TO.C,SW48*%
X81890476Y-215035000D02*
X82033333Y-215082619D01*
X82033333Y-215082619D02*
X82271428Y-215082619D01*
X82271428Y-215082619D02*
X82366666Y-215035000D01*
X82366666Y-215035000D02*
X82414285Y-214987380D01*
X82414285Y-214987380D02*
X82461904Y-214892142D01*
X82461904Y-214892142D02*
X82461904Y-214796904D01*
X82461904Y-214796904D02*
X82414285Y-214701666D01*
X82414285Y-214701666D02*
X82366666Y-214654047D01*
X82366666Y-214654047D02*
X82271428Y-214606428D01*
X82271428Y-214606428D02*
X82080952Y-214558809D01*
X82080952Y-214558809D02*
X81985714Y-214511190D01*
X81985714Y-214511190D02*
X81938095Y-214463571D01*
X81938095Y-214463571D02*
X81890476Y-214368333D01*
X81890476Y-214368333D02*
X81890476Y-214273095D01*
X81890476Y-214273095D02*
X81938095Y-214177857D01*
X81938095Y-214177857D02*
X81985714Y-214130238D01*
X81985714Y-214130238D02*
X82080952Y-214082619D01*
X82080952Y-214082619D02*
X82319047Y-214082619D01*
X82319047Y-214082619D02*
X82461904Y-214130238D01*
X82795238Y-214082619D02*
X83033333Y-215082619D01*
X83033333Y-215082619D02*
X83223809Y-214368333D01*
X83223809Y-214368333D02*
X83414285Y-215082619D01*
X83414285Y-215082619D02*
X83652381Y-214082619D01*
X84461904Y-214415952D02*
X84461904Y-215082619D01*
X84223809Y-214035000D02*
X83985714Y-214749285D01*
X83985714Y-214749285D02*
X84604761Y-214749285D01*
X85128571Y-214511190D02*
X85033333Y-214463571D01*
X85033333Y-214463571D02*
X84985714Y-214415952D01*
X84985714Y-214415952D02*
X84938095Y-214320714D01*
X84938095Y-214320714D02*
X84938095Y-214273095D01*
X84938095Y-214273095D02*
X84985714Y-214177857D01*
X84985714Y-214177857D02*
X85033333Y-214130238D01*
X85033333Y-214130238D02*
X85128571Y-214082619D01*
X85128571Y-214082619D02*
X85319047Y-214082619D01*
X85319047Y-214082619D02*
X85414285Y-214130238D01*
X85414285Y-214130238D02*
X85461904Y-214177857D01*
X85461904Y-214177857D02*
X85509523Y-214273095D01*
X85509523Y-214273095D02*
X85509523Y-214320714D01*
X85509523Y-214320714D02*
X85461904Y-214415952D01*
X85461904Y-214415952D02*
X85414285Y-214463571D01*
X85414285Y-214463571D02*
X85319047Y-214511190D01*
X85319047Y-214511190D02*
X85128571Y-214511190D01*
X85128571Y-214511190D02*
X85033333Y-214558809D01*
X85033333Y-214558809D02*
X84985714Y-214606428D01*
X84985714Y-214606428D02*
X84938095Y-214701666D01*
X84938095Y-214701666D02*
X84938095Y-214892142D01*
X84938095Y-214892142D02*
X84985714Y-214987380D01*
X84985714Y-214987380D02*
X85033333Y-215035000D01*
X85033333Y-215035000D02*
X85128571Y-215082619D01*
X85128571Y-215082619D02*
X85319047Y-215082619D01*
X85319047Y-215082619D02*
X85414285Y-215035000D01*
X85414285Y-215035000D02*
X85461904Y-214987380D01*
X85461904Y-214987380D02*
X85509523Y-214892142D01*
X85509523Y-214892142D02*
X85509523Y-214701666D01*
X85509523Y-214701666D02*
X85461904Y-214606428D01*
X85461904Y-214606428D02*
X85414285Y-214558809D01*
X85414285Y-214558809D02*
X85319047Y-214511190D01*
%TO.C,SW19*%
X80940476Y-133635000D02*
X81083333Y-133682619D01*
X81083333Y-133682619D02*
X81321428Y-133682619D01*
X81321428Y-133682619D02*
X81416666Y-133635000D01*
X81416666Y-133635000D02*
X81464285Y-133587380D01*
X81464285Y-133587380D02*
X81511904Y-133492142D01*
X81511904Y-133492142D02*
X81511904Y-133396904D01*
X81511904Y-133396904D02*
X81464285Y-133301666D01*
X81464285Y-133301666D02*
X81416666Y-133254047D01*
X81416666Y-133254047D02*
X81321428Y-133206428D01*
X81321428Y-133206428D02*
X81130952Y-133158809D01*
X81130952Y-133158809D02*
X81035714Y-133111190D01*
X81035714Y-133111190D02*
X80988095Y-133063571D01*
X80988095Y-133063571D02*
X80940476Y-132968333D01*
X80940476Y-132968333D02*
X80940476Y-132873095D01*
X80940476Y-132873095D02*
X80988095Y-132777857D01*
X80988095Y-132777857D02*
X81035714Y-132730238D01*
X81035714Y-132730238D02*
X81130952Y-132682619D01*
X81130952Y-132682619D02*
X81369047Y-132682619D01*
X81369047Y-132682619D02*
X81511904Y-132730238D01*
X81845238Y-132682619D02*
X82083333Y-133682619D01*
X82083333Y-133682619D02*
X82273809Y-132968333D01*
X82273809Y-132968333D02*
X82464285Y-133682619D01*
X82464285Y-133682619D02*
X82702381Y-132682619D01*
X83607142Y-133682619D02*
X83035714Y-133682619D01*
X83321428Y-133682619D02*
X83321428Y-132682619D01*
X83321428Y-132682619D02*
X83226190Y-132825476D01*
X83226190Y-132825476D02*
X83130952Y-132920714D01*
X83130952Y-132920714D02*
X83035714Y-132968333D01*
X84083333Y-133682619D02*
X84273809Y-133682619D01*
X84273809Y-133682619D02*
X84369047Y-133635000D01*
X84369047Y-133635000D02*
X84416666Y-133587380D01*
X84416666Y-133587380D02*
X84511904Y-133444523D01*
X84511904Y-133444523D02*
X84559523Y-133254047D01*
X84559523Y-133254047D02*
X84559523Y-132873095D01*
X84559523Y-132873095D02*
X84511904Y-132777857D01*
X84511904Y-132777857D02*
X84464285Y-132730238D01*
X84464285Y-132730238D02*
X84369047Y-132682619D01*
X84369047Y-132682619D02*
X84178571Y-132682619D01*
X84178571Y-132682619D02*
X84083333Y-132730238D01*
X84083333Y-132730238D02*
X84035714Y-132777857D01*
X84035714Y-132777857D02*
X83988095Y-132873095D01*
X83988095Y-132873095D02*
X83988095Y-133111190D01*
X83988095Y-133111190D02*
X84035714Y-133206428D01*
X84035714Y-133206428D02*
X84083333Y-133254047D01*
X84083333Y-133254047D02*
X84178571Y-133301666D01*
X84178571Y-133301666D02*
X84369047Y-133301666D01*
X84369047Y-133301666D02*
X84464285Y-133254047D01*
X84464285Y-133254047D02*
X84511904Y-133206428D01*
X84511904Y-133206428D02*
X84559523Y-133111190D01*
%TO.C,SW5*%
X83425000Y-82863332D02*
X83472619Y-82720475D01*
X83472619Y-82720475D02*
X83472619Y-82482380D01*
X83472619Y-82482380D02*
X83425000Y-82387142D01*
X83425000Y-82387142D02*
X83377380Y-82339523D01*
X83377380Y-82339523D02*
X83282142Y-82291904D01*
X83282142Y-82291904D02*
X83186904Y-82291904D01*
X83186904Y-82291904D02*
X83091666Y-82339523D01*
X83091666Y-82339523D02*
X83044047Y-82387142D01*
X83044047Y-82387142D02*
X82996428Y-82482380D01*
X82996428Y-82482380D02*
X82948809Y-82672856D01*
X82948809Y-82672856D02*
X82901190Y-82768094D01*
X82901190Y-82768094D02*
X82853571Y-82815713D01*
X82853571Y-82815713D02*
X82758333Y-82863332D01*
X82758333Y-82863332D02*
X82663095Y-82863332D01*
X82663095Y-82863332D02*
X82567857Y-82815713D01*
X82567857Y-82815713D02*
X82520238Y-82768094D01*
X82520238Y-82768094D02*
X82472619Y-82672856D01*
X82472619Y-82672856D02*
X82472619Y-82434761D01*
X82472619Y-82434761D02*
X82520238Y-82291904D01*
X82472619Y-81958570D02*
X83472619Y-81720475D01*
X83472619Y-81720475D02*
X82758333Y-81529999D01*
X82758333Y-81529999D02*
X83472619Y-81339523D01*
X83472619Y-81339523D02*
X82472619Y-81101428D01*
X82472619Y-80244285D02*
X82472619Y-80720475D01*
X82472619Y-80720475D02*
X82948809Y-80768094D01*
X82948809Y-80768094D02*
X82901190Y-80720475D01*
X82901190Y-80720475D02*
X82853571Y-80625237D01*
X82853571Y-80625237D02*
X82853571Y-80387142D01*
X82853571Y-80387142D02*
X82901190Y-80291904D01*
X82901190Y-80291904D02*
X82948809Y-80244285D01*
X82948809Y-80244285D02*
X83044047Y-80196666D01*
X83044047Y-80196666D02*
X83282142Y-80196666D01*
X83282142Y-80196666D02*
X83377380Y-80244285D01*
X83377380Y-80244285D02*
X83425000Y-80291904D01*
X83425000Y-80291904D02*
X83472619Y-80387142D01*
X83472619Y-80387142D02*
X83472619Y-80625237D01*
X83472619Y-80625237D02*
X83425000Y-80720475D01*
X83425000Y-80720475D02*
X83377380Y-80768094D01*
%TO.C,SW12*%
X86940476Y-109665000D02*
X87083333Y-109712619D01*
X87083333Y-109712619D02*
X87321428Y-109712619D01*
X87321428Y-109712619D02*
X87416666Y-109665000D01*
X87416666Y-109665000D02*
X87464285Y-109617380D01*
X87464285Y-109617380D02*
X87511904Y-109522142D01*
X87511904Y-109522142D02*
X87511904Y-109426904D01*
X87511904Y-109426904D02*
X87464285Y-109331666D01*
X87464285Y-109331666D02*
X87416666Y-109284047D01*
X87416666Y-109284047D02*
X87321428Y-109236428D01*
X87321428Y-109236428D02*
X87130952Y-109188809D01*
X87130952Y-109188809D02*
X87035714Y-109141190D01*
X87035714Y-109141190D02*
X86988095Y-109093571D01*
X86988095Y-109093571D02*
X86940476Y-108998333D01*
X86940476Y-108998333D02*
X86940476Y-108903095D01*
X86940476Y-108903095D02*
X86988095Y-108807857D01*
X86988095Y-108807857D02*
X87035714Y-108760238D01*
X87035714Y-108760238D02*
X87130952Y-108712619D01*
X87130952Y-108712619D02*
X87369047Y-108712619D01*
X87369047Y-108712619D02*
X87511904Y-108760238D01*
X87845238Y-108712619D02*
X88083333Y-109712619D01*
X88083333Y-109712619D02*
X88273809Y-108998333D01*
X88273809Y-108998333D02*
X88464285Y-109712619D01*
X88464285Y-109712619D02*
X88702381Y-108712619D01*
X89607142Y-109712619D02*
X89035714Y-109712619D01*
X89321428Y-109712619D02*
X89321428Y-108712619D01*
X89321428Y-108712619D02*
X89226190Y-108855476D01*
X89226190Y-108855476D02*
X89130952Y-108950714D01*
X89130952Y-108950714D02*
X89035714Y-108998333D01*
X89988095Y-108807857D02*
X90035714Y-108760238D01*
X90035714Y-108760238D02*
X90130952Y-108712619D01*
X90130952Y-108712619D02*
X90369047Y-108712619D01*
X90369047Y-108712619D02*
X90464285Y-108760238D01*
X90464285Y-108760238D02*
X90511904Y-108807857D01*
X90511904Y-108807857D02*
X90559523Y-108903095D01*
X90559523Y-108903095D02*
X90559523Y-108998333D01*
X90559523Y-108998333D02*
X90511904Y-109141190D01*
X90511904Y-109141190D02*
X89940476Y-109712619D01*
X89940476Y-109712619D02*
X90559523Y-109712619D01*
%TO.C,SW4*%
X79326667Y-69805000D02*
X79469524Y-69852619D01*
X79469524Y-69852619D02*
X79707619Y-69852619D01*
X79707619Y-69852619D02*
X79802857Y-69805000D01*
X79802857Y-69805000D02*
X79850476Y-69757380D01*
X79850476Y-69757380D02*
X79898095Y-69662142D01*
X79898095Y-69662142D02*
X79898095Y-69566904D01*
X79898095Y-69566904D02*
X79850476Y-69471666D01*
X79850476Y-69471666D02*
X79802857Y-69424047D01*
X79802857Y-69424047D02*
X79707619Y-69376428D01*
X79707619Y-69376428D02*
X79517143Y-69328809D01*
X79517143Y-69328809D02*
X79421905Y-69281190D01*
X79421905Y-69281190D02*
X79374286Y-69233571D01*
X79374286Y-69233571D02*
X79326667Y-69138333D01*
X79326667Y-69138333D02*
X79326667Y-69043095D01*
X79326667Y-69043095D02*
X79374286Y-68947857D01*
X79374286Y-68947857D02*
X79421905Y-68900238D01*
X79421905Y-68900238D02*
X79517143Y-68852619D01*
X79517143Y-68852619D02*
X79755238Y-68852619D01*
X79755238Y-68852619D02*
X79898095Y-68900238D01*
X80231429Y-68852619D02*
X80469524Y-69852619D01*
X80469524Y-69852619D02*
X80660000Y-69138333D01*
X80660000Y-69138333D02*
X80850476Y-69852619D01*
X80850476Y-69852619D02*
X81088572Y-68852619D01*
X81898095Y-69185952D02*
X81898095Y-69852619D01*
X81660000Y-68805000D02*
X81421905Y-69519285D01*
X81421905Y-69519285D02*
X82040952Y-69519285D01*
%TO.C,SW31*%
X94470476Y-174995000D02*
X94613333Y-175042619D01*
X94613333Y-175042619D02*
X94851428Y-175042619D01*
X94851428Y-175042619D02*
X94946666Y-174995000D01*
X94946666Y-174995000D02*
X94994285Y-174947380D01*
X94994285Y-174947380D02*
X95041904Y-174852142D01*
X95041904Y-174852142D02*
X95041904Y-174756904D01*
X95041904Y-174756904D02*
X94994285Y-174661666D01*
X94994285Y-174661666D02*
X94946666Y-174614047D01*
X94946666Y-174614047D02*
X94851428Y-174566428D01*
X94851428Y-174566428D02*
X94660952Y-174518809D01*
X94660952Y-174518809D02*
X94565714Y-174471190D01*
X94565714Y-174471190D02*
X94518095Y-174423571D01*
X94518095Y-174423571D02*
X94470476Y-174328333D01*
X94470476Y-174328333D02*
X94470476Y-174233095D01*
X94470476Y-174233095D02*
X94518095Y-174137857D01*
X94518095Y-174137857D02*
X94565714Y-174090238D01*
X94565714Y-174090238D02*
X94660952Y-174042619D01*
X94660952Y-174042619D02*
X94899047Y-174042619D01*
X94899047Y-174042619D02*
X95041904Y-174090238D01*
X95375238Y-174042619D02*
X95613333Y-175042619D01*
X95613333Y-175042619D02*
X95803809Y-174328333D01*
X95803809Y-174328333D02*
X95994285Y-175042619D01*
X95994285Y-175042619D02*
X96232381Y-174042619D01*
X96518095Y-174042619D02*
X97137142Y-174042619D01*
X97137142Y-174042619D02*
X96803809Y-174423571D01*
X96803809Y-174423571D02*
X96946666Y-174423571D01*
X96946666Y-174423571D02*
X97041904Y-174471190D01*
X97041904Y-174471190D02*
X97089523Y-174518809D01*
X97089523Y-174518809D02*
X97137142Y-174614047D01*
X97137142Y-174614047D02*
X97137142Y-174852142D01*
X97137142Y-174852142D02*
X97089523Y-174947380D01*
X97089523Y-174947380D02*
X97041904Y-174995000D01*
X97041904Y-174995000D02*
X96946666Y-175042619D01*
X96946666Y-175042619D02*
X96660952Y-175042619D01*
X96660952Y-175042619D02*
X96565714Y-174995000D01*
X96565714Y-174995000D02*
X96518095Y-174947380D01*
X98089523Y-175042619D02*
X97518095Y-175042619D01*
X97803809Y-175042619D02*
X97803809Y-174042619D01*
X97803809Y-174042619D02*
X97708571Y-174185476D01*
X97708571Y-174185476D02*
X97613333Y-174280714D01*
X97613333Y-174280714D02*
X97518095Y-174328333D01*
%TO.C,SW41*%
X117895476Y-192815000D02*
X118038333Y-192862619D01*
X118038333Y-192862619D02*
X118276428Y-192862619D01*
X118276428Y-192862619D02*
X118371666Y-192815000D01*
X118371666Y-192815000D02*
X118419285Y-192767380D01*
X118419285Y-192767380D02*
X118466904Y-192672142D01*
X118466904Y-192672142D02*
X118466904Y-192576904D01*
X118466904Y-192576904D02*
X118419285Y-192481666D01*
X118419285Y-192481666D02*
X118371666Y-192434047D01*
X118371666Y-192434047D02*
X118276428Y-192386428D01*
X118276428Y-192386428D02*
X118085952Y-192338809D01*
X118085952Y-192338809D02*
X117990714Y-192291190D01*
X117990714Y-192291190D02*
X117943095Y-192243571D01*
X117943095Y-192243571D02*
X117895476Y-192148333D01*
X117895476Y-192148333D02*
X117895476Y-192053095D01*
X117895476Y-192053095D02*
X117943095Y-191957857D01*
X117943095Y-191957857D02*
X117990714Y-191910238D01*
X117990714Y-191910238D02*
X118085952Y-191862619D01*
X118085952Y-191862619D02*
X118324047Y-191862619D01*
X118324047Y-191862619D02*
X118466904Y-191910238D01*
X118800238Y-191862619D02*
X119038333Y-192862619D01*
X119038333Y-192862619D02*
X119228809Y-192148333D01*
X119228809Y-192148333D02*
X119419285Y-192862619D01*
X119419285Y-192862619D02*
X119657381Y-191862619D01*
X120466904Y-192195952D02*
X120466904Y-192862619D01*
X120228809Y-191815000D02*
X119990714Y-192529285D01*
X119990714Y-192529285D02*
X120609761Y-192529285D01*
X121514523Y-192862619D02*
X120943095Y-192862619D01*
X121228809Y-192862619D02*
X121228809Y-191862619D01*
X121228809Y-191862619D02*
X121133571Y-192005476D01*
X121133571Y-192005476D02*
X121038333Y-192100714D01*
X121038333Y-192100714D02*
X120943095Y-192148333D01*
%TO.C,SW23*%
X99900476Y-134815000D02*
X100043333Y-134862619D01*
X100043333Y-134862619D02*
X100281428Y-134862619D01*
X100281428Y-134862619D02*
X100376666Y-134815000D01*
X100376666Y-134815000D02*
X100424285Y-134767380D01*
X100424285Y-134767380D02*
X100471904Y-134672142D01*
X100471904Y-134672142D02*
X100471904Y-134576904D01*
X100471904Y-134576904D02*
X100424285Y-134481666D01*
X100424285Y-134481666D02*
X100376666Y-134434047D01*
X100376666Y-134434047D02*
X100281428Y-134386428D01*
X100281428Y-134386428D02*
X100090952Y-134338809D01*
X100090952Y-134338809D02*
X99995714Y-134291190D01*
X99995714Y-134291190D02*
X99948095Y-134243571D01*
X99948095Y-134243571D02*
X99900476Y-134148333D01*
X99900476Y-134148333D02*
X99900476Y-134053095D01*
X99900476Y-134053095D02*
X99948095Y-133957857D01*
X99948095Y-133957857D02*
X99995714Y-133910238D01*
X99995714Y-133910238D02*
X100090952Y-133862619D01*
X100090952Y-133862619D02*
X100329047Y-133862619D01*
X100329047Y-133862619D02*
X100471904Y-133910238D01*
X100805238Y-133862619D02*
X101043333Y-134862619D01*
X101043333Y-134862619D02*
X101233809Y-134148333D01*
X101233809Y-134148333D02*
X101424285Y-134862619D01*
X101424285Y-134862619D02*
X101662381Y-133862619D01*
X101995714Y-133957857D02*
X102043333Y-133910238D01*
X102043333Y-133910238D02*
X102138571Y-133862619D01*
X102138571Y-133862619D02*
X102376666Y-133862619D01*
X102376666Y-133862619D02*
X102471904Y-133910238D01*
X102471904Y-133910238D02*
X102519523Y-133957857D01*
X102519523Y-133957857D02*
X102567142Y-134053095D01*
X102567142Y-134053095D02*
X102567142Y-134148333D01*
X102567142Y-134148333D02*
X102519523Y-134291190D01*
X102519523Y-134291190D02*
X101948095Y-134862619D01*
X101948095Y-134862619D02*
X102567142Y-134862619D01*
X102900476Y-133862619D02*
X103519523Y-133862619D01*
X103519523Y-133862619D02*
X103186190Y-134243571D01*
X103186190Y-134243571D02*
X103329047Y-134243571D01*
X103329047Y-134243571D02*
X103424285Y-134291190D01*
X103424285Y-134291190D02*
X103471904Y-134338809D01*
X103471904Y-134338809D02*
X103519523Y-134434047D01*
X103519523Y-134434047D02*
X103519523Y-134672142D01*
X103519523Y-134672142D02*
X103471904Y-134767380D01*
X103471904Y-134767380D02*
X103424285Y-134815000D01*
X103424285Y-134815000D02*
X103329047Y-134862619D01*
X103329047Y-134862619D02*
X103043333Y-134862619D01*
X103043333Y-134862619D02*
X102948095Y-134815000D01*
X102948095Y-134815000D02*
X102900476Y-134767380D01*
%TO.C,SW16*%
X111190476Y-122215000D02*
X111333333Y-122262619D01*
X111333333Y-122262619D02*
X111571428Y-122262619D01*
X111571428Y-122262619D02*
X111666666Y-122215000D01*
X111666666Y-122215000D02*
X111714285Y-122167380D01*
X111714285Y-122167380D02*
X111761904Y-122072142D01*
X111761904Y-122072142D02*
X111761904Y-121976904D01*
X111761904Y-121976904D02*
X111714285Y-121881666D01*
X111714285Y-121881666D02*
X111666666Y-121834047D01*
X111666666Y-121834047D02*
X111571428Y-121786428D01*
X111571428Y-121786428D02*
X111380952Y-121738809D01*
X111380952Y-121738809D02*
X111285714Y-121691190D01*
X111285714Y-121691190D02*
X111238095Y-121643571D01*
X111238095Y-121643571D02*
X111190476Y-121548333D01*
X111190476Y-121548333D02*
X111190476Y-121453095D01*
X111190476Y-121453095D02*
X111238095Y-121357857D01*
X111238095Y-121357857D02*
X111285714Y-121310238D01*
X111285714Y-121310238D02*
X111380952Y-121262619D01*
X111380952Y-121262619D02*
X111619047Y-121262619D01*
X111619047Y-121262619D02*
X111761904Y-121310238D01*
X112095238Y-121262619D02*
X112333333Y-122262619D01*
X112333333Y-122262619D02*
X112523809Y-121548333D01*
X112523809Y-121548333D02*
X112714285Y-122262619D01*
X112714285Y-122262619D02*
X112952381Y-121262619D01*
X113857142Y-122262619D02*
X113285714Y-122262619D01*
X113571428Y-122262619D02*
X113571428Y-121262619D01*
X113571428Y-121262619D02*
X113476190Y-121405476D01*
X113476190Y-121405476D02*
X113380952Y-121500714D01*
X113380952Y-121500714D02*
X113285714Y-121548333D01*
X114714285Y-121262619D02*
X114523809Y-121262619D01*
X114523809Y-121262619D02*
X114428571Y-121310238D01*
X114428571Y-121310238D02*
X114380952Y-121357857D01*
X114380952Y-121357857D02*
X114285714Y-121500714D01*
X114285714Y-121500714D02*
X114238095Y-121691190D01*
X114238095Y-121691190D02*
X114238095Y-122072142D01*
X114238095Y-122072142D02*
X114285714Y-122167380D01*
X114285714Y-122167380D02*
X114333333Y-122215000D01*
X114333333Y-122215000D02*
X114428571Y-122262619D01*
X114428571Y-122262619D02*
X114619047Y-122262619D01*
X114619047Y-122262619D02*
X114714285Y-122215000D01*
X114714285Y-122215000D02*
X114761904Y-122167380D01*
X114761904Y-122167380D02*
X114809523Y-122072142D01*
X114809523Y-122072142D02*
X114809523Y-121834047D01*
X114809523Y-121834047D02*
X114761904Y-121738809D01*
X114761904Y-121738809D02*
X114714285Y-121691190D01*
X114714285Y-121691190D02*
X114619047Y-121643571D01*
X114619047Y-121643571D02*
X114428571Y-121643571D01*
X114428571Y-121643571D02*
X114333333Y-121691190D01*
X114333333Y-121691190D02*
X114285714Y-121738809D01*
X114285714Y-121738809D02*
X114238095Y-121834047D01*
%TO.C,SW51*%
X96330476Y-223435000D02*
X96473333Y-223482619D01*
X96473333Y-223482619D02*
X96711428Y-223482619D01*
X96711428Y-223482619D02*
X96806666Y-223435000D01*
X96806666Y-223435000D02*
X96854285Y-223387380D01*
X96854285Y-223387380D02*
X96901904Y-223292142D01*
X96901904Y-223292142D02*
X96901904Y-223196904D01*
X96901904Y-223196904D02*
X96854285Y-223101666D01*
X96854285Y-223101666D02*
X96806666Y-223054047D01*
X96806666Y-223054047D02*
X96711428Y-223006428D01*
X96711428Y-223006428D02*
X96520952Y-222958809D01*
X96520952Y-222958809D02*
X96425714Y-222911190D01*
X96425714Y-222911190D02*
X96378095Y-222863571D01*
X96378095Y-222863571D02*
X96330476Y-222768333D01*
X96330476Y-222768333D02*
X96330476Y-222673095D01*
X96330476Y-222673095D02*
X96378095Y-222577857D01*
X96378095Y-222577857D02*
X96425714Y-222530238D01*
X96425714Y-222530238D02*
X96520952Y-222482619D01*
X96520952Y-222482619D02*
X96759047Y-222482619D01*
X96759047Y-222482619D02*
X96901904Y-222530238D01*
X97235238Y-222482619D02*
X97473333Y-223482619D01*
X97473333Y-223482619D02*
X97663809Y-222768333D01*
X97663809Y-222768333D02*
X97854285Y-223482619D01*
X97854285Y-223482619D02*
X98092381Y-222482619D01*
X98949523Y-222482619D02*
X98473333Y-222482619D01*
X98473333Y-222482619D02*
X98425714Y-222958809D01*
X98425714Y-222958809D02*
X98473333Y-222911190D01*
X98473333Y-222911190D02*
X98568571Y-222863571D01*
X98568571Y-222863571D02*
X98806666Y-222863571D01*
X98806666Y-222863571D02*
X98901904Y-222911190D01*
X98901904Y-222911190D02*
X98949523Y-222958809D01*
X98949523Y-222958809D02*
X98997142Y-223054047D01*
X98997142Y-223054047D02*
X98997142Y-223292142D01*
X98997142Y-223292142D02*
X98949523Y-223387380D01*
X98949523Y-223387380D02*
X98901904Y-223435000D01*
X98901904Y-223435000D02*
X98806666Y-223482619D01*
X98806666Y-223482619D02*
X98568571Y-223482619D01*
X98568571Y-223482619D02*
X98473333Y-223435000D01*
X98473333Y-223435000D02*
X98425714Y-223387380D01*
X99949523Y-223482619D02*
X99378095Y-223482619D01*
X99663809Y-223482619D02*
X99663809Y-222482619D01*
X99663809Y-222482619D02*
X99568571Y-222625476D01*
X99568571Y-222625476D02*
X99473333Y-222720714D01*
X99473333Y-222720714D02*
X99378095Y-222768333D01*
%TO.C,SW49*%
X95050476Y-214715000D02*
X95193333Y-214762619D01*
X95193333Y-214762619D02*
X95431428Y-214762619D01*
X95431428Y-214762619D02*
X95526666Y-214715000D01*
X95526666Y-214715000D02*
X95574285Y-214667380D01*
X95574285Y-214667380D02*
X95621904Y-214572142D01*
X95621904Y-214572142D02*
X95621904Y-214476904D01*
X95621904Y-214476904D02*
X95574285Y-214381666D01*
X95574285Y-214381666D02*
X95526666Y-214334047D01*
X95526666Y-214334047D02*
X95431428Y-214286428D01*
X95431428Y-214286428D02*
X95240952Y-214238809D01*
X95240952Y-214238809D02*
X95145714Y-214191190D01*
X95145714Y-214191190D02*
X95098095Y-214143571D01*
X95098095Y-214143571D02*
X95050476Y-214048333D01*
X95050476Y-214048333D02*
X95050476Y-213953095D01*
X95050476Y-213953095D02*
X95098095Y-213857857D01*
X95098095Y-213857857D02*
X95145714Y-213810238D01*
X95145714Y-213810238D02*
X95240952Y-213762619D01*
X95240952Y-213762619D02*
X95479047Y-213762619D01*
X95479047Y-213762619D02*
X95621904Y-213810238D01*
X95955238Y-213762619D02*
X96193333Y-214762619D01*
X96193333Y-214762619D02*
X96383809Y-214048333D01*
X96383809Y-214048333D02*
X96574285Y-214762619D01*
X96574285Y-214762619D02*
X96812381Y-213762619D01*
X97621904Y-214095952D02*
X97621904Y-214762619D01*
X97383809Y-213715000D02*
X97145714Y-214429285D01*
X97145714Y-214429285D02*
X97764761Y-214429285D01*
X98193333Y-214762619D02*
X98383809Y-214762619D01*
X98383809Y-214762619D02*
X98479047Y-214715000D01*
X98479047Y-214715000D02*
X98526666Y-214667380D01*
X98526666Y-214667380D02*
X98621904Y-214524523D01*
X98621904Y-214524523D02*
X98669523Y-214334047D01*
X98669523Y-214334047D02*
X98669523Y-213953095D01*
X98669523Y-213953095D02*
X98621904Y-213857857D01*
X98621904Y-213857857D02*
X98574285Y-213810238D01*
X98574285Y-213810238D02*
X98479047Y-213762619D01*
X98479047Y-213762619D02*
X98288571Y-213762619D01*
X98288571Y-213762619D02*
X98193333Y-213810238D01*
X98193333Y-213810238D02*
X98145714Y-213857857D01*
X98145714Y-213857857D02*
X98098095Y-213953095D01*
X98098095Y-213953095D02*
X98098095Y-214191190D01*
X98098095Y-214191190D02*
X98145714Y-214286428D01*
X98145714Y-214286428D02*
X98193333Y-214334047D01*
X98193333Y-214334047D02*
X98288571Y-214381666D01*
X98288571Y-214381666D02*
X98479047Y-214381666D01*
X98479047Y-214381666D02*
X98574285Y-214334047D01*
X98574285Y-214334047D02*
X98621904Y-214286428D01*
X98621904Y-214286428D02*
X98669523Y-214191190D01*
%TO.C,SW28*%
X106060476Y-161605000D02*
X106203333Y-161652619D01*
X106203333Y-161652619D02*
X106441428Y-161652619D01*
X106441428Y-161652619D02*
X106536666Y-161605000D01*
X106536666Y-161605000D02*
X106584285Y-161557380D01*
X106584285Y-161557380D02*
X106631904Y-161462142D01*
X106631904Y-161462142D02*
X106631904Y-161366904D01*
X106631904Y-161366904D02*
X106584285Y-161271666D01*
X106584285Y-161271666D02*
X106536666Y-161224047D01*
X106536666Y-161224047D02*
X106441428Y-161176428D01*
X106441428Y-161176428D02*
X106250952Y-161128809D01*
X106250952Y-161128809D02*
X106155714Y-161081190D01*
X106155714Y-161081190D02*
X106108095Y-161033571D01*
X106108095Y-161033571D02*
X106060476Y-160938333D01*
X106060476Y-160938333D02*
X106060476Y-160843095D01*
X106060476Y-160843095D02*
X106108095Y-160747857D01*
X106108095Y-160747857D02*
X106155714Y-160700238D01*
X106155714Y-160700238D02*
X106250952Y-160652619D01*
X106250952Y-160652619D02*
X106489047Y-160652619D01*
X106489047Y-160652619D02*
X106631904Y-160700238D01*
X106965238Y-160652619D02*
X107203333Y-161652619D01*
X107203333Y-161652619D02*
X107393809Y-160938333D01*
X107393809Y-160938333D02*
X107584285Y-161652619D01*
X107584285Y-161652619D02*
X107822381Y-160652619D01*
X108155714Y-160747857D02*
X108203333Y-160700238D01*
X108203333Y-160700238D02*
X108298571Y-160652619D01*
X108298571Y-160652619D02*
X108536666Y-160652619D01*
X108536666Y-160652619D02*
X108631904Y-160700238D01*
X108631904Y-160700238D02*
X108679523Y-160747857D01*
X108679523Y-160747857D02*
X108727142Y-160843095D01*
X108727142Y-160843095D02*
X108727142Y-160938333D01*
X108727142Y-160938333D02*
X108679523Y-161081190D01*
X108679523Y-161081190D02*
X108108095Y-161652619D01*
X108108095Y-161652619D02*
X108727142Y-161652619D01*
X109298571Y-161081190D02*
X109203333Y-161033571D01*
X109203333Y-161033571D02*
X109155714Y-160985952D01*
X109155714Y-160985952D02*
X109108095Y-160890714D01*
X109108095Y-160890714D02*
X109108095Y-160843095D01*
X109108095Y-160843095D02*
X109155714Y-160747857D01*
X109155714Y-160747857D02*
X109203333Y-160700238D01*
X109203333Y-160700238D02*
X109298571Y-160652619D01*
X109298571Y-160652619D02*
X109489047Y-160652619D01*
X109489047Y-160652619D02*
X109584285Y-160700238D01*
X109584285Y-160700238D02*
X109631904Y-160747857D01*
X109631904Y-160747857D02*
X109679523Y-160843095D01*
X109679523Y-160843095D02*
X109679523Y-160890714D01*
X109679523Y-160890714D02*
X109631904Y-160985952D01*
X109631904Y-160985952D02*
X109584285Y-161033571D01*
X109584285Y-161033571D02*
X109489047Y-161081190D01*
X109489047Y-161081190D02*
X109298571Y-161081190D01*
X109298571Y-161081190D02*
X109203333Y-161128809D01*
X109203333Y-161128809D02*
X109155714Y-161176428D01*
X109155714Y-161176428D02*
X109108095Y-161271666D01*
X109108095Y-161271666D02*
X109108095Y-161462142D01*
X109108095Y-161462142D02*
X109155714Y-161557380D01*
X109155714Y-161557380D02*
X109203333Y-161605000D01*
X109203333Y-161605000D02*
X109298571Y-161652619D01*
X109298571Y-161652619D02*
X109489047Y-161652619D01*
X109489047Y-161652619D02*
X109584285Y-161605000D01*
X109584285Y-161605000D02*
X109631904Y-161557380D01*
X109631904Y-161557380D02*
X109679523Y-161462142D01*
X109679523Y-161462142D02*
X109679523Y-161271666D01*
X109679523Y-161271666D02*
X109631904Y-161176428D01*
X109631904Y-161176428D02*
X109584285Y-161128809D01*
X109584285Y-161128809D02*
X109489047Y-161081190D01*
%TO.C,SW25*%
X106750476Y-143655000D02*
X106893333Y-143702619D01*
X106893333Y-143702619D02*
X107131428Y-143702619D01*
X107131428Y-143702619D02*
X107226666Y-143655000D01*
X107226666Y-143655000D02*
X107274285Y-143607380D01*
X107274285Y-143607380D02*
X107321904Y-143512142D01*
X107321904Y-143512142D02*
X107321904Y-143416904D01*
X107321904Y-143416904D02*
X107274285Y-143321666D01*
X107274285Y-143321666D02*
X107226666Y-143274047D01*
X107226666Y-143274047D02*
X107131428Y-143226428D01*
X107131428Y-143226428D02*
X106940952Y-143178809D01*
X106940952Y-143178809D02*
X106845714Y-143131190D01*
X106845714Y-143131190D02*
X106798095Y-143083571D01*
X106798095Y-143083571D02*
X106750476Y-142988333D01*
X106750476Y-142988333D02*
X106750476Y-142893095D01*
X106750476Y-142893095D02*
X106798095Y-142797857D01*
X106798095Y-142797857D02*
X106845714Y-142750238D01*
X106845714Y-142750238D02*
X106940952Y-142702619D01*
X106940952Y-142702619D02*
X107179047Y-142702619D01*
X107179047Y-142702619D02*
X107321904Y-142750238D01*
X107655238Y-142702619D02*
X107893333Y-143702619D01*
X107893333Y-143702619D02*
X108083809Y-142988333D01*
X108083809Y-142988333D02*
X108274285Y-143702619D01*
X108274285Y-143702619D02*
X108512381Y-142702619D01*
X108845714Y-142797857D02*
X108893333Y-142750238D01*
X108893333Y-142750238D02*
X108988571Y-142702619D01*
X108988571Y-142702619D02*
X109226666Y-142702619D01*
X109226666Y-142702619D02*
X109321904Y-142750238D01*
X109321904Y-142750238D02*
X109369523Y-142797857D01*
X109369523Y-142797857D02*
X109417142Y-142893095D01*
X109417142Y-142893095D02*
X109417142Y-142988333D01*
X109417142Y-142988333D02*
X109369523Y-143131190D01*
X109369523Y-143131190D02*
X108798095Y-143702619D01*
X108798095Y-143702619D02*
X109417142Y-143702619D01*
X110321904Y-142702619D02*
X109845714Y-142702619D01*
X109845714Y-142702619D02*
X109798095Y-143178809D01*
X109798095Y-143178809D02*
X109845714Y-143131190D01*
X109845714Y-143131190D02*
X109940952Y-143083571D01*
X109940952Y-143083571D02*
X110179047Y-143083571D01*
X110179047Y-143083571D02*
X110274285Y-143131190D01*
X110274285Y-143131190D02*
X110321904Y-143178809D01*
X110321904Y-143178809D02*
X110369523Y-143274047D01*
X110369523Y-143274047D02*
X110369523Y-143512142D01*
X110369523Y-143512142D02*
X110321904Y-143607380D01*
X110321904Y-143607380D02*
X110274285Y-143655000D01*
X110274285Y-143655000D02*
X110179047Y-143702619D01*
X110179047Y-143702619D02*
X109940952Y-143702619D01*
X109940952Y-143702619D02*
X109845714Y-143655000D01*
X109845714Y-143655000D02*
X109798095Y-143607380D01*
%TO.C,SW40*%
X106380476Y-192795000D02*
X106523333Y-192842619D01*
X106523333Y-192842619D02*
X106761428Y-192842619D01*
X106761428Y-192842619D02*
X106856666Y-192795000D01*
X106856666Y-192795000D02*
X106904285Y-192747380D01*
X106904285Y-192747380D02*
X106951904Y-192652142D01*
X106951904Y-192652142D02*
X106951904Y-192556904D01*
X106951904Y-192556904D02*
X106904285Y-192461666D01*
X106904285Y-192461666D02*
X106856666Y-192414047D01*
X106856666Y-192414047D02*
X106761428Y-192366428D01*
X106761428Y-192366428D02*
X106570952Y-192318809D01*
X106570952Y-192318809D02*
X106475714Y-192271190D01*
X106475714Y-192271190D02*
X106428095Y-192223571D01*
X106428095Y-192223571D02*
X106380476Y-192128333D01*
X106380476Y-192128333D02*
X106380476Y-192033095D01*
X106380476Y-192033095D02*
X106428095Y-191937857D01*
X106428095Y-191937857D02*
X106475714Y-191890238D01*
X106475714Y-191890238D02*
X106570952Y-191842619D01*
X106570952Y-191842619D02*
X106809047Y-191842619D01*
X106809047Y-191842619D02*
X106951904Y-191890238D01*
X107285238Y-191842619D02*
X107523333Y-192842619D01*
X107523333Y-192842619D02*
X107713809Y-192128333D01*
X107713809Y-192128333D02*
X107904285Y-192842619D01*
X107904285Y-192842619D02*
X108142381Y-191842619D01*
X108951904Y-192175952D02*
X108951904Y-192842619D01*
X108713809Y-191795000D02*
X108475714Y-192509285D01*
X108475714Y-192509285D02*
X109094761Y-192509285D01*
X109666190Y-191842619D02*
X109761428Y-191842619D01*
X109761428Y-191842619D02*
X109856666Y-191890238D01*
X109856666Y-191890238D02*
X109904285Y-191937857D01*
X109904285Y-191937857D02*
X109951904Y-192033095D01*
X109951904Y-192033095D02*
X109999523Y-192223571D01*
X109999523Y-192223571D02*
X109999523Y-192461666D01*
X109999523Y-192461666D02*
X109951904Y-192652142D01*
X109951904Y-192652142D02*
X109904285Y-192747380D01*
X109904285Y-192747380D02*
X109856666Y-192795000D01*
X109856666Y-192795000D02*
X109761428Y-192842619D01*
X109761428Y-192842619D02*
X109666190Y-192842619D01*
X109666190Y-192842619D02*
X109570952Y-192795000D01*
X109570952Y-192795000D02*
X109523333Y-192747380D01*
X109523333Y-192747380D02*
X109475714Y-192652142D01*
X109475714Y-192652142D02*
X109428095Y-192461666D01*
X109428095Y-192461666D02*
X109428095Y-192223571D01*
X109428095Y-192223571D02*
X109475714Y-192033095D01*
X109475714Y-192033095D02*
X109523333Y-191937857D01*
X109523333Y-191937857D02*
X109570952Y-191890238D01*
X109570952Y-191890238D02*
X109666190Y-191842619D01*
%TO.C,SW10*%
X120205000Y-88670476D02*
X120157380Y-88813333D01*
X120157380Y-88813333D02*
X120157380Y-89051428D01*
X120157380Y-89051428D02*
X120205000Y-89146666D01*
X120205000Y-89146666D02*
X120252619Y-89194285D01*
X120252619Y-89194285D02*
X120347857Y-89241904D01*
X120347857Y-89241904D02*
X120443095Y-89241904D01*
X120443095Y-89241904D02*
X120538333Y-89194285D01*
X120538333Y-89194285D02*
X120585952Y-89146666D01*
X120585952Y-89146666D02*
X120633571Y-89051428D01*
X120633571Y-89051428D02*
X120681190Y-88860952D01*
X120681190Y-88860952D02*
X120728809Y-88765714D01*
X120728809Y-88765714D02*
X120776428Y-88718095D01*
X120776428Y-88718095D02*
X120871666Y-88670476D01*
X120871666Y-88670476D02*
X120966904Y-88670476D01*
X120966904Y-88670476D02*
X121062142Y-88718095D01*
X121062142Y-88718095D02*
X121109761Y-88765714D01*
X121109761Y-88765714D02*
X121157380Y-88860952D01*
X121157380Y-88860952D02*
X121157380Y-89099047D01*
X121157380Y-89099047D02*
X121109761Y-89241904D01*
X121157380Y-89575238D02*
X120157380Y-89813333D01*
X120157380Y-89813333D02*
X120871666Y-90003809D01*
X120871666Y-90003809D02*
X120157380Y-90194285D01*
X120157380Y-90194285D02*
X121157380Y-90432381D01*
X120157380Y-91337142D02*
X120157380Y-90765714D01*
X120157380Y-91051428D02*
X121157380Y-91051428D01*
X121157380Y-91051428D02*
X121014523Y-90956190D01*
X121014523Y-90956190D02*
X120919285Y-90860952D01*
X120919285Y-90860952D02*
X120871666Y-90765714D01*
X121157380Y-91956190D02*
X121157380Y-92051428D01*
X121157380Y-92051428D02*
X121109761Y-92146666D01*
X121109761Y-92146666D02*
X121062142Y-92194285D01*
X121062142Y-92194285D02*
X120966904Y-92241904D01*
X120966904Y-92241904D02*
X120776428Y-92289523D01*
X120776428Y-92289523D02*
X120538333Y-92289523D01*
X120538333Y-92289523D02*
X120347857Y-92241904D01*
X120347857Y-92241904D02*
X120252619Y-92194285D01*
X120252619Y-92194285D02*
X120205000Y-92146666D01*
X120205000Y-92146666D02*
X120157380Y-92051428D01*
X120157380Y-92051428D02*
X120157380Y-91956190D01*
X120157380Y-91956190D02*
X120205000Y-91860952D01*
X120205000Y-91860952D02*
X120252619Y-91813333D01*
X120252619Y-91813333D02*
X120347857Y-91765714D01*
X120347857Y-91765714D02*
X120538333Y-91718095D01*
X120538333Y-91718095D02*
X120776428Y-91718095D01*
X120776428Y-91718095D02*
X120966904Y-91765714D01*
X120966904Y-91765714D02*
X121062142Y-91813333D01*
X121062142Y-91813333D02*
X121109761Y-91860952D01*
X121109761Y-91860952D02*
X121157380Y-91956190D01*
%TO.C,SW22*%
X113710476Y-151655000D02*
X113853333Y-151702619D01*
X113853333Y-151702619D02*
X114091428Y-151702619D01*
X114091428Y-151702619D02*
X114186666Y-151655000D01*
X114186666Y-151655000D02*
X114234285Y-151607380D01*
X114234285Y-151607380D02*
X114281904Y-151512142D01*
X114281904Y-151512142D02*
X114281904Y-151416904D01*
X114281904Y-151416904D02*
X114234285Y-151321666D01*
X114234285Y-151321666D02*
X114186666Y-151274047D01*
X114186666Y-151274047D02*
X114091428Y-151226428D01*
X114091428Y-151226428D02*
X113900952Y-151178809D01*
X113900952Y-151178809D02*
X113805714Y-151131190D01*
X113805714Y-151131190D02*
X113758095Y-151083571D01*
X113758095Y-151083571D02*
X113710476Y-150988333D01*
X113710476Y-150988333D02*
X113710476Y-150893095D01*
X113710476Y-150893095D02*
X113758095Y-150797857D01*
X113758095Y-150797857D02*
X113805714Y-150750238D01*
X113805714Y-150750238D02*
X113900952Y-150702619D01*
X113900952Y-150702619D02*
X114139047Y-150702619D01*
X114139047Y-150702619D02*
X114281904Y-150750238D01*
X114615238Y-150702619D02*
X114853333Y-151702619D01*
X114853333Y-151702619D02*
X115043809Y-150988333D01*
X115043809Y-150988333D02*
X115234285Y-151702619D01*
X115234285Y-151702619D02*
X115472381Y-150702619D01*
X115805714Y-150797857D02*
X115853333Y-150750238D01*
X115853333Y-150750238D02*
X115948571Y-150702619D01*
X115948571Y-150702619D02*
X116186666Y-150702619D01*
X116186666Y-150702619D02*
X116281904Y-150750238D01*
X116281904Y-150750238D02*
X116329523Y-150797857D01*
X116329523Y-150797857D02*
X116377142Y-150893095D01*
X116377142Y-150893095D02*
X116377142Y-150988333D01*
X116377142Y-150988333D02*
X116329523Y-151131190D01*
X116329523Y-151131190D02*
X115758095Y-151702619D01*
X115758095Y-151702619D02*
X116377142Y-151702619D01*
X116758095Y-150797857D02*
X116805714Y-150750238D01*
X116805714Y-150750238D02*
X116900952Y-150702619D01*
X116900952Y-150702619D02*
X117139047Y-150702619D01*
X117139047Y-150702619D02*
X117234285Y-150750238D01*
X117234285Y-150750238D02*
X117281904Y-150797857D01*
X117281904Y-150797857D02*
X117329523Y-150893095D01*
X117329523Y-150893095D02*
X117329523Y-150988333D01*
X117329523Y-150988333D02*
X117281904Y-151131190D01*
X117281904Y-151131190D02*
X116710476Y-151702619D01*
X116710476Y-151702619D02*
X117329523Y-151702619D01*
%TO.C,SW18*%
X119440476Y-120915000D02*
X119583333Y-120962619D01*
X119583333Y-120962619D02*
X119821428Y-120962619D01*
X119821428Y-120962619D02*
X119916666Y-120915000D01*
X119916666Y-120915000D02*
X119964285Y-120867380D01*
X119964285Y-120867380D02*
X120011904Y-120772142D01*
X120011904Y-120772142D02*
X120011904Y-120676904D01*
X120011904Y-120676904D02*
X119964285Y-120581666D01*
X119964285Y-120581666D02*
X119916666Y-120534047D01*
X119916666Y-120534047D02*
X119821428Y-120486428D01*
X119821428Y-120486428D02*
X119630952Y-120438809D01*
X119630952Y-120438809D02*
X119535714Y-120391190D01*
X119535714Y-120391190D02*
X119488095Y-120343571D01*
X119488095Y-120343571D02*
X119440476Y-120248333D01*
X119440476Y-120248333D02*
X119440476Y-120153095D01*
X119440476Y-120153095D02*
X119488095Y-120057857D01*
X119488095Y-120057857D02*
X119535714Y-120010238D01*
X119535714Y-120010238D02*
X119630952Y-119962619D01*
X119630952Y-119962619D02*
X119869047Y-119962619D01*
X119869047Y-119962619D02*
X120011904Y-120010238D01*
X120345238Y-119962619D02*
X120583333Y-120962619D01*
X120583333Y-120962619D02*
X120773809Y-120248333D01*
X120773809Y-120248333D02*
X120964285Y-120962619D01*
X120964285Y-120962619D02*
X121202381Y-119962619D01*
X122107142Y-120962619D02*
X121535714Y-120962619D01*
X121821428Y-120962619D02*
X121821428Y-119962619D01*
X121821428Y-119962619D02*
X121726190Y-120105476D01*
X121726190Y-120105476D02*
X121630952Y-120200714D01*
X121630952Y-120200714D02*
X121535714Y-120248333D01*
X122678571Y-120391190D02*
X122583333Y-120343571D01*
X122583333Y-120343571D02*
X122535714Y-120295952D01*
X122535714Y-120295952D02*
X122488095Y-120200714D01*
X122488095Y-120200714D02*
X122488095Y-120153095D01*
X122488095Y-120153095D02*
X122535714Y-120057857D01*
X122535714Y-120057857D02*
X122583333Y-120010238D01*
X122583333Y-120010238D02*
X122678571Y-119962619D01*
X122678571Y-119962619D02*
X122869047Y-119962619D01*
X122869047Y-119962619D02*
X122964285Y-120010238D01*
X122964285Y-120010238D02*
X123011904Y-120057857D01*
X123011904Y-120057857D02*
X123059523Y-120153095D01*
X123059523Y-120153095D02*
X123059523Y-120200714D01*
X123059523Y-120200714D02*
X123011904Y-120295952D01*
X123011904Y-120295952D02*
X122964285Y-120343571D01*
X122964285Y-120343571D02*
X122869047Y-120391190D01*
X122869047Y-120391190D02*
X122678571Y-120391190D01*
X122678571Y-120391190D02*
X122583333Y-120438809D01*
X122583333Y-120438809D02*
X122535714Y-120486428D01*
X122535714Y-120486428D02*
X122488095Y-120581666D01*
X122488095Y-120581666D02*
X122488095Y-120772142D01*
X122488095Y-120772142D02*
X122535714Y-120867380D01*
X122535714Y-120867380D02*
X122583333Y-120915000D01*
X122583333Y-120915000D02*
X122678571Y-120962619D01*
X122678571Y-120962619D02*
X122869047Y-120962619D01*
X122869047Y-120962619D02*
X122964285Y-120915000D01*
X122964285Y-120915000D02*
X123011904Y-120867380D01*
X123011904Y-120867380D02*
X123059523Y-120772142D01*
X123059523Y-120772142D02*
X123059523Y-120581666D01*
X123059523Y-120581666D02*
X123011904Y-120486428D01*
X123011904Y-120486428D02*
X122964285Y-120438809D01*
X122964285Y-120438809D02*
X122869047Y-120391190D01*
%TO.C,SW37*%
X117430476Y-185695000D02*
X117573333Y-185742619D01*
X117573333Y-185742619D02*
X117811428Y-185742619D01*
X117811428Y-185742619D02*
X117906666Y-185695000D01*
X117906666Y-185695000D02*
X117954285Y-185647380D01*
X117954285Y-185647380D02*
X118001904Y-185552142D01*
X118001904Y-185552142D02*
X118001904Y-185456904D01*
X118001904Y-185456904D02*
X117954285Y-185361666D01*
X117954285Y-185361666D02*
X117906666Y-185314047D01*
X117906666Y-185314047D02*
X117811428Y-185266428D01*
X117811428Y-185266428D02*
X117620952Y-185218809D01*
X117620952Y-185218809D02*
X117525714Y-185171190D01*
X117525714Y-185171190D02*
X117478095Y-185123571D01*
X117478095Y-185123571D02*
X117430476Y-185028333D01*
X117430476Y-185028333D02*
X117430476Y-184933095D01*
X117430476Y-184933095D02*
X117478095Y-184837857D01*
X117478095Y-184837857D02*
X117525714Y-184790238D01*
X117525714Y-184790238D02*
X117620952Y-184742619D01*
X117620952Y-184742619D02*
X117859047Y-184742619D01*
X117859047Y-184742619D02*
X118001904Y-184790238D01*
X118335238Y-184742619D02*
X118573333Y-185742619D01*
X118573333Y-185742619D02*
X118763809Y-185028333D01*
X118763809Y-185028333D02*
X118954285Y-185742619D01*
X118954285Y-185742619D02*
X119192381Y-184742619D01*
X119478095Y-184742619D02*
X120097142Y-184742619D01*
X120097142Y-184742619D02*
X119763809Y-185123571D01*
X119763809Y-185123571D02*
X119906666Y-185123571D01*
X119906666Y-185123571D02*
X120001904Y-185171190D01*
X120001904Y-185171190D02*
X120049523Y-185218809D01*
X120049523Y-185218809D02*
X120097142Y-185314047D01*
X120097142Y-185314047D02*
X120097142Y-185552142D01*
X120097142Y-185552142D02*
X120049523Y-185647380D01*
X120049523Y-185647380D02*
X120001904Y-185695000D01*
X120001904Y-185695000D02*
X119906666Y-185742619D01*
X119906666Y-185742619D02*
X119620952Y-185742619D01*
X119620952Y-185742619D02*
X119525714Y-185695000D01*
X119525714Y-185695000D02*
X119478095Y-185647380D01*
X120430476Y-184742619D02*
X121097142Y-184742619D01*
X121097142Y-184742619D02*
X120668571Y-185742619D01*
%TO.C,SW43*%
X95180476Y-200525000D02*
X95323333Y-200572619D01*
X95323333Y-200572619D02*
X95561428Y-200572619D01*
X95561428Y-200572619D02*
X95656666Y-200525000D01*
X95656666Y-200525000D02*
X95704285Y-200477380D01*
X95704285Y-200477380D02*
X95751904Y-200382142D01*
X95751904Y-200382142D02*
X95751904Y-200286904D01*
X95751904Y-200286904D02*
X95704285Y-200191666D01*
X95704285Y-200191666D02*
X95656666Y-200144047D01*
X95656666Y-200144047D02*
X95561428Y-200096428D01*
X95561428Y-200096428D02*
X95370952Y-200048809D01*
X95370952Y-200048809D02*
X95275714Y-200001190D01*
X95275714Y-200001190D02*
X95228095Y-199953571D01*
X95228095Y-199953571D02*
X95180476Y-199858333D01*
X95180476Y-199858333D02*
X95180476Y-199763095D01*
X95180476Y-199763095D02*
X95228095Y-199667857D01*
X95228095Y-199667857D02*
X95275714Y-199620238D01*
X95275714Y-199620238D02*
X95370952Y-199572619D01*
X95370952Y-199572619D02*
X95609047Y-199572619D01*
X95609047Y-199572619D02*
X95751904Y-199620238D01*
X96085238Y-199572619D02*
X96323333Y-200572619D01*
X96323333Y-200572619D02*
X96513809Y-199858333D01*
X96513809Y-199858333D02*
X96704285Y-200572619D01*
X96704285Y-200572619D02*
X96942381Y-199572619D01*
X97751904Y-199905952D02*
X97751904Y-200572619D01*
X97513809Y-199525000D02*
X97275714Y-200239285D01*
X97275714Y-200239285D02*
X97894761Y-200239285D01*
X98180476Y-199572619D02*
X98799523Y-199572619D01*
X98799523Y-199572619D02*
X98466190Y-199953571D01*
X98466190Y-199953571D02*
X98609047Y-199953571D01*
X98609047Y-199953571D02*
X98704285Y-200001190D01*
X98704285Y-200001190D02*
X98751904Y-200048809D01*
X98751904Y-200048809D02*
X98799523Y-200144047D01*
X98799523Y-200144047D02*
X98799523Y-200382142D01*
X98799523Y-200382142D02*
X98751904Y-200477380D01*
X98751904Y-200477380D02*
X98704285Y-200525000D01*
X98704285Y-200525000D02*
X98609047Y-200572619D01*
X98609047Y-200572619D02*
X98323333Y-200572619D01*
X98323333Y-200572619D02*
X98228095Y-200525000D01*
X98228095Y-200525000D02*
X98180476Y-200477380D01*
%TO.C,SW36*%
X107020476Y-178855000D02*
X107163333Y-178902619D01*
X107163333Y-178902619D02*
X107401428Y-178902619D01*
X107401428Y-178902619D02*
X107496666Y-178855000D01*
X107496666Y-178855000D02*
X107544285Y-178807380D01*
X107544285Y-178807380D02*
X107591904Y-178712142D01*
X107591904Y-178712142D02*
X107591904Y-178616904D01*
X107591904Y-178616904D02*
X107544285Y-178521666D01*
X107544285Y-178521666D02*
X107496666Y-178474047D01*
X107496666Y-178474047D02*
X107401428Y-178426428D01*
X107401428Y-178426428D02*
X107210952Y-178378809D01*
X107210952Y-178378809D02*
X107115714Y-178331190D01*
X107115714Y-178331190D02*
X107068095Y-178283571D01*
X107068095Y-178283571D02*
X107020476Y-178188333D01*
X107020476Y-178188333D02*
X107020476Y-178093095D01*
X107020476Y-178093095D02*
X107068095Y-177997857D01*
X107068095Y-177997857D02*
X107115714Y-177950238D01*
X107115714Y-177950238D02*
X107210952Y-177902619D01*
X107210952Y-177902619D02*
X107449047Y-177902619D01*
X107449047Y-177902619D02*
X107591904Y-177950238D01*
X107925238Y-177902619D02*
X108163333Y-178902619D01*
X108163333Y-178902619D02*
X108353809Y-178188333D01*
X108353809Y-178188333D02*
X108544285Y-178902619D01*
X108544285Y-178902619D02*
X108782381Y-177902619D01*
X109068095Y-177902619D02*
X109687142Y-177902619D01*
X109687142Y-177902619D02*
X109353809Y-178283571D01*
X109353809Y-178283571D02*
X109496666Y-178283571D01*
X109496666Y-178283571D02*
X109591904Y-178331190D01*
X109591904Y-178331190D02*
X109639523Y-178378809D01*
X109639523Y-178378809D02*
X109687142Y-178474047D01*
X109687142Y-178474047D02*
X109687142Y-178712142D01*
X109687142Y-178712142D02*
X109639523Y-178807380D01*
X109639523Y-178807380D02*
X109591904Y-178855000D01*
X109591904Y-178855000D02*
X109496666Y-178902619D01*
X109496666Y-178902619D02*
X109210952Y-178902619D01*
X109210952Y-178902619D02*
X109115714Y-178855000D01*
X109115714Y-178855000D02*
X109068095Y-178807380D01*
X110544285Y-177902619D02*
X110353809Y-177902619D01*
X110353809Y-177902619D02*
X110258571Y-177950238D01*
X110258571Y-177950238D02*
X110210952Y-177997857D01*
X110210952Y-177997857D02*
X110115714Y-178140714D01*
X110115714Y-178140714D02*
X110068095Y-178331190D01*
X110068095Y-178331190D02*
X110068095Y-178712142D01*
X110068095Y-178712142D02*
X110115714Y-178807380D01*
X110115714Y-178807380D02*
X110163333Y-178855000D01*
X110163333Y-178855000D02*
X110258571Y-178902619D01*
X110258571Y-178902619D02*
X110449047Y-178902619D01*
X110449047Y-178902619D02*
X110544285Y-178855000D01*
X110544285Y-178855000D02*
X110591904Y-178807380D01*
X110591904Y-178807380D02*
X110639523Y-178712142D01*
X110639523Y-178712142D02*
X110639523Y-178474047D01*
X110639523Y-178474047D02*
X110591904Y-178378809D01*
X110591904Y-178378809D02*
X110544285Y-178331190D01*
X110544285Y-178331190D02*
X110449047Y-178283571D01*
X110449047Y-178283571D02*
X110258571Y-178283571D01*
X110258571Y-178283571D02*
X110163333Y-178331190D01*
X110163333Y-178331190D02*
X110115714Y-178378809D01*
X110115714Y-178378809D02*
X110068095Y-178474047D01*
%TO.C,SW42*%
X83205000Y-201149523D02*
X83252619Y-201006666D01*
X83252619Y-201006666D02*
X83252619Y-200768571D01*
X83252619Y-200768571D02*
X83205000Y-200673333D01*
X83205000Y-200673333D02*
X83157380Y-200625714D01*
X83157380Y-200625714D02*
X83062142Y-200578095D01*
X83062142Y-200578095D02*
X82966904Y-200578095D01*
X82966904Y-200578095D02*
X82871666Y-200625714D01*
X82871666Y-200625714D02*
X82824047Y-200673333D01*
X82824047Y-200673333D02*
X82776428Y-200768571D01*
X82776428Y-200768571D02*
X82728809Y-200959047D01*
X82728809Y-200959047D02*
X82681190Y-201054285D01*
X82681190Y-201054285D02*
X82633571Y-201101904D01*
X82633571Y-201101904D02*
X82538333Y-201149523D01*
X82538333Y-201149523D02*
X82443095Y-201149523D01*
X82443095Y-201149523D02*
X82347857Y-201101904D01*
X82347857Y-201101904D02*
X82300238Y-201054285D01*
X82300238Y-201054285D02*
X82252619Y-200959047D01*
X82252619Y-200959047D02*
X82252619Y-200720952D01*
X82252619Y-200720952D02*
X82300238Y-200578095D01*
X82252619Y-200244761D02*
X83252619Y-200006666D01*
X83252619Y-200006666D02*
X82538333Y-199816190D01*
X82538333Y-199816190D02*
X83252619Y-199625714D01*
X83252619Y-199625714D02*
X82252619Y-199387619D01*
X82585952Y-198578095D02*
X83252619Y-198578095D01*
X82205000Y-198816190D02*
X82919285Y-199054285D01*
X82919285Y-199054285D02*
X82919285Y-198435238D01*
X82347857Y-198101904D02*
X82300238Y-198054285D01*
X82300238Y-198054285D02*
X82252619Y-197959047D01*
X82252619Y-197959047D02*
X82252619Y-197720952D01*
X82252619Y-197720952D02*
X82300238Y-197625714D01*
X82300238Y-197625714D02*
X82347857Y-197578095D01*
X82347857Y-197578095D02*
X82443095Y-197530476D01*
X82443095Y-197530476D02*
X82538333Y-197530476D01*
X82538333Y-197530476D02*
X82681190Y-197578095D01*
X82681190Y-197578095D02*
X83252619Y-198149523D01*
X83252619Y-198149523D02*
X83252619Y-197530476D01*
%TO.C,SW20*%
X86100476Y-151635000D02*
X86243333Y-151682619D01*
X86243333Y-151682619D02*
X86481428Y-151682619D01*
X86481428Y-151682619D02*
X86576666Y-151635000D01*
X86576666Y-151635000D02*
X86624285Y-151587380D01*
X86624285Y-151587380D02*
X86671904Y-151492142D01*
X86671904Y-151492142D02*
X86671904Y-151396904D01*
X86671904Y-151396904D02*
X86624285Y-151301666D01*
X86624285Y-151301666D02*
X86576666Y-151254047D01*
X86576666Y-151254047D02*
X86481428Y-151206428D01*
X86481428Y-151206428D02*
X86290952Y-151158809D01*
X86290952Y-151158809D02*
X86195714Y-151111190D01*
X86195714Y-151111190D02*
X86148095Y-151063571D01*
X86148095Y-151063571D02*
X86100476Y-150968333D01*
X86100476Y-150968333D02*
X86100476Y-150873095D01*
X86100476Y-150873095D02*
X86148095Y-150777857D01*
X86148095Y-150777857D02*
X86195714Y-150730238D01*
X86195714Y-150730238D02*
X86290952Y-150682619D01*
X86290952Y-150682619D02*
X86529047Y-150682619D01*
X86529047Y-150682619D02*
X86671904Y-150730238D01*
X87005238Y-150682619D02*
X87243333Y-151682619D01*
X87243333Y-151682619D02*
X87433809Y-150968333D01*
X87433809Y-150968333D02*
X87624285Y-151682619D01*
X87624285Y-151682619D02*
X87862381Y-150682619D01*
X88195714Y-150777857D02*
X88243333Y-150730238D01*
X88243333Y-150730238D02*
X88338571Y-150682619D01*
X88338571Y-150682619D02*
X88576666Y-150682619D01*
X88576666Y-150682619D02*
X88671904Y-150730238D01*
X88671904Y-150730238D02*
X88719523Y-150777857D01*
X88719523Y-150777857D02*
X88767142Y-150873095D01*
X88767142Y-150873095D02*
X88767142Y-150968333D01*
X88767142Y-150968333D02*
X88719523Y-151111190D01*
X88719523Y-151111190D02*
X88148095Y-151682619D01*
X88148095Y-151682619D02*
X88767142Y-151682619D01*
X89386190Y-150682619D02*
X89481428Y-150682619D01*
X89481428Y-150682619D02*
X89576666Y-150730238D01*
X89576666Y-150730238D02*
X89624285Y-150777857D01*
X89624285Y-150777857D02*
X89671904Y-150873095D01*
X89671904Y-150873095D02*
X89719523Y-151063571D01*
X89719523Y-151063571D02*
X89719523Y-151301666D01*
X89719523Y-151301666D02*
X89671904Y-151492142D01*
X89671904Y-151492142D02*
X89624285Y-151587380D01*
X89624285Y-151587380D02*
X89576666Y-151635000D01*
X89576666Y-151635000D02*
X89481428Y-151682619D01*
X89481428Y-151682619D02*
X89386190Y-151682619D01*
X89386190Y-151682619D02*
X89290952Y-151635000D01*
X89290952Y-151635000D02*
X89243333Y-151587380D01*
X89243333Y-151587380D02*
X89195714Y-151492142D01*
X89195714Y-151492142D02*
X89148095Y-151301666D01*
X89148095Y-151301666D02*
X89148095Y-151063571D01*
X89148095Y-151063571D02*
X89195714Y-150873095D01*
X89195714Y-150873095D02*
X89243333Y-150777857D01*
X89243333Y-150777857D02*
X89290952Y-150730238D01*
X89290952Y-150730238D02*
X89386190Y-150682619D01*
%TO.C,SW39*%
X93430476Y-192795000D02*
X93573333Y-192842619D01*
X93573333Y-192842619D02*
X93811428Y-192842619D01*
X93811428Y-192842619D02*
X93906666Y-192795000D01*
X93906666Y-192795000D02*
X93954285Y-192747380D01*
X93954285Y-192747380D02*
X94001904Y-192652142D01*
X94001904Y-192652142D02*
X94001904Y-192556904D01*
X94001904Y-192556904D02*
X93954285Y-192461666D01*
X93954285Y-192461666D02*
X93906666Y-192414047D01*
X93906666Y-192414047D02*
X93811428Y-192366428D01*
X93811428Y-192366428D02*
X93620952Y-192318809D01*
X93620952Y-192318809D02*
X93525714Y-192271190D01*
X93525714Y-192271190D02*
X93478095Y-192223571D01*
X93478095Y-192223571D02*
X93430476Y-192128333D01*
X93430476Y-192128333D02*
X93430476Y-192033095D01*
X93430476Y-192033095D02*
X93478095Y-191937857D01*
X93478095Y-191937857D02*
X93525714Y-191890238D01*
X93525714Y-191890238D02*
X93620952Y-191842619D01*
X93620952Y-191842619D02*
X93859047Y-191842619D01*
X93859047Y-191842619D02*
X94001904Y-191890238D01*
X94335238Y-191842619D02*
X94573333Y-192842619D01*
X94573333Y-192842619D02*
X94763809Y-192128333D01*
X94763809Y-192128333D02*
X94954285Y-192842619D01*
X94954285Y-192842619D02*
X95192381Y-191842619D01*
X95478095Y-191842619D02*
X96097142Y-191842619D01*
X96097142Y-191842619D02*
X95763809Y-192223571D01*
X95763809Y-192223571D02*
X95906666Y-192223571D01*
X95906666Y-192223571D02*
X96001904Y-192271190D01*
X96001904Y-192271190D02*
X96049523Y-192318809D01*
X96049523Y-192318809D02*
X96097142Y-192414047D01*
X96097142Y-192414047D02*
X96097142Y-192652142D01*
X96097142Y-192652142D02*
X96049523Y-192747380D01*
X96049523Y-192747380D02*
X96001904Y-192795000D01*
X96001904Y-192795000D02*
X95906666Y-192842619D01*
X95906666Y-192842619D02*
X95620952Y-192842619D01*
X95620952Y-192842619D02*
X95525714Y-192795000D01*
X95525714Y-192795000D02*
X95478095Y-192747380D01*
X96573333Y-192842619D02*
X96763809Y-192842619D01*
X96763809Y-192842619D02*
X96859047Y-192795000D01*
X96859047Y-192795000D02*
X96906666Y-192747380D01*
X96906666Y-192747380D02*
X97001904Y-192604523D01*
X97001904Y-192604523D02*
X97049523Y-192414047D01*
X97049523Y-192414047D02*
X97049523Y-192033095D01*
X97049523Y-192033095D02*
X97001904Y-191937857D01*
X97001904Y-191937857D02*
X96954285Y-191890238D01*
X96954285Y-191890238D02*
X96859047Y-191842619D01*
X96859047Y-191842619D02*
X96668571Y-191842619D01*
X96668571Y-191842619D02*
X96573333Y-191890238D01*
X96573333Y-191890238D02*
X96525714Y-191937857D01*
X96525714Y-191937857D02*
X96478095Y-192033095D01*
X96478095Y-192033095D02*
X96478095Y-192271190D01*
X96478095Y-192271190D02*
X96525714Y-192366428D01*
X96525714Y-192366428D02*
X96573333Y-192414047D01*
X96573333Y-192414047D02*
X96668571Y-192461666D01*
X96668571Y-192461666D02*
X96859047Y-192461666D01*
X96859047Y-192461666D02*
X96954285Y-192414047D01*
X96954285Y-192414047D02*
X97001904Y-192366428D01*
X97001904Y-192366428D02*
X97049523Y-192271190D01*
%TO.C,SW47*%
X113345000Y-207989523D02*
X113392619Y-207846666D01*
X113392619Y-207846666D02*
X113392619Y-207608571D01*
X113392619Y-207608571D02*
X113345000Y-207513333D01*
X113345000Y-207513333D02*
X113297380Y-207465714D01*
X113297380Y-207465714D02*
X113202142Y-207418095D01*
X113202142Y-207418095D02*
X113106904Y-207418095D01*
X113106904Y-207418095D02*
X113011666Y-207465714D01*
X113011666Y-207465714D02*
X112964047Y-207513333D01*
X112964047Y-207513333D02*
X112916428Y-207608571D01*
X112916428Y-207608571D02*
X112868809Y-207799047D01*
X112868809Y-207799047D02*
X112821190Y-207894285D01*
X112821190Y-207894285D02*
X112773571Y-207941904D01*
X112773571Y-207941904D02*
X112678333Y-207989523D01*
X112678333Y-207989523D02*
X112583095Y-207989523D01*
X112583095Y-207989523D02*
X112487857Y-207941904D01*
X112487857Y-207941904D02*
X112440238Y-207894285D01*
X112440238Y-207894285D02*
X112392619Y-207799047D01*
X112392619Y-207799047D02*
X112392619Y-207560952D01*
X112392619Y-207560952D02*
X112440238Y-207418095D01*
X112392619Y-207084761D02*
X113392619Y-206846666D01*
X113392619Y-206846666D02*
X112678333Y-206656190D01*
X112678333Y-206656190D02*
X113392619Y-206465714D01*
X113392619Y-206465714D02*
X112392619Y-206227619D01*
X112725952Y-205418095D02*
X113392619Y-205418095D01*
X112345000Y-205656190D02*
X113059285Y-205894285D01*
X113059285Y-205894285D02*
X113059285Y-205275238D01*
X112392619Y-204989523D02*
X112392619Y-204322857D01*
X112392619Y-204322857D02*
X113392619Y-204751428D01*
%TO.C,SW8*%
X121816667Y-69655000D02*
X121959524Y-69702619D01*
X121959524Y-69702619D02*
X122197619Y-69702619D01*
X122197619Y-69702619D02*
X122292857Y-69655000D01*
X122292857Y-69655000D02*
X122340476Y-69607380D01*
X122340476Y-69607380D02*
X122388095Y-69512142D01*
X122388095Y-69512142D02*
X122388095Y-69416904D01*
X122388095Y-69416904D02*
X122340476Y-69321666D01*
X122340476Y-69321666D02*
X122292857Y-69274047D01*
X122292857Y-69274047D02*
X122197619Y-69226428D01*
X122197619Y-69226428D02*
X122007143Y-69178809D01*
X122007143Y-69178809D02*
X121911905Y-69131190D01*
X121911905Y-69131190D02*
X121864286Y-69083571D01*
X121864286Y-69083571D02*
X121816667Y-68988333D01*
X121816667Y-68988333D02*
X121816667Y-68893095D01*
X121816667Y-68893095D02*
X121864286Y-68797857D01*
X121864286Y-68797857D02*
X121911905Y-68750238D01*
X121911905Y-68750238D02*
X122007143Y-68702619D01*
X122007143Y-68702619D02*
X122245238Y-68702619D01*
X122245238Y-68702619D02*
X122388095Y-68750238D01*
X122721429Y-68702619D02*
X122959524Y-69702619D01*
X122959524Y-69702619D02*
X123150000Y-68988333D01*
X123150000Y-68988333D02*
X123340476Y-69702619D01*
X123340476Y-69702619D02*
X123578572Y-68702619D01*
X124102381Y-69131190D02*
X124007143Y-69083571D01*
X124007143Y-69083571D02*
X123959524Y-69035952D01*
X123959524Y-69035952D02*
X123911905Y-68940714D01*
X123911905Y-68940714D02*
X123911905Y-68893095D01*
X123911905Y-68893095D02*
X123959524Y-68797857D01*
X123959524Y-68797857D02*
X124007143Y-68750238D01*
X124007143Y-68750238D02*
X124102381Y-68702619D01*
X124102381Y-68702619D02*
X124292857Y-68702619D01*
X124292857Y-68702619D02*
X124388095Y-68750238D01*
X124388095Y-68750238D02*
X124435714Y-68797857D01*
X124435714Y-68797857D02*
X124483333Y-68893095D01*
X124483333Y-68893095D02*
X124483333Y-68940714D01*
X124483333Y-68940714D02*
X124435714Y-69035952D01*
X124435714Y-69035952D02*
X124388095Y-69083571D01*
X124388095Y-69083571D02*
X124292857Y-69131190D01*
X124292857Y-69131190D02*
X124102381Y-69131190D01*
X124102381Y-69131190D02*
X124007143Y-69178809D01*
X124007143Y-69178809D02*
X123959524Y-69226428D01*
X123959524Y-69226428D02*
X123911905Y-69321666D01*
X123911905Y-69321666D02*
X123911905Y-69512142D01*
X123911905Y-69512142D02*
X123959524Y-69607380D01*
X123959524Y-69607380D02*
X124007143Y-69655000D01*
X124007143Y-69655000D02*
X124102381Y-69702619D01*
X124102381Y-69702619D02*
X124292857Y-69702619D01*
X124292857Y-69702619D02*
X124388095Y-69655000D01*
X124388095Y-69655000D02*
X124435714Y-69607380D01*
X124435714Y-69607380D02*
X124483333Y-69512142D01*
X124483333Y-69512142D02*
X124483333Y-69321666D01*
X124483333Y-69321666D02*
X124435714Y-69226428D01*
X124435714Y-69226428D02*
X124388095Y-69178809D01*
X124388095Y-69178809D02*
X124292857Y-69131190D01*
%TO.C,SW53*%
X110860476Y-224795000D02*
X111003333Y-224842619D01*
X111003333Y-224842619D02*
X111241428Y-224842619D01*
X111241428Y-224842619D02*
X111336666Y-224795000D01*
X111336666Y-224795000D02*
X111384285Y-224747380D01*
X111384285Y-224747380D02*
X111431904Y-224652142D01*
X111431904Y-224652142D02*
X111431904Y-224556904D01*
X111431904Y-224556904D02*
X111384285Y-224461666D01*
X111384285Y-224461666D02*
X111336666Y-224414047D01*
X111336666Y-224414047D02*
X111241428Y-224366428D01*
X111241428Y-224366428D02*
X111050952Y-224318809D01*
X111050952Y-224318809D02*
X110955714Y-224271190D01*
X110955714Y-224271190D02*
X110908095Y-224223571D01*
X110908095Y-224223571D02*
X110860476Y-224128333D01*
X110860476Y-224128333D02*
X110860476Y-224033095D01*
X110860476Y-224033095D02*
X110908095Y-223937857D01*
X110908095Y-223937857D02*
X110955714Y-223890238D01*
X110955714Y-223890238D02*
X111050952Y-223842619D01*
X111050952Y-223842619D02*
X111289047Y-223842619D01*
X111289047Y-223842619D02*
X111431904Y-223890238D01*
X111765238Y-223842619D02*
X112003333Y-224842619D01*
X112003333Y-224842619D02*
X112193809Y-224128333D01*
X112193809Y-224128333D02*
X112384285Y-224842619D01*
X112384285Y-224842619D02*
X112622381Y-223842619D01*
X113479523Y-223842619D02*
X113003333Y-223842619D01*
X113003333Y-223842619D02*
X112955714Y-224318809D01*
X112955714Y-224318809D02*
X113003333Y-224271190D01*
X113003333Y-224271190D02*
X113098571Y-224223571D01*
X113098571Y-224223571D02*
X113336666Y-224223571D01*
X113336666Y-224223571D02*
X113431904Y-224271190D01*
X113431904Y-224271190D02*
X113479523Y-224318809D01*
X113479523Y-224318809D02*
X113527142Y-224414047D01*
X113527142Y-224414047D02*
X113527142Y-224652142D01*
X113527142Y-224652142D02*
X113479523Y-224747380D01*
X113479523Y-224747380D02*
X113431904Y-224795000D01*
X113431904Y-224795000D02*
X113336666Y-224842619D01*
X113336666Y-224842619D02*
X113098571Y-224842619D01*
X113098571Y-224842619D02*
X113003333Y-224795000D01*
X113003333Y-224795000D02*
X112955714Y-224747380D01*
X113860476Y-223842619D02*
X114479523Y-223842619D01*
X114479523Y-223842619D02*
X114146190Y-224223571D01*
X114146190Y-224223571D02*
X114289047Y-224223571D01*
X114289047Y-224223571D02*
X114384285Y-224271190D01*
X114384285Y-224271190D02*
X114431904Y-224318809D01*
X114431904Y-224318809D02*
X114479523Y-224414047D01*
X114479523Y-224414047D02*
X114479523Y-224652142D01*
X114479523Y-224652142D02*
X114431904Y-224747380D01*
X114431904Y-224747380D02*
X114384285Y-224795000D01*
X114384285Y-224795000D02*
X114289047Y-224842619D01*
X114289047Y-224842619D02*
X114003333Y-224842619D01*
X114003333Y-224842619D02*
X113908095Y-224795000D01*
X113908095Y-224795000D02*
X113860476Y-224747380D01*
%TO.C,SW3*%
X109566667Y-57565000D02*
X109709524Y-57612619D01*
X109709524Y-57612619D02*
X109947619Y-57612619D01*
X109947619Y-57612619D02*
X110042857Y-57565000D01*
X110042857Y-57565000D02*
X110090476Y-57517380D01*
X110090476Y-57517380D02*
X110138095Y-57422142D01*
X110138095Y-57422142D02*
X110138095Y-57326904D01*
X110138095Y-57326904D02*
X110090476Y-57231666D01*
X110090476Y-57231666D02*
X110042857Y-57184047D01*
X110042857Y-57184047D02*
X109947619Y-57136428D01*
X109947619Y-57136428D02*
X109757143Y-57088809D01*
X109757143Y-57088809D02*
X109661905Y-57041190D01*
X109661905Y-57041190D02*
X109614286Y-56993571D01*
X109614286Y-56993571D02*
X109566667Y-56898333D01*
X109566667Y-56898333D02*
X109566667Y-56803095D01*
X109566667Y-56803095D02*
X109614286Y-56707857D01*
X109614286Y-56707857D02*
X109661905Y-56660238D01*
X109661905Y-56660238D02*
X109757143Y-56612619D01*
X109757143Y-56612619D02*
X109995238Y-56612619D01*
X109995238Y-56612619D02*
X110138095Y-56660238D01*
X110471429Y-56612619D02*
X110709524Y-57612619D01*
X110709524Y-57612619D02*
X110900000Y-56898333D01*
X110900000Y-56898333D02*
X111090476Y-57612619D01*
X111090476Y-57612619D02*
X111328572Y-56612619D01*
X111614286Y-56612619D02*
X112233333Y-56612619D01*
X112233333Y-56612619D02*
X111900000Y-56993571D01*
X111900000Y-56993571D02*
X112042857Y-56993571D01*
X112042857Y-56993571D02*
X112138095Y-57041190D01*
X112138095Y-57041190D02*
X112185714Y-57088809D01*
X112185714Y-57088809D02*
X112233333Y-57184047D01*
X112233333Y-57184047D02*
X112233333Y-57422142D01*
X112233333Y-57422142D02*
X112185714Y-57517380D01*
X112185714Y-57517380D02*
X112138095Y-57565000D01*
X112138095Y-57565000D02*
X112042857Y-57612619D01*
X112042857Y-57612619D02*
X111757143Y-57612619D01*
X111757143Y-57612619D02*
X111661905Y-57565000D01*
X111661905Y-57565000D02*
X111614286Y-57517380D01*
%TO.C,SW11*%
X119940476Y-102915000D02*
X120083333Y-102962619D01*
X120083333Y-102962619D02*
X120321428Y-102962619D01*
X120321428Y-102962619D02*
X120416666Y-102915000D01*
X120416666Y-102915000D02*
X120464285Y-102867380D01*
X120464285Y-102867380D02*
X120511904Y-102772142D01*
X120511904Y-102772142D02*
X120511904Y-102676904D01*
X120511904Y-102676904D02*
X120464285Y-102581666D01*
X120464285Y-102581666D02*
X120416666Y-102534047D01*
X120416666Y-102534047D02*
X120321428Y-102486428D01*
X120321428Y-102486428D02*
X120130952Y-102438809D01*
X120130952Y-102438809D02*
X120035714Y-102391190D01*
X120035714Y-102391190D02*
X119988095Y-102343571D01*
X119988095Y-102343571D02*
X119940476Y-102248333D01*
X119940476Y-102248333D02*
X119940476Y-102153095D01*
X119940476Y-102153095D02*
X119988095Y-102057857D01*
X119988095Y-102057857D02*
X120035714Y-102010238D01*
X120035714Y-102010238D02*
X120130952Y-101962619D01*
X120130952Y-101962619D02*
X120369047Y-101962619D01*
X120369047Y-101962619D02*
X120511904Y-102010238D01*
X120845238Y-101962619D02*
X121083333Y-102962619D01*
X121083333Y-102962619D02*
X121273809Y-102248333D01*
X121273809Y-102248333D02*
X121464285Y-102962619D01*
X121464285Y-102962619D02*
X121702381Y-101962619D01*
X122607142Y-102962619D02*
X122035714Y-102962619D01*
X122321428Y-102962619D02*
X122321428Y-101962619D01*
X122321428Y-101962619D02*
X122226190Y-102105476D01*
X122226190Y-102105476D02*
X122130952Y-102200714D01*
X122130952Y-102200714D02*
X122035714Y-102248333D01*
X123559523Y-102962619D02*
X122988095Y-102962619D01*
X123273809Y-102962619D02*
X123273809Y-101962619D01*
X123273809Y-101962619D02*
X123178571Y-102105476D01*
X123178571Y-102105476D02*
X123083333Y-102200714D01*
X123083333Y-102200714D02*
X122988095Y-102248333D01*
%TO.C,SW32*%
X105330476Y-175015000D02*
X105473333Y-175062619D01*
X105473333Y-175062619D02*
X105711428Y-175062619D01*
X105711428Y-175062619D02*
X105806666Y-175015000D01*
X105806666Y-175015000D02*
X105854285Y-174967380D01*
X105854285Y-174967380D02*
X105901904Y-174872142D01*
X105901904Y-174872142D02*
X105901904Y-174776904D01*
X105901904Y-174776904D02*
X105854285Y-174681666D01*
X105854285Y-174681666D02*
X105806666Y-174634047D01*
X105806666Y-174634047D02*
X105711428Y-174586428D01*
X105711428Y-174586428D02*
X105520952Y-174538809D01*
X105520952Y-174538809D02*
X105425714Y-174491190D01*
X105425714Y-174491190D02*
X105378095Y-174443571D01*
X105378095Y-174443571D02*
X105330476Y-174348333D01*
X105330476Y-174348333D02*
X105330476Y-174253095D01*
X105330476Y-174253095D02*
X105378095Y-174157857D01*
X105378095Y-174157857D02*
X105425714Y-174110238D01*
X105425714Y-174110238D02*
X105520952Y-174062619D01*
X105520952Y-174062619D02*
X105759047Y-174062619D01*
X105759047Y-174062619D02*
X105901904Y-174110238D01*
X106235238Y-174062619D02*
X106473333Y-175062619D01*
X106473333Y-175062619D02*
X106663809Y-174348333D01*
X106663809Y-174348333D02*
X106854285Y-175062619D01*
X106854285Y-175062619D02*
X107092381Y-174062619D01*
X107378095Y-174062619D02*
X107997142Y-174062619D01*
X107997142Y-174062619D02*
X107663809Y-174443571D01*
X107663809Y-174443571D02*
X107806666Y-174443571D01*
X107806666Y-174443571D02*
X107901904Y-174491190D01*
X107901904Y-174491190D02*
X107949523Y-174538809D01*
X107949523Y-174538809D02*
X107997142Y-174634047D01*
X107997142Y-174634047D02*
X107997142Y-174872142D01*
X107997142Y-174872142D02*
X107949523Y-174967380D01*
X107949523Y-174967380D02*
X107901904Y-175015000D01*
X107901904Y-175015000D02*
X107806666Y-175062619D01*
X107806666Y-175062619D02*
X107520952Y-175062619D01*
X107520952Y-175062619D02*
X107425714Y-175015000D01*
X107425714Y-175015000D02*
X107378095Y-174967380D01*
X108378095Y-174157857D02*
X108425714Y-174110238D01*
X108425714Y-174110238D02*
X108520952Y-174062619D01*
X108520952Y-174062619D02*
X108759047Y-174062619D01*
X108759047Y-174062619D02*
X108854285Y-174110238D01*
X108854285Y-174110238D02*
X108901904Y-174157857D01*
X108901904Y-174157857D02*
X108949523Y-174253095D01*
X108949523Y-174253095D02*
X108949523Y-174348333D01*
X108949523Y-174348333D02*
X108901904Y-174491190D01*
X108901904Y-174491190D02*
X108330476Y-175062619D01*
X108330476Y-175062619D02*
X108949523Y-175062619D01*
%TO.C,SW9*%
X119685000Y-80296667D02*
X119637380Y-80439524D01*
X119637380Y-80439524D02*
X119637380Y-80677619D01*
X119637380Y-80677619D02*
X119685000Y-80772857D01*
X119685000Y-80772857D02*
X119732619Y-80820476D01*
X119732619Y-80820476D02*
X119827857Y-80868095D01*
X119827857Y-80868095D02*
X119923095Y-80868095D01*
X119923095Y-80868095D02*
X120018333Y-80820476D01*
X120018333Y-80820476D02*
X120065952Y-80772857D01*
X120065952Y-80772857D02*
X120113571Y-80677619D01*
X120113571Y-80677619D02*
X120161190Y-80487143D01*
X120161190Y-80487143D02*
X120208809Y-80391905D01*
X120208809Y-80391905D02*
X120256428Y-80344286D01*
X120256428Y-80344286D02*
X120351666Y-80296667D01*
X120351666Y-80296667D02*
X120446904Y-80296667D01*
X120446904Y-80296667D02*
X120542142Y-80344286D01*
X120542142Y-80344286D02*
X120589761Y-80391905D01*
X120589761Y-80391905D02*
X120637380Y-80487143D01*
X120637380Y-80487143D02*
X120637380Y-80725238D01*
X120637380Y-80725238D02*
X120589761Y-80868095D01*
X120637380Y-81201429D02*
X119637380Y-81439524D01*
X119637380Y-81439524D02*
X120351666Y-81630000D01*
X120351666Y-81630000D02*
X119637380Y-81820476D01*
X119637380Y-81820476D02*
X120637380Y-82058572D01*
X119637380Y-82487143D02*
X119637380Y-82677619D01*
X119637380Y-82677619D02*
X119685000Y-82772857D01*
X119685000Y-82772857D02*
X119732619Y-82820476D01*
X119732619Y-82820476D02*
X119875476Y-82915714D01*
X119875476Y-82915714D02*
X120065952Y-82963333D01*
X120065952Y-82963333D02*
X120446904Y-82963333D01*
X120446904Y-82963333D02*
X120542142Y-82915714D01*
X120542142Y-82915714D02*
X120589761Y-82868095D01*
X120589761Y-82868095D02*
X120637380Y-82772857D01*
X120637380Y-82772857D02*
X120637380Y-82582381D01*
X120637380Y-82582381D02*
X120589761Y-82487143D01*
X120589761Y-82487143D02*
X120542142Y-82439524D01*
X120542142Y-82439524D02*
X120446904Y-82391905D01*
X120446904Y-82391905D02*
X120208809Y-82391905D01*
X120208809Y-82391905D02*
X120113571Y-82439524D01*
X120113571Y-82439524D02*
X120065952Y-82487143D01*
X120065952Y-82487143D02*
X120018333Y-82582381D01*
X120018333Y-82582381D02*
X120018333Y-82772857D01*
X120018333Y-82772857D02*
X120065952Y-82868095D01*
X120065952Y-82868095D02*
X120113571Y-82915714D01*
X120113571Y-82915714D02*
X120208809Y-82963333D01*
%TO.C,J1*%
X102856666Y-83042619D02*
X102856666Y-83756904D01*
X102856666Y-83756904D02*
X102809047Y-83899761D01*
X102809047Y-83899761D02*
X102713809Y-83995000D01*
X102713809Y-83995000D02*
X102570952Y-84042619D01*
X102570952Y-84042619D02*
X102475714Y-84042619D01*
X103856666Y-84042619D02*
X103285238Y-84042619D01*
X103570952Y-84042619D02*
X103570952Y-83042619D01*
X103570952Y-83042619D02*
X103475714Y-83185476D01*
X103475714Y-83185476D02*
X103380476Y-83280714D01*
X103380476Y-83280714D02*
X103285238Y-83328333D01*
X106639523Y-77382619D02*
X106068095Y-77382619D01*
X106353809Y-77382619D02*
X106353809Y-76382619D01*
X106353809Y-76382619D02*
X106258571Y-76525476D01*
X106258571Y-76525476D02*
X106163333Y-76620714D01*
X106163333Y-76620714D02*
X106068095Y-76668333D01*
X107020476Y-76477857D02*
X107068095Y-76430238D01*
X107068095Y-76430238D02*
X107163333Y-76382619D01*
X107163333Y-76382619D02*
X107401428Y-76382619D01*
X107401428Y-76382619D02*
X107496666Y-76430238D01*
X107496666Y-76430238D02*
X107544285Y-76477857D01*
X107544285Y-76477857D02*
X107591904Y-76573095D01*
X107591904Y-76573095D02*
X107591904Y-76668333D01*
X107591904Y-76668333D02*
X107544285Y-76811190D01*
X107544285Y-76811190D02*
X106972857Y-77382619D01*
X106972857Y-77382619D02*
X107591904Y-77382619D01*
X92515714Y-77482619D02*
X91944286Y-77482619D01*
X92230000Y-77482619D02*
X92230000Y-76482619D01*
X92230000Y-76482619D02*
X92134762Y-76625476D01*
X92134762Y-76625476D02*
X92039524Y-76720714D01*
X92039524Y-76720714D02*
X91944286Y-76768333D01*
D11*
X84224706Y-59063131D02*
X84224706Y-107176868D01*
X84224706Y-59063131D02*
X118995295Y-59063131D01*
X84224706Y-107176868D02*
X118995295Y-107176868D01*
X118995295Y-107176868D02*
X118995295Y-59063131D01*
X101610000Y-83120000D02*
X101610000Y-83120000D01*
X101610000Y-83120000D02*
X101610000Y-83120000D01*
X101610000Y-83120000D02*
X101610000Y-83120000D01*
X101610000Y-83120000D02*
X101610000Y-83120000D01*
%TD*%
D12*
X124957787Y-185550035D02*
X123587431Y-185661847D01*
X88100000Y-229900000D02*
X90846015Y-231585032D01*
X126614331Y-101764031D02*
X125394275Y-102951174D01*
X122982904Y-142392064D02*
X121880997Y-143156584D01*
X90846015Y-231585032D02*
X93049943Y-232732052D01*
X79790067Y-124119007D02*
X80249492Y-142392086D01*
X81610490Y-122376435D02*
X82195356Y-122930672D01*
X78682146Y-119979309D02*
X79732178Y-120083292D01*
X80181413Y-123706012D02*
X79790067Y-124119007D01*
X116755233Y-52527641D02*
X119191583Y-52658007D01*
X77125916Y-70630799D02*
X76778999Y-72341714D01*
X79645011Y-188761946D02*
X79645014Y-194797097D01*
X126106406Y-70630774D02*
X126453324Y-72341688D01*
X110182546Y-232732043D02*
X107835432Y-233537464D01*
X82195356Y-122930672D02*
X81930711Y-123611619D01*
X79645010Y-185661869D02*
X79645011Y-188761946D01*
X80752433Y-58893891D02*
X79929816Y-61009855D01*
X121621885Y-122376414D02*
X121037020Y-122930652D01*
X126504120Y-194797073D02*
X125714891Y-205892113D01*
X122150389Y-152254660D02*
X122765104Y-152609991D01*
X123442310Y-124118985D02*
X122982904Y-142392064D01*
X122765104Y-152609991D02*
X123053233Y-156057012D01*
X117161677Y-227399643D02*
X115132486Y-229899986D01*
D13*
X127000000Y-74250000D02*
X126453324Y-72341688D01*
D12*
X119286066Y-54613064D02*
X119524628Y-54812781D01*
X81351404Y-151607846D02*
X81082017Y-152254681D01*
X123500195Y-120083270D02*
X123376465Y-122376413D01*
X84040720Y-52658025D02*
X83946239Y-54613082D01*
X125792277Y-179223518D02*
X126777893Y-185401526D01*
X80467302Y-152610013D02*
X80179177Y-156057034D01*
X108677965Y-42361801D02*
X110141254Y-43476010D01*
X123897293Y-164328740D02*
X124480692Y-168914319D01*
X79335126Y-164328763D02*
X78751731Y-168914342D01*
D13*
X78250000Y-120000000D02*
X78682146Y-119979309D01*
D12*
X78751731Y-168914342D02*
X78235340Y-172973265D01*
X93049943Y-232732052D02*
X95397058Y-233537471D01*
X108677963Y-40020535D02*
X108677965Y-42361801D01*
X125394275Y-102951174D02*
X123572997Y-104183283D01*
X107835432Y-233537464D02*
X101616245Y-233537467D01*
X78235340Y-172973265D02*
X77440157Y-179223543D01*
X81082017Y-152254681D02*
X80467302Y-152610013D01*
X124550227Y-119979285D02*
X123500195Y-120083270D01*
X123587431Y-185661847D02*
X123587432Y-188761924D01*
X121037020Y-122930652D02*
X121301666Y-123611599D01*
X77517571Y-205892138D02*
X78693579Y-210081346D01*
X124538887Y-210081323D02*
X122912565Y-216716267D01*
X83106505Y-223161241D02*
X86070807Y-227399659D01*
X123302495Y-61009832D02*
X123867456Y-62463038D01*
X86477070Y-52527656D02*
X84040720Y-52658025D01*
X79645014Y-194797097D02*
X76728330Y-194797099D01*
X79732339Y-160436057D02*
X79335126Y-164328763D01*
X121880997Y-143156584D02*
X121881002Y-151607825D01*
X78103818Y-66581731D02*
X77677520Y-68346849D01*
X106378765Y-37975933D02*
X101616144Y-37975936D01*
X96853523Y-37975938D02*
X94554327Y-40020543D01*
X79855910Y-122376436D02*
X81610490Y-122376435D01*
X80319908Y-216716289D02*
X83106505Y-223161241D01*
X79732178Y-120083292D02*
X79855910Y-122376436D01*
X82595561Y-54816856D02*
X81566130Y-56800873D01*
X79929816Y-61009855D02*
X79364858Y-62463061D01*
X79659359Y-104183305D02*
X79659364Y-113904283D01*
X78821700Y-64357063D02*
X78103818Y-66581731D01*
X83946239Y-54613082D02*
X83707678Y-54812800D01*
X94554328Y-42361808D02*
X93091039Y-43476018D01*
X76454547Y-185401552D02*
X78274654Y-185550059D01*
X94554327Y-40020543D02*
X94554328Y-42361808D01*
D13*
X127000000Y-101250000D02*
X127000000Y-74250000D01*
X78250000Y-114000000D02*
X78250000Y-120000000D01*
D12*
X81930711Y-123611619D02*
X80181413Y-123706012D01*
X125714891Y-205892113D02*
X124538887Y-210081323D01*
X96853523Y-37975938D02*
X101616144Y-37975936D01*
X126777893Y-185401526D02*
X124957787Y-185550035D01*
D13*
X124550224Y-113904260D02*
X125000000Y-114500000D01*
D12*
X76728330Y-194797099D02*
X77517571Y-205892138D01*
X115132486Y-229899986D02*
X112386473Y-231585020D01*
X123867456Y-62463038D02*
X124410615Y-64357040D01*
D13*
X78682143Y-113904284D02*
X78250000Y-114000000D01*
D12*
X119191583Y-52658007D02*
X119286066Y-54613064D01*
X76778999Y-72341714D02*
X76618023Y-101764057D01*
X81566130Y-56800873D02*
X80752433Y-58893891D01*
X86477068Y-49013081D02*
X86477070Y-52527656D01*
X80179177Y-156057034D02*
X79732339Y-160436057D01*
X79659364Y-113904283D02*
X78682143Y-113904284D01*
X120636745Y-54816837D02*
X121666177Y-56800853D01*
X124997087Y-172973241D02*
X125792277Y-179223518D01*
D13*
X125000000Y-119500000D02*
X124550227Y-119979285D01*
D12*
X125128499Y-66581706D02*
X125554800Y-68346824D01*
X123587436Y-194797074D02*
X126504120Y-194797073D01*
X78693579Y-210081346D02*
X80319908Y-216716289D01*
X80249492Y-142392086D02*
X81351399Y-143156605D01*
X123050963Y-123705990D02*
X123442310Y-124118985D01*
X121881002Y-151607825D02*
X122150389Y-152254660D01*
X77838080Y-102951198D02*
X79659359Y-104183305D01*
X123376465Y-122376413D02*
X121621885Y-122376414D01*
X123572997Y-104183283D02*
X123573002Y-113904260D01*
X116755231Y-49013065D02*
X116755233Y-52527641D01*
X119524628Y-54812781D02*
X120636745Y-54816837D01*
X125554800Y-68346824D02*
X126106406Y-70630774D01*
X86070807Y-227399659D02*
X88100000Y-229900000D01*
X121666177Y-56800853D02*
X122479876Y-58893870D01*
D13*
X125000000Y-114500000D02*
X125000000Y-119500000D01*
D12*
X93091039Y-43476018D02*
X86477068Y-49013081D01*
X112386473Y-231585020D02*
X110182546Y-232732043D01*
X120125975Y-223161222D02*
X117161677Y-227399643D01*
X106378765Y-37975933D02*
X108677963Y-40020535D01*
X123573002Y-113904260D02*
X124550224Y-113904260D01*
X121301666Y-123611599D02*
X123050963Y-123705990D01*
X79364858Y-62463061D02*
X78821700Y-64357063D01*
X78274654Y-185550059D02*
X79645010Y-185661869D01*
X83707678Y-54812800D02*
X82595561Y-54816856D01*
X77677520Y-68346849D02*
X77125916Y-70630799D01*
X124410615Y-64357040D02*
X125128499Y-66581706D01*
X123053233Y-156057012D02*
X123500075Y-160436035D01*
X124480692Y-168914319D02*
X124997087Y-172973241D01*
X122479876Y-58893870D02*
X123302495Y-61009832D01*
X110141254Y-43476010D02*
X116755231Y-49013065D01*
D13*
X126614331Y-101764031D02*
X127000000Y-101250000D01*
D12*
X76618023Y-101764057D02*
X77838080Y-102951198D01*
X81351399Y-143156605D02*
X81351404Y-151607846D01*
X95397058Y-233537471D02*
X101616245Y-233537467D01*
X123587432Y-188761924D02*
X123587436Y-194797074D01*
X123500075Y-160436035D02*
X123897293Y-164328740D01*
X77440157Y-179223543D02*
X76454547Y-185401552D01*
X122912565Y-216716267D02*
X120125975Y-223161222D01*
M02*
