M48
; DRILL file {KiCad 7.0.2} date Fri Jun 14 10:06:34 2024
; FORMAT={-:-/ absolute / inch / decimal}
; #@! TF.CreationDate,2024-06-14T10:06:34-04:00
; #@! TF.GenerationSoftware,Kicad,Pcbnew,7.0.2
; #@! TF.FileFunction,Plated,1,2,PTH
FMAT,2
INCH
; #@! TA.AperFunction,Plated,PTH,ViaDrill
T1C0.0157
; #@! TA.AperFunction,Plated,PTH,ComponentDrill
T2C0.0394
%
G90
G05
T1
X3.1102Y-2.8642
X3.1116Y-4.519
X3.1147Y-4.0212
X3.1393Y-3.8633
X3.1427Y-4.0556
X3.1483Y-3.2429
X3.1543Y-3.5416
X3.1605Y-4.5835
X3.1802Y-3.7934
X3.1988Y-7.6378
X3.2106Y-4.752
X3.2175Y-5.2343
X3.2182Y-2.6018
X3.2185Y-2.9724
X3.2283Y-3.3465
X3.2343Y-5.4843
X3.2367Y-3.7781
X3.2372Y-5.15
X3.2382Y-3.2677
X3.2382Y-3.4744
X3.2382Y-3.6516
X3.2431Y-5.3067
X3.2483Y-7.6673
X3.25Y-5.563
X3.2529Y-4.3504
X3.253Y-4.2008
X3.2677Y-8.6122
X3.2776Y-3.1693
X3.2776Y-4.4606
X3.2776Y-5.7087
X3.2835Y-2.9685
X3.2874Y-3.8878
X3.2946Y-7.3071
X3.3012Y-4.8425
X3.3035Y-7.2079
X3.3071Y-7.5787
X3.3071Y-7.7067
X3.316Y-6.0433
X3.3169Y-5.6102
X3.3175Y-4.3401
X3.3179Y-4.2913
X3.3238Y-5.501
X3.3268Y-3.3071
X3.3277Y-7.4648
X3.3366Y-8.4547
X3.3465Y-6.7913
X3.3494Y-4.8819
X3.3563Y-7.5787
X3.367Y-5.0784
X3.3712Y-6.676
X3.3748Y-5.117
X3.376Y-2.5984
X3.376Y-5.5472
X3.376Y-6.9587
X3.376Y-7.3228
X3.3765Y-4.784
X3.3851Y-4.7163
X3.3914Y-4.1732
X3.3957Y-3.9272
X3.4065Y-4.7493
X3.4084Y-5.7126
X3.4154Y-3.7303
X3.4154Y-4.2913
X3.4154Y-7.5276
X3.4252Y-5.9744
X3.4252Y-7.0571
X3.4311Y-4.6535
X3.4321Y-7.8445
X3.4396Y-5.5369
X3.4432Y-7.6656
X3.4514Y-5.6434
X3.4547Y-3.3465
X3.4547Y-3.8189
X3.4548Y-3.7304
X3.4556Y-5.5009
X3.4567Y-8.1395
X3.4646Y-5.4626
X3.4787Y-4.7866
X3.4941Y-3.4744
X3.4941Y-5.8169
X3.5039Y-4.0453
X3.5039Y-6.9882
X3.5039Y-7.6673
X3.5039Y-7.9823
X3.5074Y-4.4682
X3.5097Y-8.3937
X3.5138Y-2.5492
X3.5155Y-5.6321
X3.5212Y-8.1886
X3.5236Y-7.3228
X3.5323Y-6.6524
X3.5344Y-7.5384
X3.5433Y-5.3839
X3.5433Y-6.4961
X3.5481Y-5.5209
X3.5531Y-3.2972
X3.5531Y-3.9961
X3.5531Y-7.7854
X3.5596Y-4.7085
X3.563Y-3.1102
X3.563Y-3.7205
X3.563Y-7.8937
X3.5691Y-5.5542
X3.5728Y-2.7165
X3.5827Y-4.5374
X3.5827Y-7.0079
X3.5915Y-3.6853
X3.5925Y-3.248
X3.5925Y-3.3957
X3.594Y-5.6046
X3.6024Y-3.3465
X3.6024Y-4.3307
X3.6024Y-6.565
X3.6024Y-6.8996
X3.6092Y-8.7106
X3.6122Y-1.9783
X3.6122Y-7.7165
X3.622Y-3.1594
X3.622Y-6.5256
X3.6223Y-5.6332
X3.6319Y-3.0118
X3.6319Y-3.0807
X3.6319Y-8.002
X3.6319Y-8.2185
X3.6398Y-2.1633
X3.6407Y-5.946
X3.6417Y-4.3602
X3.6417Y-7.7559
X3.6516Y-5.0443
X3.6516Y-5.6594
X3.6516Y-8.5728
X3.6634Y-5.4222
X3.6659Y-4.9213
X3.6673Y-5.3475
X3.6713Y-3.1988
X3.6717Y-7.5192
X3.6811Y-2.874
X3.6811Y-3.9961
X3.6811Y-8.5138
X3.6848Y-4.4648
X3.6909Y-5.1476
X3.6909Y-7.6772
X3.6924Y-5.315
X3.7028Y-4.3346
X3.7097Y-5.3858
X3.7106Y-2.6693
X3.7106Y-4.0551
X3.7106Y-4.6555
X3.7106Y-6.565
X3.7106Y-6.6437
X3.7106Y-7.0276
X3.7205Y-6.2303
X3.721Y-4.1924
X3.7303Y-1.7028
X3.7303Y-7.4803
X3.7303Y-8.9173
X3.7323Y-2.4646
X3.7347Y-5.5534
X3.7402Y-4.9213
X3.7402Y-9.0453
X3.7451Y-8.5138
X3.75Y-2.1555
X3.75Y-4.4468
X3.75Y-7.2047
X3.7598Y-5.0591
X3.7598Y-5.7579
X3.7653Y-5.6334
X3.7657Y-4.3346
X3.7697Y-2.5689
X3.7697Y-3.0906
X3.7702Y-5.719
X3.7786Y-6.7857
X3.7786Y-6.8701
X3.7795Y-5.9055
X3.7795Y-7.0374
X3.7795Y-7.8346
X3.7849Y-5.2289
X3.7874Y-2.6693
X3.7894Y-8.4055
X3.7904Y-4.1929
X3.7946Y-5.7972
X3.7992Y-4.3898
X3.7992Y-6.5256
X3.8038Y-5.2634
X3.8049Y-5.185
X3.8051Y-5.1445
X3.8091Y-1.8898
X3.8091Y-3.0709
X3.8091Y-6.3976
X3.8189Y-3.8091
X3.8189Y-4.0394
X3.8189Y-4.8327
X3.8243Y-3.6659
X3.8287Y-7.7559
X3.8287Y-8.1693
X3.8386Y-7.5295
X3.8386Y-8.9567
X3.8391Y-2.1265
X3.8406Y-5.4567
X3.8425Y-2.6969
X3.8473Y-5.2652
X3.8484Y-3.6319
X3.8484Y-8.8091
X3.8602Y-2.1969
X3.8681Y-2.0571
X3.8681Y-3.1693
X3.8681Y-3.248
X3.8681Y-3.5925
X3.8732Y-3.7402
X3.8738Y-5.4779
X3.876Y-2.3465
X3.878Y-3.3268
X3.878Y-6.8888
X3.8804Y-5.5988
X3.8846Y-5.5597
X3.8878Y-2.4734
X3.8878Y-2.4311
X3.8878Y-2.5394
X3.8878Y-2.5974
X3.8878Y-3.0906
X3.8878Y-3.4744
X3.8878Y-6.25
X3.8878Y-8.0709
X3.8954Y-5.4222
X3.8955Y-6.437
X3.8966Y-4.5472
X3.897Y-5.2342
X3.8976Y-4.3602
X3.8976Y-6.2992
X3.8976Y-8.878
X3.9035Y-2.685
X3.9075Y-4.2992
X3.9075Y-5.2953
X3.9075Y-6.0396
X3.9075Y-8.3169
X3.9163Y-4.9498
X3.9168Y-4.5866
X3.9171Y-3.9958
X3.9173Y-2.4016
X3.9173Y-4.2234
X3.9173Y-4.6358
X3.9173Y-5.9744
X3.9244Y-5.6346
X3.9263Y-5.2605
X3.9272Y-2.1457
X3.937Y-1.6043
X3.9425Y-6.6831
X3.9425Y-6.8351
X3.9441Y-6.0111
X3.9467Y-5.2989
X3.9469Y-1.9783
X3.9469Y-3.75
X3.9469Y-3.8287
X3.9469Y-6.565
X3.9478Y-6.5256
X3.9566Y-5.8689
X3.9567Y-2.4508
X3.9567Y-2.5039
X3.9567Y-6.2008
X3.9572Y-5.0103
X3.9613Y-5.1612
X3.9665Y-2.687
X3.9698Y-8.1012
X3.9764Y-4.252
X3.9764Y-8.376
X3.9782Y-4.32
X3.993Y-4.9291
X3.9961Y-6.9291
X3.9984Y-5.647
X3.9997Y-5.477
X4.0049Y-5.9872
X4.012Y-7.8793
X4.0157Y-1.6929
X4.0157Y-2.4567
X4.0256Y-4.4685
X4.0332Y-1.9085
X4.0354Y-2.5689
X4.0404Y-8.681
X4.0453Y-4.2224
X4.0453Y-5.7579
X4.0472Y-3.8189
X4.0531Y-2.2953
X4.0551Y-3.9665
X4.065Y-2.6772
X4.065Y-4.872
X4.065Y-6.998
X4.065Y-8.563
X4.067Y-5.2658
X4.0671Y-5.4156
X4.0748Y-5.0591
X4.0748Y-6.0236
X4.0748Y-6.9587
X4.0846Y-2.3573
X4.0846Y-4.5374
X4.0846Y-5.751
X4.0846Y-5.9488
X4.0856Y-6.1501
X4.0929Y-1.7618
X4.0935Y-5.1092
X4.0945Y-3.8189
X4.1036Y-5.4323
X4.1043Y-3.1693
X4.1043Y-3.4252
X4.1043Y-3.4744
X4.1043Y-3.5335
X4.1043Y-3.5925
X4.1043Y-4.3307
X4.1043Y-5.0315
X4.1043Y-5.8081
X4.1043Y-8.7795
X4.1119Y-6.0366
X4.1142Y-3.1004
X4.1142Y-6.4862
X4.1146Y-5.8797
X4.1183Y-5.1885
X4.124Y-1.9193
X4.124Y-3.248
X4.124Y-3.3366
X4.124Y-4.6063
X4.124Y-6.0827
X4.124Y-7.9724
X4.124Y-8.5138
X4.127Y-8.9695
X4.1307Y-5.9417
X4.1336Y-1.6939
X4.1339Y-3.811
X4.1339Y-4.8425
X4.1408Y-4.1547
X4.1437Y-7.0571
X4.1447Y-2.5477
X4.1491Y-7.0133
X4.1535Y-5.748
X4.1535Y-7.815
X4.1535Y-8.1594
X4.1543Y-5.8366
X4.1634Y-2.6181
X4.1634Y-3.4252
X4.1634Y-3.4744
X4.1634Y-3.5335
X4.1634Y-3.5925
X4.1634Y-5.6102
X4.1634Y-8.1102
X4.1674Y-5.2092
X4.1727Y-8.4744
X4.1732Y-5.5217
X4.1732Y-7.5591
X4.1811Y-3.8189
X4.1831Y-4.4882
X4.187Y-5.312
X4.2028Y-5.6201
X4.2028Y-6.9193
X4.2126Y-4.4291
X4.222Y-3.5822
X4.2224Y-3.4744
X4.2224Y-3.5335
X4.2224Y-3.622
X4.2224Y-6.0827
X4.2224Y-7.6772
X4.2283Y-3.8189
X4.2297Y-8.4744
X4.2313Y-6.7835
X4.2323Y-9.065
X4.2325Y-6.258
X4.2343Y-4.7756
X4.2421Y-2.0669
X4.2421Y-7.8445
X4.2421Y-8.1988
X4.2443Y-6.0499
X4.2471Y-5.7475
X4.2475Y-4.3844
X4.252Y-1.8209
X4.252Y-3.6516
X4.2579Y-3.1457
X4.2605Y-7.4871
X4.2618Y-2.6476
X4.2618Y-4.8622
X4.2618Y-6.4665
X4.2618Y-7.9331
X4.2677Y-2.2992
X4.2706Y-5.1585
X4.2717Y-2.5689
X4.2717Y-6.5846
X4.2717Y-7.1949
X4.2717Y-8.7303
X4.2805Y-2.9714
X4.2815Y-3.3189
X4.2815Y-5.0886
X4.2815Y-6.3878
X4.2913Y-1.9488
X4.2918Y-4.4286
X4.2922Y-5.255
X4.2937Y-4.9423
X4.2952Y-6.1112
X4.3012Y-7.7264
X4.3012Y-7.8445
X4.3082Y-5.5035
X4.311Y-4.8228
X4.311Y-6.5551
X4.311Y-8.2087
X4.3199Y-4.9114
X4.3209Y-4.0157
X4.3209Y-6.9882
X4.3209Y-7.3425
X4.3218Y-5.6496
X4.3297Y-4.5128
X4.3307Y-5.4222
X4.3308Y-6.4764
X4.3405Y-2.1568
X4.3499Y-2.2535
X4.3503Y-4.8857
X4.3504Y-8.0315
X4.3563Y-5.2575
X4.3571Y-4.8386
X4.3602Y-4.311
X4.3602Y-4.3799
X4.3602Y-5.6004
X4.3602Y-5.7776
X4.3602Y-6.122
X4.3602Y-7.0866
X4.3602Y-8.3957
X4.3605Y-5.3315
X4.3791Y-4.8023
X4.3898Y-4.4685
X4.3898Y-5.7283
X4.3898Y-8.8878
X4.3953Y-5.2627
X4.3996Y-6.1811
X4.3996Y-8.2087
X4.4094Y-4.311
X4.4193Y-3.1299
X4.4193Y-4.5472
X4.427Y-8.6688
X4.4291Y-2.4705
X4.4291Y-4.1142
X4.4291Y-7.3228
X4.4331Y-7.6575
X4.4336Y-6.6294
X4.439Y-1.939
X4.439Y-5.4724
X4.439Y-6.9587
X4.439Y-7.0276
X4.4508Y-5.2215
X4.4587Y-7.7067
X4.4587Y-8.2579
X4.476Y-4.6933
X4.4794Y-5.187
X4.4882Y-5.6693
X4.4882Y-6.8209
X4.4884Y-5.3624
X4.4887Y-5.9444
X4.498Y-4.1929
X4.498Y-4.252
X4.498Y-4.8031
X4.5Y-8.4016
X4.502Y-4.0039
X4.5079Y-2.1358
X4.5079Y-5.1476
X4.5177Y-3.002
X4.5197Y-4.9764
X4.5374Y-5.0984
X4.5374Y-7.9823
X4.5381Y-5.7894
X4.5431Y-4.4112
X4.547Y-8.144
X4.5472Y-2.5689
X4.5472Y-5.6594
X4.5472Y-6.0433
X4.5528Y-4.857
X4.5591Y-3.6063
X4.5669Y-3.8346
X4.5669Y-4.9213
X4.5866Y-2.815
X4.5866Y-3.4843
X4.5866Y-7.0472
X4.5965Y-6.4764
X4.5965Y-4.8569
X4.5984Y-2.6535
X4.6025Y-6.6972
X4.6063Y-4.7539
X4.6063Y-6.7815
X4.6063Y-7.8051
X4.626Y-5.9449
X4.6262Y-5.1085
X4.6272Y-5.4386
X4.6618Y-4.7037
X4.6653Y-5.3051
X4.6744Y-5.2666
X4.6757Y-5.9641
X4.6791Y-4.1575
X4.686Y-7.4808
X4.6949Y-4.8228
X4.6949Y-8.0709
X4.7042Y-5.6688
X4.7104Y-7.1346
X4.7146Y-2.7264
X4.7146Y-2.9626
X4.7188Y-5.0907
X4.7189Y-4.7026
X4.7244Y-2.8937
X4.7244Y-4.4094
X4.7244Y-5.5217
X4.7343Y-3.1988
X4.7343Y-4.4882
X4.7482Y-4.7288
X4.7539Y-3.8386
X4.7539Y-7.0669
X4.7736Y-7.6476
X4.7746Y-5.2429
X4.7807Y-5.3248
X4.7835Y-5.0
X4.7835Y-5.5906
X4.7835Y-6.5453
X4.7835Y-6.939
X4.7876Y-4.6422
X4.7876Y-4.7302
X4.8123Y-2.8668
X4.8237Y-3.4504
X4.8326Y-3.2007
X4.8327Y-2.7067
X4.8819Y-3.514
X4.9093Y-3.8752
T2
X3.5205Y-4.889
X3.5205Y-4.989
X3.5205Y-5.089
X3.5205Y-5.189
X3.5205Y-5.289
X3.9469Y-7.128
X3.9469Y-7.228
X3.9469Y-7.328
X3.9469Y-7.428
X3.9469Y-7.528
X3.9469Y-7.628
X4.0512Y-7.128
X4.0512Y-7.228
X4.0512Y-7.328
X4.0512Y-7.428
X4.0512Y-7.528
X4.0512Y-7.628
T0
M30
