M48
; DRILL file {KiCad 7.0.2} date Fri Jun 14 10:06:34 2024
; FORMAT={-:-/ absolute / inch / decimal}
; #@! TF.CreationDate,2024-06-14T10:06:34-04:00
; #@! TF.GenerationSoftware,Kicad,Pcbnew,7.0.2
; #@! TF.FileFunction,NonPlated,1,2,NPTH
FMAT,2
INCH
; #@! TA.AperFunction,NonPlated,NPTH,ComponentDrill
T1C0.0354
; #@! TA.AperFunction,NonPlated,NPTH,ComponentDrill
T2C0.0669
; #@! TA.AperFunction,NonPlated,NPTH,ComponentDrill
T3C0.0787
; #@! TA.AperFunction,NonPlated,NPTH,ComponentDrill
T4C0.0827
; #@! TA.AperFunction,NonPlated,NPTH,ComponentDrill
T5C0.0866
; #@! TA.AperFunction,NonPlated,NPTH,ComponentDrill
T6C0.1969
%
G90
G05
T1
X3.9138Y-1.6644
X4.087Y-1.6644
T2
X3.6768Y-6.3551
T3
X3.9917Y-6.3551
T4
X3.4087Y-8.5614
X4.5913Y-8.5614
T5
X3.1346Y-3.3839
X3.1461Y-3.7299
X3.1535Y-3.039
X3.2508Y-5.3933
X3.2713Y-5.8529
X3.2756Y-4.932
X3.3256Y-7.9913
X3.3512Y-8.2724
X3.3573Y-4.5719
X3.3894Y-5.2867
X3.5205Y-7.4484
X3.5331Y-7.1823
X3.5602Y-8.5398
X3.5882Y-6.7098
X3.6055Y-6.022
X3.7429Y-4.5539
X3.785Y-1.9827
X3.8307Y-7.311
X3.8706Y-5.3579
X3.8812Y-5.6902
X3.915Y-8.5417
X3.9244Y-7.976
X3.9972Y-6.0941
X3.9988Y-6.7512
X4.0Y-8.9016
X4.0008Y-2.0819
X4.087Y-8.2614
X4.1247Y-5.6772
X4.1252Y-5.3551
X4.1673Y-7.311
X4.2244Y-1.9843
X4.2323Y-4.5575
X4.3786Y-6.0327
X4.3976Y-6.7205
X4.4705Y-8.55
X4.4728Y-7.1701
X4.4819Y-7.4476
X4.5996Y-5.2832
X4.635Y-4.5787
X4.6677Y-8.2835
X4.6925Y-7.9854
X4.7053Y-5.8366
X4.728Y-4.9474
X4.7512Y-5.3917
X4.8559Y-3.0402
X4.8685Y-3.7264
X4.8724Y-3.3846
T6
X4.0016Y-4.7598
T0
M30
