%TF.GenerationSoftware,KiCad,Pcbnew,(6.0.0)*%
%TF.CreationDate,2022-07-04T20:32:36-04:00*%
%TF.ProjectId,800+,3830302b-2e6b-4696-9361-645f70636258,rev?*%
%TF.SameCoordinates,Original*%
%TF.FileFunction,Legend,Bot*%
%TF.FilePolarity,Positive*%
%FSLAX46Y46*%
G04 Gerber Fmt 4.6, Leading zero omitted, Abs format (unit mm)*
G04 Created by KiCad (PCBNEW (6.0.0)) date 2022-07-04 20:32:36*
%MOMM*%
%LPD*%
G01*
G04 APERTURE LIST*
%ADD10C,0.250000*%
%ADD11C,0.150000*%
%ADD12C,0.120000*%
G04 APERTURE END LIST*
D10*
X108874642Y-66025964D02*
X108038928Y-66025964D01*
X108488928Y-66540250D01*
X108296071Y-66540250D01*
X108167500Y-66604535D01*
X108103214Y-66668821D01*
X108038928Y-66797392D01*
X108038928Y-67118821D01*
X108103214Y-67247392D01*
X108167500Y-67311678D01*
X108296071Y-67375964D01*
X108681785Y-67375964D01*
X108810357Y-67311678D01*
X108874642Y-67247392D01*
X107588928Y-66475964D02*
X107267500Y-67375964D01*
X106946071Y-66475964D01*
X106560357Y-66025964D02*
X105724642Y-66025964D01*
X106174642Y-66540250D01*
X105981785Y-66540250D01*
X105853214Y-66604535D01*
X105788928Y-66668821D01*
X105724642Y-66797392D01*
X105724642Y-67118821D01*
X105788928Y-67247392D01*
X105853214Y-67311678D01*
X105981785Y-67375964D01*
X106367500Y-67375964D01*
X106496071Y-67311678D01*
X106560357Y-67247392D01*
X108038928Y-68263750D02*
X108167500Y-68199464D01*
X108360357Y-68199464D01*
X108553214Y-68263750D01*
X108681785Y-68392321D01*
X108746071Y-68520892D01*
X108810357Y-68778035D01*
X108810357Y-68970892D01*
X108746071Y-69228035D01*
X108681785Y-69356607D01*
X108553214Y-69485178D01*
X108360357Y-69549464D01*
X108231785Y-69549464D01*
X108038928Y-69485178D01*
X107974642Y-69420892D01*
X107974642Y-68970892D01*
X108231785Y-68970892D01*
X107396071Y-69549464D02*
X107396071Y-68199464D01*
X106624642Y-69549464D01*
X106624642Y-68199464D01*
X105981785Y-69549464D02*
X105981785Y-68199464D01*
X105660357Y-68199464D01*
X105467500Y-68263750D01*
X105338928Y-68392321D01*
X105274642Y-68520892D01*
X105210357Y-68778035D01*
X105210357Y-68970892D01*
X105274642Y-69228035D01*
X105338928Y-69356607D01*
X105467500Y-69485178D01*
X105660357Y-69549464D01*
X105981785Y-69549464D01*
X108103214Y-71722964D02*
X108746071Y-71722964D01*
X108746071Y-70372964D01*
X106881785Y-71594392D02*
X106946071Y-71658678D01*
X107138928Y-71722964D01*
X107267500Y-71722964D01*
X107460357Y-71658678D01*
X107588928Y-71530107D01*
X107653214Y-71401535D01*
X107717500Y-71144392D01*
X107717500Y-70951535D01*
X107653214Y-70694392D01*
X107588928Y-70565821D01*
X107460357Y-70437250D01*
X107267500Y-70372964D01*
X107138928Y-70372964D01*
X106946071Y-70437250D01*
X106881785Y-70501535D01*
X106303214Y-71722964D02*
X106303214Y-70372964D01*
X105981785Y-70372964D01*
X105788928Y-70437250D01*
X105660357Y-70565821D01*
X105596071Y-70694392D01*
X105531785Y-70951535D01*
X105531785Y-71144392D01*
X105596071Y-71401535D01*
X105660357Y-71530107D01*
X105788928Y-71658678D01*
X105981785Y-71722964D01*
X106303214Y-71722964D01*
X105274642Y-71851535D02*
X104246071Y-71851535D01*
X103474642Y-71015821D02*
X103281785Y-71080107D01*
X103217500Y-71144392D01*
X103153214Y-71272964D01*
X103153214Y-71465821D01*
X103217500Y-71594392D01*
X103281785Y-71658678D01*
X103410357Y-71722964D01*
X103924642Y-71722964D01*
X103924642Y-70372964D01*
X103474642Y-70372964D01*
X103346071Y-70437250D01*
X103281785Y-70501535D01*
X103217500Y-70630107D01*
X103217500Y-70758678D01*
X103281785Y-70887250D01*
X103346071Y-70951535D01*
X103474642Y-71015821D01*
X103924642Y-71015821D01*
X101931785Y-71722964D02*
X102574642Y-71722964D01*
X102574642Y-70372964D01*
X108103214Y-73896464D02*
X108746071Y-73896464D01*
X108746071Y-72546464D01*
X106881785Y-73767892D02*
X106946071Y-73832178D01*
X107138928Y-73896464D01*
X107267500Y-73896464D01*
X107460357Y-73832178D01*
X107588928Y-73703607D01*
X107653214Y-73575035D01*
X107717500Y-73317892D01*
X107717500Y-73125035D01*
X107653214Y-72867892D01*
X107588928Y-72739321D01*
X107460357Y-72610750D01*
X107267500Y-72546464D01*
X107138928Y-72546464D01*
X106946071Y-72610750D01*
X106881785Y-72675035D01*
X106303214Y-73896464D02*
X106303214Y-72546464D01*
X105981785Y-72546464D01*
X105788928Y-72610750D01*
X105660357Y-72739321D01*
X105596071Y-72867892D01*
X105531785Y-73125035D01*
X105531785Y-73317892D01*
X105596071Y-73575035D01*
X105660357Y-73703607D01*
X105788928Y-73832178D01*
X105981785Y-73896464D01*
X106303214Y-73896464D01*
X105274642Y-74025035D02*
X104246071Y-74025035D01*
X103924642Y-73896464D02*
X103924642Y-72546464D01*
X103603214Y-72546464D01*
X103410357Y-72610750D01*
X103281785Y-72739321D01*
X103217500Y-72867892D01*
X103153214Y-73125035D01*
X103153214Y-73317892D01*
X103217500Y-73575035D01*
X103281785Y-73703607D01*
X103410357Y-73832178D01*
X103603214Y-73896464D01*
X103924642Y-73896464D01*
X101610357Y-72482178D02*
X102767500Y-74217892D01*
X100388928Y-73767892D02*
X100453214Y-73832178D01*
X100646071Y-73896464D01*
X100774642Y-73896464D01*
X100967500Y-73832178D01*
X101096071Y-73703607D01*
X101160357Y-73575035D01*
X101224642Y-73317892D01*
X101224642Y-73125035D01*
X101160357Y-72867892D01*
X101096071Y-72739321D01*
X100967500Y-72610750D01*
X100774642Y-72546464D01*
X100646071Y-72546464D01*
X100453214Y-72610750D01*
X100388928Y-72675035D01*
X108103214Y-76069964D02*
X108746071Y-76069964D01*
X108746071Y-74719964D01*
X106881785Y-75941392D02*
X106946071Y-76005678D01*
X107138928Y-76069964D01*
X107267500Y-76069964D01*
X107460357Y-76005678D01*
X107588928Y-75877107D01*
X107653214Y-75748535D01*
X107717500Y-75491392D01*
X107717500Y-75298535D01*
X107653214Y-75041392D01*
X107588928Y-74912821D01*
X107460357Y-74784250D01*
X107267500Y-74719964D01*
X107138928Y-74719964D01*
X106946071Y-74784250D01*
X106881785Y-74848535D01*
X106303214Y-76069964D02*
X106303214Y-74719964D01*
X105981785Y-74719964D01*
X105788928Y-74784250D01*
X105660357Y-74912821D01*
X105596071Y-75041392D01*
X105531785Y-75298535D01*
X105531785Y-75491392D01*
X105596071Y-75748535D01*
X105660357Y-75877107D01*
X105788928Y-76005678D01*
X105981785Y-76069964D01*
X106303214Y-76069964D01*
X103153214Y-75941392D02*
X103217500Y-76005678D01*
X103410357Y-76069964D01*
X103538928Y-76069964D01*
X103731785Y-76005678D01*
X103860357Y-75877107D01*
X103924642Y-75748535D01*
X103988928Y-75491392D01*
X103988928Y-75298535D01*
X103924642Y-75041392D01*
X103860357Y-74912821D01*
X103731785Y-74784250D01*
X103538928Y-74719964D01*
X103410357Y-74719964D01*
X103217500Y-74784250D01*
X103153214Y-74848535D01*
X102638928Y-76005678D02*
X102446071Y-76069964D01*
X102124642Y-76069964D01*
X101996071Y-76005678D01*
X101931785Y-75941392D01*
X101867500Y-75812821D01*
X101867500Y-75684250D01*
X101931785Y-75555678D01*
X101996071Y-75491392D01*
X102124642Y-75427107D01*
X102381785Y-75362821D01*
X102510357Y-75298535D01*
X102574642Y-75234250D01*
X102638928Y-75105678D01*
X102638928Y-74977107D01*
X102574642Y-74848535D01*
X102510357Y-74784250D01*
X102381785Y-74719964D01*
X102060357Y-74719964D01*
X101867500Y-74784250D01*
X108103214Y-78243464D02*
X108746071Y-78243464D01*
X108746071Y-76893464D01*
X106881785Y-78114892D02*
X106946071Y-78179178D01*
X107138928Y-78243464D01*
X107267500Y-78243464D01*
X107460357Y-78179178D01*
X107588928Y-78050607D01*
X107653214Y-77922035D01*
X107717500Y-77664892D01*
X107717500Y-77472035D01*
X107653214Y-77214892D01*
X107588928Y-77086321D01*
X107460357Y-76957750D01*
X107267500Y-76893464D01*
X107138928Y-76893464D01*
X106946071Y-76957750D01*
X106881785Y-77022035D01*
X106303214Y-78243464D02*
X106303214Y-76893464D01*
X105981785Y-76893464D01*
X105788928Y-76957750D01*
X105660357Y-77086321D01*
X105596071Y-77214892D01*
X105531785Y-77472035D01*
X105531785Y-77664892D01*
X105596071Y-77922035D01*
X105660357Y-78050607D01*
X105788928Y-78179178D01*
X105981785Y-78243464D01*
X106303214Y-78243464D01*
X103153214Y-78114892D02*
X103217500Y-78179178D01*
X103410357Y-78243464D01*
X103538928Y-78243464D01*
X103731785Y-78179178D01*
X103860357Y-78050607D01*
X103924642Y-77922035D01*
X103988928Y-77664892D01*
X103988928Y-77472035D01*
X103924642Y-77214892D01*
X103860357Y-77086321D01*
X103731785Y-76957750D01*
X103538928Y-76893464D01*
X103410357Y-76893464D01*
X103217500Y-76957750D01*
X103153214Y-77022035D01*
X101931785Y-78243464D02*
X102574642Y-78243464D01*
X102574642Y-76893464D01*
X101481785Y-78243464D02*
X101481785Y-76893464D01*
X100710357Y-78243464D02*
X101288928Y-77472035D01*
X100710357Y-76893464D02*
X101481785Y-77664892D01*
X108103214Y-80416964D02*
X108746071Y-80416964D01*
X108746071Y-79066964D01*
X106881785Y-80288392D02*
X106946071Y-80352678D01*
X107138928Y-80416964D01*
X107267500Y-80416964D01*
X107460357Y-80352678D01*
X107588928Y-80224107D01*
X107653214Y-80095535D01*
X107717500Y-79838392D01*
X107717500Y-79645535D01*
X107653214Y-79388392D01*
X107588928Y-79259821D01*
X107460357Y-79131250D01*
X107267500Y-79066964D01*
X107138928Y-79066964D01*
X106946071Y-79131250D01*
X106881785Y-79195535D01*
X106303214Y-80416964D02*
X106303214Y-79066964D01*
X105981785Y-79066964D01*
X105788928Y-79131250D01*
X105660357Y-79259821D01*
X105596071Y-79388392D01*
X105531785Y-79645535D01*
X105531785Y-79838392D01*
X105596071Y-80095535D01*
X105660357Y-80224107D01*
X105788928Y-80352678D01*
X105981785Y-80416964D01*
X106303214Y-80416964D01*
X103924642Y-80416964D02*
X103924642Y-79066964D01*
X103603214Y-79066964D01*
X103410357Y-79131250D01*
X103281785Y-79259821D01*
X103217500Y-79388392D01*
X103153214Y-79645535D01*
X103153214Y-79838392D01*
X103217500Y-80095535D01*
X103281785Y-80224107D01*
X103410357Y-80352678D01*
X103603214Y-80416964D01*
X103924642Y-80416964D01*
X102574642Y-80416964D02*
X102574642Y-79066964D01*
X101931785Y-80416964D02*
X101931785Y-79066964D01*
X101160357Y-80416964D01*
X101160357Y-79066964D01*
X108103214Y-82590464D02*
X108746071Y-82590464D01*
X108746071Y-81240464D01*
X106881785Y-82461892D02*
X106946071Y-82526178D01*
X107138928Y-82590464D01*
X107267500Y-82590464D01*
X107460357Y-82526178D01*
X107588928Y-82397607D01*
X107653214Y-82269035D01*
X107717500Y-82011892D01*
X107717500Y-81819035D01*
X107653214Y-81561892D01*
X107588928Y-81433321D01*
X107460357Y-81304750D01*
X107267500Y-81240464D01*
X107138928Y-81240464D01*
X106946071Y-81304750D01*
X106881785Y-81369035D01*
X106303214Y-82590464D02*
X106303214Y-81240464D01*
X105981785Y-81240464D01*
X105788928Y-81304750D01*
X105660357Y-81433321D01*
X105596071Y-81561892D01*
X105531785Y-81819035D01*
X105531785Y-82011892D01*
X105596071Y-82269035D01*
X105660357Y-82397607D01*
X105788928Y-82526178D01*
X105981785Y-82590464D01*
X106303214Y-82590464D01*
X105274642Y-82719035D02*
X104246071Y-82719035D01*
X103153214Y-82590464D02*
X103603214Y-81947607D01*
X103924642Y-82590464D02*
X103924642Y-81240464D01*
X103410357Y-81240464D01*
X103281785Y-81304750D01*
X103217500Y-81369035D01*
X103153214Y-81497607D01*
X103153214Y-81690464D01*
X103217500Y-81819035D01*
X103281785Y-81883321D01*
X103410357Y-81947607D01*
X103924642Y-81947607D01*
X102638928Y-82526178D02*
X102446071Y-82590464D01*
X102124642Y-82590464D01*
X101996071Y-82526178D01*
X101931785Y-82461892D01*
X101867500Y-82333321D01*
X101867500Y-82204750D01*
X101931785Y-82076178D01*
X101996071Y-82011892D01*
X102124642Y-81947607D01*
X102381785Y-81883321D01*
X102510357Y-81819035D01*
X102574642Y-81754750D01*
X102638928Y-81626178D01*
X102638928Y-81497607D01*
X102574642Y-81369035D01*
X102510357Y-81304750D01*
X102381785Y-81240464D01*
X102060357Y-81240464D01*
X101867500Y-81304750D01*
X101481785Y-81240464D02*
X100710357Y-81240464D01*
X101096071Y-82590464D02*
X101096071Y-81240464D01*
X108746071Y-84763964D02*
X108746071Y-83413964D01*
X108231785Y-83413964D01*
X108103214Y-83478250D01*
X108038928Y-83542535D01*
X107974642Y-83671107D01*
X107974642Y-83863964D01*
X108038928Y-83992535D01*
X108103214Y-84056821D01*
X108231785Y-84121107D01*
X108746071Y-84121107D01*
X106688928Y-84763964D02*
X107460357Y-84763964D01*
X107074642Y-84763964D02*
X107074642Y-83413964D01*
X107203214Y-83606821D01*
X107331785Y-83735392D01*
X107460357Y-83799678D01*
X106110357Y-84635392D02*
X106046071Y-84699678D01*
X106110357Y-84763964D01*
X106174642Y-84699678D01*
X106110357Y-84635392D01*
X106110357Y-84763964D01*
X105596071Y-83413964D02*
X104696071Y-83413964D01*
X105274642Y-84763964D01*
X108746071Y-86937464D02*
X108746071Y-85587464D01*
X108231785Y-85587464D01*
X108103214Y-85651750D01*
X108038928Y-85716035D01*
X107974642Y-85844607D01*
X107974642Y-86037464D01*
X108038928Y-86166035D01*
X108103214Y-86230321D01*
X108231785Y-86294607D01*
X108746071Y-86294607D01*
X106688928Y-86937464D02*
X107460357Y-86937464D01*
X107074642Y-86937464D02*
X107074642Y-85587464D01*
X107203214Y-85780321D01*
X107331785Y-85908892D01*
X107460357Y-85973178D01*
X106110357Y-86808892D02*
X106046071Y-86873178D01*
X106110357Y-86937464D01*
X106174642Y-86873178D01*
X106110357Y-86808892D01*
X106110357Y-86937464D01*
X104888928Y-85587464D02*
X105146071Y-85587464D01*
X105274642Y-85651750D01*
X105338928Y-85716035D01*
X105467500Y-85908892D01*
X105531785Y-86166035D01*
X105531785Y-86680321D01*
X105467500Y-86808892D01*
X105403214Y-86873178D01*
X105274642Y-86937464D01*
X105017500Y-86937464D01*
X104888928Y-86873178D01*
X104824642Y-86808892D01*
X104760357Y-86680321D01*
X104760357Y-86358892D01*
X104824642Y-86230321D01*
X104888928Y-86166035D01*
X105017500Y-86101750D01*
X105274642Y-86101750D01*
X105403214Y-86166035D01*
X105467500Y-86230321D01*
X105531785Y-86358892D01*
X108746071Y-89110964D02*
X108746071Y-87760964D01*
X108231785Y-87760964D01*
X108103214Y-87825250D01*
X108038928Y-87889535D01*
X107974642Y-88018107D01*
X107974642Y-88210964D01*
X108038928Y-88339535D01*
X108103214Y-88403821D01*
X108231785Y-88468107D01*
X108746071Y-88468107D01*
X106688928Y-89110964D02*
X107460357Y-89110964D01*
X107074642Y-89110964D02*
X107074642Y-87760964D01*
X107203214Y-87953821D01*
X107331785Y-88082392D01*
X107460357Y-88146678D01*
X106110357Y-88982392D02*
X106046071Y-89046678D01*
X106110357Y-89110964D01*
X106174642Y-89046678D01*
X106110357Y-88982392D01*
X106110357Y-89110964D01*
X104824642Y-87760964D02*
X105467500Y-87760964D01*
X105531785Y-88403821D01*
X105467500Y-88339535D01*
X105338928Y-88275250D01*
X105017500Y-88275250D01*
X104888928Y-88339535D01*
X104824642Y-88403821D01*
X104760357Y-88532392D01*
X104760357Y-88853821D01*
X104824642Y-88982392D01*
X104888928Y-89046678D01*
X105017500Y-89110964D01*
X105338928Y-89110964D01*
X105467500Y-89046678D01*
X105531785Y-88982392D01*
X108746071Y-91284464D02*
X108746071Y-89934464D01*
X108231785Y-89934464D01*
X108103214Y-89998750D01*
X108038928Y-90063035D01*
X107974642Y-90191607D01*
X107974642Y-90384464D01*
X108038928Y-90513035D01*
X108103214Y-90577321D01*
X108231785Y-90641607D01*
X108746071Y-90641607D01*
X106688928Y-91284464D02*
X107460357Y-91284464D01*
X107074642Y-91284464D02*
X107074642Y-89934464D01*
X107203214Y-90127321D01*
X107331785Y-90255892D01*
X107460357Y-90320178D01*
X106110357Y-91155892D02*
X106046071Y-91220178D01*
X106110357Y-91284464D01*
X106174642Y-91220178D01*
X106110357Y-91155892D01*
X106110357Y-91284464D01*
X104888928Y-90384464D02*
X104888928Y-91284464D01*
X105210357Y-89870178D02*
X105531785Y-90834464D01*
X104696071Y-90834464D01*
X108746071Y-93457964D02*
X108746071Y-92107964D01*
X108231785Y-92107964D01*
X108103214Y-92172250D01*
X108038928Y-92236535D01*
X107974642Y-92365107D01*
X107974642Y-92557964D01*
X108038928Y-92686535D01*
X108103214Y-92750821D01*
X108231785Y-92815107D01*
X108746071Y-92815107D01*
X106688928Y-93457964D02*
X107460357Y-93457964D01*
X107074642Y-93457964D02*
X107074642Y-92107964D01*
X107203214Y-92300821D01*
X107331785Y-92429392D01*
X107460357Y-92493678D01*
X106110357Y-93329392D02*
X106046071Y-93393678D01*
X106110357Y-93457964D01*
X106174642Y-93393678D01*
X106110357Y-93329392D01*
X106110357Y-93457964D01*
X105596071Y-92107964D02*
X104760357Y-92107964D01*
X105210357Y-92622250D01*
X105017500Y-92622250D01*
X104888928Y-92686535D01*
X104824642Y-92750821D01*
X104760357Y-92879392D01*
X104760357Y-93200821D01*
X104824642Y-93329392D01*
X104888928Y-93393678D01*
X105017500Y-93457964D01*
X105403214Y-93457964D01*
X105531785Y-93393678D01*
X105596071Y-93329392D01*
X108746071Y-95631464D02*
X108746071Y-94281464D01*
X108231785Y-94281464D01*
X108103214Y-94345750D01*
X108038928Y-94410035D01*
X107974642Y-94538607D01*
X107974642Y-94731464D01*
X108038928Y-94860035D01*
X108103214Y-94924321D01*
X108231785Y-94988607D01*
X108746071Y-94988607D01*
X106688928Y-95631464D02*
X107460357Y-95631464D01*
X107074642Y-95631464D02*
X107074642Y-94281464D01*
X107203214Y-94474321D01*
X107331785Y-94602892D01*
X107460357Y-94667178D01*
X106110357Y-95502892D02*
X106046071Y-95567178D01*
X106110357Y-95631464D01*
X106174642Y-95567178D01*
X106110357Y-95502892D01*
X106110357Y-95631464D01*
X105531785Y-94410035D02*
X105467500Y-94345750D01*
X105338928Y-94281464D01*
X105017500Y-94281464D01*
X104888928Y-94345750D01*
X104824642Y-94410035D01*
X104760357Y-94538607D01*
X104760357Y-94667178D01*
X104824642Y-94860035D01*
X105596071Y-95631464D01*
X104760357Y-95631464D01*
X108746071Y-97804964D02*
X108746071Y-96454964D01*
X108231785Y-96454964D01*
X108103214Y-96519250D01*
X108038928Y-96583535D01*
X107974642Y-96712107D01*
X107974642Y-96904964D01*
X108038928Y-97033535D01*
X108103214Y-97097821D01*
X108231785Y-97162107D01*
X108746071Y-97162107D01*
X106688928Y-97804964D02*
X107460357Y-97804964D01*
X107074642Y-97804964D02*
X107074642Y-96454964D01*
X107203214Y-96647821D01*
X107331785Y-96776392D01*
X107460357Y-96840678D01*
X106110357Y-97676392D02*
X106046071Y-97740678D01*
X106110357Y-97804964D01*
X106174642Y-97740678D01*
X106110357Y-97676392D01*
X106110357Y-97804964D01*
X104760357Y-97804964D02*
X105531785Y-97804964D01*
X105146071Y-97804964D02*
X105146071Y-96454964D01*
X105274642Y-96647821D01*
X105403214Y-96776392D01*
X105531785Y-96840678D01*
X108746071Y-99978464D02*
X108746071Y-98628464D01*
X108231785Y-98628464D01*
X108103214Y-98692750D01*
X108038928Y-98757035D01*
X107974642Y-98885607D01*
X107974642Y-99078464D01*
X108038928Y-99207035D01*
X108103214Y-99271321D01*
X108231785Y-99335607D01*
X108746071Y-99335607D01*
X106688928Y-99978464D02*
X107460357Y-99978464D01*
X107074642Y-99978464D02*
X107074642Y-98628464D01*
X107203214Y-98821321D01*
X107331785Y-98949892D01*
X107460357Y-99014178D01*
X106110357Y-99849892D02*
X106046071Y-99914178D01*
X106110357Y-99978464D01*
X106174642Y-99914178D01*
X106110357Y-99849892D01*
X106110357Y-99978464D01*
X105210357Y-98628464D02*
X105081785Y-98628464D01*
X104953214Y-98692750D01*
X104888928Y-98757035D01*
X104824642Y-98885607D01*
X104760357Y-99142750D01*
X104760357Y-99464178D01*
X104824642Y-99721321D01*
X104888928Y-99849892D01*
X104953214Y-99914178D01*
X105081785Y-99978464D01*
X105210357Y-99978464D01*
X105338928Y-99914178D01*
X105403214Y-99849892D01*
X105467500Y-99721321D01*
X105531785Y-99464178D01*
X105531785Y-99142750D01*
X105467500Y-98885607D01*
X105403214Y-98757035D01*
X105338928Y-98692750D01*
X105210357Y-98628464D01*
X108103214Y-102151964D02*
X108746071Y-102151964D01*
X108746071Y-100801964D01*
X107653214Y-101444821D02*
X107203214Y-101444821D01*
X107010357Y-102151964D02*
X107653214Y-102151964D01*
X107653214Y-100801964D01*
X107010357Y-100801964D01*
X106431785Y-102151964D02*
X106431785Y-100801964D01*
X106110357Y-100801964D01*
X105917500Y-100866250D01*
X105788928Y-100994821D01*
X105724642Y-101123392D01*
X105660357Y-101380535D01*
X105660357Y-101573392D01*
X105724642Y-101830535D01*
X105788928Y-101959107D01*
X105917500Y-102087678D01*
X106110357Y-102151964D01*
X106431785Y-102151964D01*
X105403214Y-102280535D02*
X104374642Y-102280535D01*
X104246071Y-100801964D02*
X103474642Y-100801964D01*
X103860357Y-102151964D02*
X103860357Y-100801964D01*
X103024642Y-102151964D02*
X103024642Y-100801964D01*
X102510357Y-100801964D01*
X102381785Y-100866250D01*
X102317500Y-100930535D01*
X102253214Y-101059107D01*
X102253214Y-101251964D01*
X102317500Y-101380535D01*
X102381785Y-101444821D01*
X102510357Y-101509107D01*
X103024642Y-101509107D01*
X108103214Y-104325464D02*
X108746071Y-104325464D01*
X108746071Y-102975464D01*
X107653214Y-103618321D02*
X107203214Y-103618321D01*
X107010357Y-104325464D02*
X107653214Y-104325464D01*
X107653214Y-102975464D01*
X107010357Y-102975464D01*
X106431785Y-104325464D02*
X106431785Y-102975464D01*
X106110357Y-102975464D01*
X105917500Y-103039750D01*
X105788928Y-103168321D01*
X105724642Y-103296892D01*
X105660357Y-103554035D01*
X105660357Y-103746892D01*
X105724642Y-104004035D01*
X105788928Y-104132607D01*
X105917500Y-104261178D01*
X106110357Y-104325464D01*
X106431785Y-104325464D01*
X105403214Y-104454035D02*
X104374642Y-104454035D01*
X104053214Y-104325464D02*
X104053214Y-102975464D01*
X103731785Y-102975464D01*
X103538928Y-103039750D01*
X103410357Y-103168321D01*
X103346071Y-103296892D01*
X103281785Y-103554035D01*
X103281785Y-103746892D01*
X103346071Y-104004035D01*
X103410357Y-104132607D01*
X103538928Y-104261178D01*
X103731785Y-104325464D01*
X104053214Y-104325464D01*
X101931785Y-104325464D02*
X102381785Y-103682607D01*
X102703214Y-104325464D02*
X102703214Y-102975464D01*
X102188928Y-102975464D01*
X102060357Y-103039750D01*
X101996071Y-103104035D01*
X101931785Y-103232607D01*
X101931785Y-103425464D01*
X101996071Y-103554035D01*
X102060357Y-103618321D01*
X102188928Y-103682607D01*
X102703214Y-103682607D01*
X101353214Y-104325464D02*
X101353214Y-102975464D01*
X100903214Y-102975464D02*
X100453214Y-104325464D01*
X100003214Y-102975464D01*
X99553214Y-103618321D02*
X99103214Y-103618321D01*
X98910357Y-104325464D02*
X99553214Y-104325464D01*
X99553214Y-102975464D01*
X98910357Y-102975464D01*
D11*
%TO.C,R6*%
X95411666Y-94617380D02*
X95745000Y-94141190D01*
X95983095Y-94617380D02*
X95983095Y-93617380D01*
X95602142Y-93617380D01*
X95506904Y-93665000D01*
X95459285Y-93712619D01*
X95411666Y-93807857D01*
X95411666Y-93950714D01*
X95459285Y-94045952D01*
X95506904Y-94093571D01*
X95602142Y-94141190D01*
X95983095Y-94141190D01*
X94554523Y-93617380D02*
X94745000Y-93617380D01*
X94840238Y-93665000D01*
X94887857Y-93712619D01*
X94983095Y-93855476D01*
X95030714Y-94045952D01*
X95030714Y-94426904D01*
X94983095Y-94522142D01*
X94935476Y-94569761D01*
X94840238Y-94617380D01*
X94649761Y-94617380D01*
X94554523Y-94569761D01*
X94506904Y-94522142D01*
X94459285Y-94426904D01*
X94459285Y-94188809D01*
X94506904Y-94093571D01*
X94554523Y-94045952D01*
X94649761Y-93998333D01*
X94840238Y-93998333D01*
X94935476Y-94045952D01*
X94983095Y-94093571D01*
X95030714Y-94188809D01*
%TO.C,R5*%
X99136666Y-100542380D02*
X99470000Y-100066190D01*
X99708095Y-100542380D02*
X99708095Y-99542380D01*
X99327142Y-99542380D01*
X99231904Y-99590000D01*
X99184285Y-99637619D01*
X99136666Y-99732857D01*
X99136666Y-99875714D01*
X99184285Y-99970952D01*
X99231904Y-100018571D01*
X99327142Y-100066190D01*
X99708095Y-100066190D01*
X98231904Y-99542380D02*
X98708095Y-99542380D01*
X98755714Y-100018571D01*
X98708095Y-99970952D01*
X98612857Y-99923333D01*
X98374761Y-99923333D01*
X98279523Y-99970952D01*
X98231904Y-100018571D01*
X98184285Y-100113809D01*
X98184285Y-100351904D01*
X98231904Y-100447142D01*
X98279523Y-100494761D01*
X98374761Y-100542380D01*
X98612857Y-100542380D01*
X98708095Y-100494761D01*
X98755714Y-100447142D01*
%TO.C,Q2*%
X95025238Y-87007619D02*
X95120476Y-86960000D01*
X95215714Y-86864761D01*
X95358571Y-86721904D01*
X95453809Y-86674285D01*
X95549047Y-86674285D01*
X95501428Y-86912380D02*
X95596666Y-86864761D01*
X95691904Y-86769523D01*
X95739523Y-86579047D01*
X95739523Y-86245714D01*
X95691904Y-86055238D01*
X95596666Y-85960000D01*
X95501428Y-85912380D01*
X95310952Y-85912380D01*
X95215714Y-85960000D01*
X95120476Y-86055238D01*
X95072857Y-86245714D01*
X95072857Y-86579047D01*
X95120476Y-86769523D01*
X95215714Y-86864761D01*
X95310952Y-86912380D01*
X95501428Y-86912380D01*
X94691904Y-86007619D02*
X94644285Y-85960000D01*
X94549047Y-85912380D01*
X94310952Y-85912380D01*
X94215714Y-85960000D01*
X94168095Y-86007619D01*
X94120476Y-86102857D01*
X94120476Y-86198095D01*
X94168095Y-86340952D01*
X94739523Y-86912380D01*
X94120476Y-86912380D01*
%TO.C,J6*%
X101683333Y-59502380D02*
X101683333Y-60216666D01*
X101730952Y-60359523D01*
X101826190Y-60454761D01*
X101969047Y-60502380D01*
X102064285Y-60502380D01*
X100778571Y-59502380D02*
X100969047Y-59502380D01*
X101064285Y-59550000D01*
X101111904Y-59597619D01*
X101207142Y-59740476D01*
X101254761Y-59930952D01*
X101254761Y-60311904D01*
X101207142Y-60407142D01*
X101159523Y-60454761D01*
X101064285Y-60502380D01*
X100873809Y-60502380D01*
X100778571Y-60454761D01*
X100730952Y-60407142D01*
X100683333Y-60311904D01*
X100683333Y-60073809D01*
X100730952Y-59978571D01*
X100778571Y-59930952D01*
X100873809Y-59883333D01*
X101064285Y-59883333D01*
X101159523Y-59930952D01*
X101207142Y-59978571D01*
X101254761Y-60073809D01*
%TO.C,D19*%
X124554285Y-80672380D02*
X124554285Y-79672380D01*
X124316190Y-79672380D01*
X124173333Y-79720000D01*
X124078095Y-79815238D01*
X124030476Y-79910476D01*
X123982857Y-80100952D01*
X123982857Y-80243809D01*
X124030476Y-80434285D01*
X124078095Y-80529523D01*
X124173333Y-80624761D01*
X124316190Y-80672380D01*
X124554285Y-80672380D01*
X123030476Y-80672380D02*
X123601904Y-80672380D01*
X123316190Y-80672380D02*
X123316190Y-79672380D01*
X123411428Y-79815238D01*
X123506666Y-79910476D01*
X123601904Y-79958095D01*
X122554285Y-80672380D02*
X122363809Y-80672380D01*
X122268571Y-80624761D01*
X122220952Y-80577142D01*
X122125714Y-80434285D01*
X122078095Y-80243809D01*
X122078095Y-79862857D01*
X122125714Y-79767619D01*
X122173333Y-79720000D01*
X122268571Y-79672380D01*
X122459047Y-79672380D01*
X122554285Y-79720000D01*
X122601904Y-79767619D01*
X122649523Y-79862857D01*
X122649523Y-80100952D01*
X122601904Y-80196190D01*
X122554285Y-80243809D01*
X122459047Y-80291428D01*
X122268571Y-80291428D01*
X122173333Y-80243809D01*
X122125714Y-80196190D01*
X122078095Y-80100952D01*
%TO.C,D32*%
X101032380Y-184385714D02*
X100032380Y-184385714D01*
X100032380Y-184623809D01*
X100080000Y-184766666D01*
X100175238Y-184861904D01*
X100270476Y-184909523D01*
X100460952Y-184957142D01*
X100603809Y-184957142D01*
X100794285Y-184909523D01*
X100889523Y-184861904D01*
X100984761Y-184766666D01*
X101032380Y-184623809D01*
X101032380Y-184385714D01*
X100032380Y-185290476D02*
X100032380Y-185909523D01*
X100413333Y-185576190D01*
X100413333Y-185719047D01*
X100460952Y-185814285D01*
X100508571Y-185861904D01*
X100603809Y-185909523D01*
X100841904Y-185909523D01*
X100937142Y-185861904D01*
X100984761Y-185814285D01*
X101032380Y-185719047D01*
X101032380Y-185433333D01*
X100984761Y-185338095D01*
X100937142Y-185290476D01*
X100127619Y-186290476D02*
X100080000Y-186338095D01*
X100032380Y-186433333D01*
X100032380Y-186671428D01*
X100080000Y-186766666D01*
X100127619Y-186814285D01*
X100222857Y-186861904D01*
X100318095Y-186861904D01*
X100460952Y-186814285D01*
X101032380Y-186242857D01*
X101032380Y-186861904D01*
%TO.C,D24*%
X124874285Y-98102380D02*
X124874285Y-97102380D01*
X124636190Y-97102380D01*
X124493333Y-97150000D01*
X124398095Y-97245238D01*
X124350476Y-97340476D01*
X124302857Y-97530952D01*
X124302857Y-97673809D01*
X124350476Y-97864285D01*
X124398095Y-97959523D01*
X124493333Y-98054761D01*
X124636190Y-98102380D01*
X124874285Y-98102380D01*
X123921904Y-97197619D02*
X123874285Y-97150000D01*
X123779047Y-97102380D01*
X123540952Y-97102380D01*
X123445714Y-97150000D01*
X123398095Y-97197619D01*
X123350476Y-97292857D01*
X123350476Y-97388095D01*
X123398095Y-97530952D01*
X123969523Y-98102380D01*
X123350476Y-98102380D01*
X122493333Y-97435714D02*
X122493333Y-98102380D01*
X122731428Y-97054761D02*
X122969523Y-97769047D01*
X122350476Y-97769047D01*
%TO.C,C1*%
X101697142Y-67403333D02*
X101744761Y-67355714D01*
X101792380Y-67212857D01*
X101792380Y-67117619D01*
X101744761Y-66974761D01*
X101649523Y-66879523D01*
X101554285Y-66831904D01*
X101363809Y-66784285D01*
X101220952Y-66784285D01*
X101030476Y-66831904D01*
X100935238Y-66879523D01*
X100840000Y-66974761D01*
X100792380Y-67117619D01*
X100792380Y-67212857D01*
X100840000Y-67355714D01*
X100887619Y-67403333D01*
X101792380Y-68355714D02*
X101792380Y-67784285D01*
X101792380Y-68070000D02*
X100792380Y-68070000D01*
X100935238Y-67974761D01*
X101030476Y-67879523D01*
X101078095Y-67784285D01*
%TO.C,D11*%
X108802380Y-184735714D02*
X107802380Y-184735714D01*
X107802380Y-184973809D01*
X107850000Y-185116666D01*
X107945238Y-185211904D01*
X108040476Y-185259523D01*
X108230952Y-185307142D01*
X108373809Y-185307142D01*
X108564285Y-185259523D01*
X108659523Y-185211904D01*
X108754761Y-185116666D01*
X108802380Y-184973809D01*
X108802380Y-184735714D01*
X108802380Y-186259523D02*
X108802380Y-185688095D01*
X108802380Y-185973809D02*
X107802380Y-185973809D01*
X107945238Y-185878571D01*
X108040476Y-185783333D01*
X108088095Y-185688095D01*
X108802380Y-187211904D02*
X108802380Y-186640476D01*
X108802380Y-186926190D02*
X107802380Y-186926190D01*
X107945238Y-186830952D01*
X108040476Y-186735714D01*
X108088095Y-186640476D01*
%TO.C,D28*%
X105022380Y-170265714D02*
X104022380Y-170265714D01*
X104022380Y-170503809D01*
X104070000Y-170646666D01*
X104165238Y-170741904D01*
X104260476Y-170789523D01*
X104450952Y-170837142D01*
X104593809Y-170837142D01*
X104784285Y-170789523D01*
X104879523Y-170741904D01*
X104974761Y-170646666D01*
X105022380Y-170503809D01*
X105022380Y-170265714D01*
X104117619Y-171218095D02*
X104070000Y-171265714D01*
X104022380Y-171360952D01*
X104022380Y-171599047D01*
X104070000Y-171694285D01*
X104117619Y-171741904D01*
X104212857Y-171789523D01*
X104308095Y-171789523D01*
X104450952Y-171741904D01*
X105022380Y-171170476D01*
X105022380Y-171789523D01*
X104450952Y-172360952D02*
X104403333Y-172265714D01*
X104355714Y-172218095D01*
X104260476Y-172170476D01*
X104212857Y-172170476D01*
X104117619Y-172218095D01*
X104070000Y-172265714D01*
X104022380Y-172360952D01*
X104022380Y-172551428D01*
X104070000Y-172646666D01*
X104117619Y-172694285D01*
X104212857Y-172741904D01*
X104260476Y-172741904D01*
X104355714Y-172694285D01*
X104403333Y-172646666D01*
X104450952Y-172551428D01*
X104450952Y-172360952D01*
X104498571Y-172265714D01*
X104546190Y-172218095D01*
X104641428Y-172170476D01*
X104831904Y-172170476D01*
X104927142Y-172218095D01*
X104974761Y-172265714D01*
X105022380Y-172360952D01*
X105022380Y-172551428D01*
X104974761Y-172646666D01*
X104927142Y-172694285D01*
X104831904Y-172741904D01*
X104641428Y-172741904D01*
X104546190Y-172694285D01*
X104498571Y-172646666D01*
X104450952Y-172551428D01*
%TO.C,C4*%
X113347142Y-139053333D02*
X113394761Y-139005714D01*
X113442380Y-138862857D01*
X113442380Y-138767619D01*
X113394761Y-138624761D01*
X113299523Y-138529523D01*
X113204285Y-138481904D01*
X113013809Y-138434285D01*
X112870952Y-138434285D01*
X112680476Y-138481904D01*
X112585238Y-138529523D01*
X112490000Y-138624761D01*
X112442380Y-138767619D01*
X112442380Y-138862857D01*
X112490000Y-139005714D01*
X112537619Y-139053333D01*
X112775714Y-139910476D02*
X113442380Y-139910476D01*
X112394761Y-139672380D02*
X113109047Y-139434285D01*
X113109047Y-140053333D01*
%TO.C,D17*%
X110952380Y-114545714D02*
X109952380Y-114545714D01*
X109952380Y-114783809D01*
X110000000Y-114926666D01*
X110095238Y-115021904D01*
X110190476Y-115069523D01*
X110380952Y-115117142D01*
X110523809Y-115117142D01*
X110714285Y-115069523D01*
X110809523Y-115021904D01*
X110904761Y-114926666D01*
X110952380Y-114783809D01*
X110952380Y-114545714D01*
X110952380Y-116069523D02*
X110952380Y-115498095D01*
X110952380Y-115783809D02*
X109952380Y-115783809D01*
X110095238Y-115688571D01*
X110190476Y-115593333D01*
X110238095Y-115498095D01*
X109952380Y-116402857D02*
X109952380Y-117069523D01*
X110952380Y-116640952D01*
%TO.C,D26*%
X94592380Y-169215714D02*
X93592380Y-169215714D01*
X93592380Y-169453809D01*
X93640000Y-169596666D01*
X93735238Y-169691904D01*
X93830476Y-169739523D01*
X94020952Y-169787142D01*
X94163809Y-169787142D01*
X94354285Y-169739523D01*
X94449523Y-169691904D01*
X94544761Y-169596666D01*
X94592380Y-169453809D01*
X94592380Y-169215714D01*
X93687619Y-170168095D02*
X93640000Y-170215714D01*
X93592380Y-170310952D01*
X93592380Y-170549047D01*
X93640000Y-170644285D01*
X93687619Y-170691904D01*
X93782857Y-170739523D01*
X93878095Y-170739523D01*
X94020952Y-170691904D01*
X94592380Y-170120476D01*
X94592380Y-170739523D01*
X93592380Y-171596666D02*
X93592380Y-171406190D01*
X93640000Y-171310952D01*
X93687619Y-171263333D01*
X93830476Y-171168095D01*
X94020952Y-171120476D01*
X94401904Y-171120476D01*
X94497142Y-171168095D01*
X94544761Y-171215714D01*
X94592380Y-171310952D01*
X94592380Y-171501428D01*
X94544761Y-171596666D01*
X94497142Y-171644285D01*
X94401904Y-171691904D01*
X94163809Y-171691904D01*
X94068571Y-171644285D01*
X94020952Y-171596666D01*
X93973333Y-171501428D01*
X93973333Y-171310952D01*
X94020952Y-171215714D01*
X94068571Y-171168095D01*
X94163809Y-171120476D01*
%TO.C,D12*%
X124974285Y-89422380D02*
X124974285Y-88422380D01*
X124736190Y-88422380D01*
X124593333Y-88470000D01*
X124498095Y-88565238D01*
X124450476Y-88660476D01*
X124402857Y-88850952D01*
X124402857Y-88993809D01*
X124450476Y-89184285D01*
X124498095Y-89279523D01*
X124593333Y-89374761D01*
X124736190Y-89422380D01*
X124974285Y-89422380D01*
X123450476Y-89422380D02*
X124021904Y-89422380D01*
X123736190Y-89422380D02*
X123736190Y-88422380D01*
X123831428Y-88565238D01*
X123926666Y-88660476D01*
X124021904Y-88708095D01*
X123069523Y-88517619D02*
X123021904Y-88470000D01*
X122926666Y-88422380D01*
X122688571Y-88422380D01*
X122593333Y-88470000D01*
X122545714Y-88517619D01*
X122498095Y-88612857D01*
X122498095Y-88708095D01*
X122545714Y-88850952D01*
X123117142Y-89422380D01*
X122498095Y-89422380D01*
%TO.C,C3*%
X115827142Y-139063333D02*
X115874761Y-139015714D01*
X115922380Y-138872857D01*
X115922380Y-138777619D01*
X115874761Y-138634761D01*
X115779523Y-138539523D01*
X115684285Y-138491904D01*
X115493809Y-138444285D01*
X115350952Y-138444285D01*
X115160476Y-138491904D01*
X115065238Y-138539523D01*
X114970000Y-138634761D01*
X114922380Y-138777619D01*
X114922380Y-138872857D01*
X114970000Y-139015714D01*
X115017619Y-139063333D01*
X114922380Y-139396666D02*
X114922380Y-140015714D01*
X115303333Y-139682380D01*
X115303333Y-139825238D01*
X115350952Y-139920476D01*
X115398571Y-139968095D01*
X115493809Y-140015714D01*
X115731904Y-140015714D01*
X115827142Y-139968095D01*
X115874761Y-139920476D01*
X115922380Y-139825238D01*
X115922380Y-139539523D01*
X115874761Y-139444285D01*
X115827142Y-139396666D01*
%TO.C,R3*%
X95886666Y-63552380D02*
X96220000Y-63076190D01*
X96458095Y-63552380D02*
X96458095Y-62552380D01*
X96077142Y-62552380D01*
X95981904Y-62600000D01*
X95934285Y-62647619D01*
X95886666Y-62742857D01*
X95886666Y-62885714D01*
X95934285Y-62980952D01*
X95981904Y-63028571D01*
X96077142Y-63076190D01*
X96458095Y-63076190D01*
X95553333Y-62552380D02*
X94934285Y-62552380D01*
X95267619Y-62933333D01*
X95124761Y-62933333D01*
X95029523Y-62980952D01*
X94981904Y-63028571D01*
X94934285Y-63123809D01*
X94934285Y-63361904D01*
X94981904Y-63457142D01*
X95029523Y-63504761D01*
X95124761Y-63552380D01*
X95410476Y-63552380D01*
X95505714Y-63504761D01*
X95553333Y-63457142D01*
%TO.C,D4*%
X104548095Y-213292380D02*
X104548095Y-212292380D01*
X104310000Y-212292380D01*
X104167142Y-212340000D01*
X104071904Y-212435238D01*
X104024285Y-212530476D01*
X103976666Y-212720952D01*
X103976666Y-212863809D01*
X104024285Y-213054285D01*
X104071904Y-213149523D01*
X104167142Y-213244761D01*
X104310000Y-213292380D01*
X104548095Y-213292380D01*
X103119523Y-212625714D02*
X103119523Y-213292380D01*
X103357619Y-212244761D02*
X103595714Y-212959047D01*
X102976666Y-212959047D01*
%TO.C,R1*%
X100166666Y-63532380D02*
X100500000Y-63056190D01*
X100738095Y-63532380D02*
X100738095Y-62532380D01*
X100357142Y-62532380D01*
X100261904Y-62580000D01*
X100214285Y-62627619D01*
X100166666Y-62722857D01*
X100166666Y-62865714D01*
X100214285Y-62960952D01*
X100261904Y-63008571D01*
X100357142Y-63056190D01*
X100738095Y-63056190D01*
X99214285Y-63532380D02*
X99785714Y-63532380D01*
X99500000Y-63532380D02*
X99500000Y-62532380D01*
X99595238Y-62675238D01*
X99690476Y-62770476D01*
X99785714Y-62818095D01*
%TO.C,J4*%
X86293333Y-55462380D02*
X86293333Y-56176666D01*
X86340952Y-56319523D01*
X86436190Y-56414761D01*
X86579047Y-56462380D01*
X86674285Y-56462380D01*
X85388571Y-55795714D02*
X85388571Y-56462380D01*
X85626666Y-55414761D02*
X85864761Y-56129047D01*
X85245714Y-56129047D01*
%TO.C,D18*%
X90634285Y-192642380D02*
X90634285Y-191642380D01*
X90396190Y-191642380D01*
X90253333Y-191690000D01*
X90158095Y-191785238D01*
X90110476Y-191880476D01*
X90062857Y-192070952D01*
X90062857Y-192213809D01*
X90110476Y-192404285D01*
X90158095Y-192499523D01*
X90253333Y-192594761D01*
X90396190Y-192642380D01*
X90634285Y-192642380D01*
X89110476Y-192642380D02*
X89681904Y-192642380D01*
X89396190Y-192642380D02*
X89396190Y-191642380D01*
X89491428Y-191785238D01*
X89586666Y-191880476D01*
X89681904Y-191928095D01*
X88539047Y-192070952D02*
X88634285Y-192023333D01*
X88681904Y-191975714D01*
X88729523Y-191880476D01*
X88729523Y-191832857D01*
X88681904Y-191737619D01*
X88634285Y-191690000D01*
X88539047Y-191642380D01*
X88348571Y-191642380D01*
X88253333Y-191690000D01*
X88205714Y-191737619D01*
X88158095Y-191832857D01*
X88158095Y-191880476D01*
X88205714Y-191975714D01*
X88253333Y-192023333D01*
X88348571Y-192070952D01*
X88539047Y-192070952D01*
X88634285Y-192118571D01*
X88681904Y-192166190D01*
X88729523Y-192261428D01*
X88729523Y-192451904D01*
X88681904Y-192547142D01*
X88634285Y-192594761D01*
X88539047Y-192642380D01*
X88348571Y-192642380D01*
X88253333Y-192594761D01*
X88205714Y-192547142D01*
X88158095Y-192451904D01*
X88158095Y-192261428D01*
X88205714Y-192166190D01*
X88253333Y-192118571D01*
X88348571Y-192070952D01*
%TO.C,D27*%
X115152380Y-169485714D02*
X114152380Y-169485714D01*
X114152380Y-169723809D01*
X114200000Y-169866666D01*
X114295238Y-169961904D01*
X114390476Y-170009523D01*
X114580952Y-170057142D01*
X114723809Y-170057142D01*
X114914285Y-170009523D01*
X115009523Y-169961904D01*
X115104761Y-169866666D01*
X115152380Y-169723809D01*
X115152380Y-169485714D01*
X114247619Y-170438095D02*
X114200000Y-170485714D01*
X114152380Y-170580952D01*
X114152380Y-170819047D01*
X114200000Y-170914285D01*
X114247619Y-170961904D01*
X114342857Y-171009523D01*
X114438095Y-171009523D01*
X114580952Y-170961904D01*
X115152380Y-170390476D01*
X115152380Y-171009523D01*
X114152380Y-171342857D02*
X114152380Y-172009523D01*
X115152380Y-171580952D01*
%TO.C,D10*%
X81314285Y-80642380D02*
X81314285Y-79642380D01*
X81076190Y-79642380D01*
X80933333Y-79690000D01*
X80838095Y-79785238D01*
X80790476Y-79880476D01*
X80742857Y-80070952D01*
X80742857Y-80213809D01*
X80790476Y-80404285D01*
X80838095Y-80499523D01*
X80933333Y-80594761D01*
X81076190Y-80642380D01*
X81314285Y-80642380D01*
X79790476Y-80642380D02*
X80361904Y-80642380D01*
X80076190Y-80642380D02*
X80076190Y-79642380D01*
X80171428Y-79785238D01*
X80266666Y-79880476D01*
X80361904Y-79928095D01*
X79171428Y-79642380D02*
X79076190Y-79642380D01*
X78980952Y-79690000D01*
X78933333Y-79737619D01*
X78885714Y-79832857D01*
X78838095Y-80023333D01*
X78838095Y-80261428D01*
X78885714Y-80451904D01*
X78933333Y-80547142D01*
X78980952Y-80594761D01*
X79076190Y-80642380D01*
X79171428Y-80642380D01*
X79266666Y-80594761D01*
X79314285Y-80547142D01*
X79361904Y-80451904D01*
X79409523Y-80261428D01*
X79409523Y-80023333D01*
X79361904Y-79832857D01*
X79314285Y-79737619D01*
X79266666Y-79690000D01*
X79171428Y-79642380D01*
%TO.C,D14*%
X80834285Y-89402380D02*
X80834285Y-88402380D01*
X80596190Y-88402380D01*
X80453333Y-88450000D01*
X80358095Y-88545238D01*
X80310476Y-88640476D01*
X80262857Y-88830952D01*
X80262857Y-88973809D01*
X80310476Y-89164285D01*
X80358095Y-89259523D01*
X80453333Y-89354761D01*
X80596190Y-89402380D01*
X80834285Y-89402380D01*
X79310476Y-89402380D02*
X79881904Y-89402380D01*
X79596190Y-89402380D02*
X79596190Y-88402380D01*
X79691428Y-88545238D01*
X79786666Y-88640476D01*
X79881904Y-88688095D01*
X78453333Y-88735714D02*
X78453333Y-89402380D01*
X78691428Y-88354761D02*
X78929523Y-89069047D01*
X78310476Y-89069047D01*
%TO.C,U1*%
X108321904Y-140782380D02*
X108321904Y-141591904D01*
X108274285Y-141687142D01*
X108226666Y-141734761D01*
X108131428Y-141782380D01*
X107940952Y-141782380D01*
X107845714Y-141734761D01*
X107798095Y-141687142D01*
X107750476Y-141591904D01*
X107750476Y-140782380D01*
X106750476Y-141782380D02*
X107321904Y-141782380D01*
X107036190Y-141782380D02*
X107036190Y-140782380D01*
X107131428Y-140925238D01*
X107226666Y-141020476D01*
X107321904Y-141068095D01*
%TO.C,R4*%
X99062380Y-141233333D02*
X98586190Y-140900000D01*
X99062380Y-140661904D02*
X98062380Y-140661904D01*
X98062380Y-141042857D01*
X98110000Y-141138095D01*
X98157619Y-141185714D01*
X98252857Y-141233333D01*
X98395714Y-141233333D01*
X98490952Y-141185714D01*
X98538571Y-141138095D01*
X98586190Y-141042857D01*
X98586190Y-140661904D01*
X98395714Y-142090476D02*
X99062380Y-142090476D01*
X98014761Y-141852380D02*
X98729047Y-141614285D01*
X98729047Y-142233333D01*
%TO.C,D20*%
X114824285Y-185572380D02*
X114824285Y-184572380D01*
X114586190Y-184572380D01*
X114443333Y-184620000D01*
X114348095Y-184715238D01*
X114300476Y-184810476D01*
X114252857Y-185000952D01*
X114252857Y-185143809D01*
X114300476Y-185334285D01*
X114348095Y-185429523D01*
X114443333Y-185524761D01*
X114586190Y-185572380D01*
X114824285Y-185572380D01*
X113871904Y-184667619D02*
X113824285Y-184620000D01*
X113729047Y-184572380D01*
X113490952Y-184572380D01*
X113395714Y-184620000D01*
X113348095Y-184667619D01*
X113300476Y-184762857D01*
X113300476Y-184858095D01*
X113348095Y-185000952D01*
X113919523Y-185572380D01*
X113300476Y-185572380D01*
X112681428Y-184572380D02*
X112586190Y-184572380D01*
X112490952Y-184620000D01*
X112443333Y-184667619D01*
X112395714Y-184762857D01*
X112348095Y-184953333D01*
X112348095Y-185191428D01*
X112395714Y-185381904D01*
X112443333Y-185477142D01*
X112490952Y-185524761D01*
X112586190Y-185572380D01*
X112681428Y-185572380D01*
X112776666Y-185524761D01*
X112824285Y-185477142D01*
X112871904Y-185381904D01*
X112919523Y-185191428D01*
X112919523Y-184953333D01*
X112871904Y-184762857D01*
X112824285Y-184667619D01*
X112776666Y-184620000D01*
X112681428Y-184572380D01*
%TO.C,D22*%
X108514285Y-53852380D02*
X108514285Y-52852380D01*
X108276190Y-52852380D01*
X108133333Y-52900000D01*
X108038095Y-52995238D01*
X107990476Y-53090476D01*
X107942857Y-53280952D01*
X107942857Y-53423809D01*
X107990476Y-53614285D01*
X108038095Y-53709523D01*
X108133333Y-53804761D01*
X108276190Y-53852380D01*
X108514285Y-53852380D01*
X107561904Y-52947619D02*
X107514285Y-52900000D01*
X107419047Y-52852380D01*
X107180952Y-52852380D01*
X107085714Y-52900000D01*
X107038095Y-52947619D01*
X106990476Y-53042857D01*
X106990476Y-53138095D01*
X107038095Y-53280952D01*
X107609523Y-53852380D01*
X106990476Y-53852380D01*
X106609523Y-52947619D02*
X106561904Y-52900000D01*
X106466666Y-52852380D01*
X106228571Y-52852380D01*
X106133333Y-52900000D01*
X106085714Y-52947619D01*
X106038095Y-53042857D01*
X106038095Y-53138095D01*
X106085714Y-53280952D01*
X106657142Y-53852380D01*
X106038095Y-53852380D01*
%TO.C,D5*%
X119928095Y-206282380D02*
X119928095Y-205282380D01*
X119690000Y-205282380D01*
X119547142Y-205330000D01*
X119451904Y-205425238D01*
X119404285Y-205520476D01*
X119356666Y-205710952D01*
X119356666Y-205853809D01*
X119404285Y-206044285D01*
X119451904Y-206139523D01*
X119547142Y-206234761D01*
X119690000Y-206282380D01*
X119928095Y-206282380D01*
X118451904Y-205282380D02*
X118928095Y-205282380D01*
X118975714Y-205758571D01*
X118928095Y-205710952D01*
X118832857Y-205663333D01*
X118594761Y-205663333D01*
X118499523Y-205710952D01*
X118451904Y-205758571D01*
X118404285Y-205853809D01*
X118404285Y-206091904D01*
X118451904Y-206187142D01*
X118499523Y-206234761D01*
X118594761Y-206282380D01*
X118832857Y-206282380D01*
X118928095Y-206234761D01*
X118975714Y-206187142D01*
%TO.C,D2*%
X100178095Y-220412380D02*
X100178095Y-219412380D01*
X99940000Y-219412380D01*
X99797142Y-219460000D01*
X99701904Y-219555238D01*
X99654285Y-219650476D01*
X99606666Y-219840952D01*
X99606666Y-219983809D01*
X99654285Y-220174285D01*
X99701904Y-220269523D01*
X99797142Y-220364761D01*
X99940000Y-220412380D01*
X100178095Y-220412380D01*
X99225714Y-219507619D02*
X99178095Y-219460000D01*
X99082857Y-219412380D01*
X98844761Y-219412380D01*
X98749523Y-219460000D01*
X98701904Y-219507619D01*
X98654285Y-219602857D01*
X98654285Y-219698095D01*
X98701904Y-219840952D01*
X99273333Y-220412380D01*
X98654285Y-220412380D01*
%TO.C,D15*%
X97354285Y-53812380D02*
X97354285Y-52812380D01*
X97116190Y-52812380D01*
X96973333Y-52860000D01*
X96878095Y-52955238D01*
X96830476Y-53050476D01*
X96782857Y-53240952D01*
X96782857Y-53383809D01*
X96830476Y-53574285D01*
X96878095Y-53669523D01*
X96973333Y-53764761D01*
X97116190Y-53812380D01*
X97354285Y-53812380D01*
X95830476Y-53812380D02*
X96401904Y-53812380D01*
X96116190Y-53812380D02*
X96116190Y-52812380D01*
X96211428Y-52955238D01*
X96306666Y-53050476D01*
X96401904Y-53098095D01*
X94925714Y-52812380D02*
X95401904Y-52812380D01*
X95449523Y-53288571D01*
X95401904Y-53240952D01*
X95306666Y-53193333D01*
X95068571Y-53193333D01*
X94973333Y-53240952D01*
X94925714Y-53288571D01*
X94878095Y-53383809D01*
X94878095Y-53621904D01*
X94925714Y-53717142D01*
X94973333Y-53764761D01*
X95068571Y-53812380D01*
X95306666Y-53812380D01*
X95401904Y-53764761D01*
X95449523Y-53717142D01*
%TO.C,D7*%
X85208095Y-206432380D02*
X85208095Y-205432380D01*
X84970000Y-205432380D01*
X84827142Y-205480000D01*
X84731904Y-205575238D01*
X84684285Y-205670476D01*
X84636666Y-205860952D01*
X84636666Y-206003809D01*
X84684285Y-206194285D01*
X84731904Y-206289523D01*
X84827142Y-206384761D01*
X84970000Y-206432380D01*
X85208095Y-206432380D01*
X84303333Y-205432380D02*
X83636666Y-205432380D01*
X84065238Y-206432380D01*
%TO.C,D8*%
X119298095Y-213852380D02*
X119298095Y-212852380D01*
X119060000Y-212852380D01*
X118917142Y-212900000D01*
X118821904Y-212995238D01*
X118774285Y-213090476D01*
X118726666Y-213280952D01*
X118726666Y-213423809D01*
X118774285Y-213614285D01*
X118821904Y-213709523D01*
X118917142Y-213804761D01*
X119060000Y-213852380D01*
X119298095Y-213852380D01*
X118155238Y-213280952D02*
X118250476Y-213233333D01*
X118298095Y-213185714D01*
X118345714Y-213090476D01*
X118345714Y-213042857D01*
X118298095Y-212947619D01*
X118250476Y-212900000D01*
X118155238Y-212852380D01*
X117964761Y-212852380D01*
X117869523Y-212900000D01*
X117821904Y-212947619D01*
X117774285Y-213042857D01*
X117774285Y-213090476D01*
X117821904Y-213185714D01*
X117869523Y-213233333D01*
X117964761Y-213280952D01*
X118155238Y-213280952D01*
X118250476Y-213328571D01*
X118298095Y-213376190D01*
X118345714Y-213471428D01*
X118345714Y-213661904D01*
X118298095Y-213757142D01*
X118250476Y-213804761D01*
X118155238Y-213852380D01*
X117964761Y-213852380D01*
X117869523Y-213804761D01*
X117821904Y-213757142D01*
X117774285Y-213661904D01*
X117774285Y-213471428D01*
X117821904Y-213376190D01*
X117869523Y-213328571D01*
X117964761Y-213280952D01*
%TO.C,D13*%
X121304285Y-129116380D02*
X121304285Y-128116380D01*
X121066190Y-128116380D01*
X120923333Y-128164000D01*
X120828095Y-128259238D01*
X120780476Y-128354476D01*
X120732857Y-128544952D01*
X120732857Y-128687809D01*
X120780476Y-128878285D01*
X120828095Y-128973523D01*
X120923333Y-129068761D01*
X121066190Y-129116380D01*
X121304285Y-129116380D01*
X119780476Y-129116380D02*
X120351904Y-129116380D01*
X120066190Y-129116380D02*
X120066190Y-128116380D01*
X120161428Y-128259238D01*
X120256666Y-128354476D01*
X120351904Y-128402095D01*
X119447142Y-128116380D02*
X118828095Y-128116380D01*
X119161428Y-128497333D01*
X119018571Y-128497333D01*
X118923333Y-128544952D01*
X118875714Y-128592571D01*
X118828095Y-128687809D01*
X118828095Y-128925904D01*
X118875714Y-129021142D01*
X118923333Y-129068761D01*
X119018571Y-129116380D01*
X119304285Y-129116380D01*
X119399523Y-129068761D01*
X119447142Y-129021142D01*
%TO.C,J2*%
X101943333Y-47002380D02*
X101943333Y-47716666D01*
X101990952Y-47859523D01*
X102086190Y-47954761D01*
X102229047Y-48002380D01*
X102324285Y-48002380D01*
X101514761Y-47097619D02*
X101467142Y-47050000D01*
X101371904Y-47002380D01*
X101133809Y-47002380D01*
X101038571Y-47050000D01*
X100990952Y-47097619D01*
X100943333Y-47192857D01*
X100943333Y-47288095D01*
X100990952Y-47430952D01*
X101562380Y-48002380D01*
X100943333Y-48002380D01*
%TO.C,C2*%
X101897142Y-141103333D02*
X101944761Y-141055714D01*
X101992380Y-140912857D01*
X101992380Y-140817619D01*
X101944761Y-140674761D01*
X101849523Y-140579523D01*
X101754285Y-140531904D01*
X101563809Y-140484285D01*
X101420952Y-140484285D01*
X101230476Y-140531904D01*
X101135238Y-140579523D01*
X101040000Y-140674761D01*
X100992380Y-140817619D01*
X100992380Y-140912857D01*
X101040000Y-141055714D01*
X101087619Y-141103333D01*
X101087619Y-141484285D02*
X101040000Y-141531904D01*
X100992380Y-141627142D01*
X100992380Y-141865238D01*
X101040000Y-141960476D01*
X101087619Y-142008095D01*
X101182857Y-142055714D01*
X101278095Y-142055714D01*
X101420952Y-142008095D01*
X101992380Y-141436666D01*
X101992380Y-142055714D01*
%TO.C,D3*%
X112062380Y-216491904D02*
X111062380Y-216491904D01*
X111062380Y-216730000D01*
X111110000Y-216872857D01*
X111205238Y-216968095D01*
X111300476Y-217015714D01*
X111490952Y-217063333D01*
X111633809Y-217063333D01*
X111824285Y-217015714D01*
X111919523Y-216968095D01*
X112014761Y-216872857D01*
X112062380Y-216730000D01*
X112062380Y-216491904D01*
X111062380Y-217396666D02*
X111062380Y-218015714D01*
X111443333Y-217682380D01*
X111443333Y-217825238D01*
X111490952Y-217920476D01*
X111538571Y-217968095D01*
X111633809Y-218015714D01*
X111871904Y-218015714D01*
X111967142Y-217968095D01*
X112014761Y-217920476D01*
X112062380Y-217825238D01*
X112062380Y-217539523D01*
X112014761Y-217444285D01*
X111967142Y-217396666D01*
%TO.C,D25*%
X121182380Y-115085714D02*
X120182380Y-115085714D01*
X120182380Y-115323809D01*
X120230000Y-115466666D01*
X120325238Y-115561904D01*
X120420476Y-115609523D01*
X120610952Y-115657142D01*
X120753809Y-115657142D01*
X120944285Y-115609523D01*
X121039523Y-115561904D01*
X121134761Y-115466666D01*
X121182380Y-115323809D01*
X121182380Y-115085714D01*
X120277619Y-116038095D02*
X120230000Y-116085714D01*
X120182380Y-116180952D01*
X120182380Y-116419047D01*
X120230000Y-116514285D01*
X120277619Y-116561904D01*
X120372857Y-116609523D01*
X120468095Y-116609523D01*
X120610952Y-116561904D01*
X121182380Y-115990476D01*
X121182380Y-116609523D01*
X120182380Y-117514285D02*
X120182380Y-117038095D01*
X120658571Y-116990476D01*
X120610952Y-117038095D01*
X120563333Y-117133333D01*
X120563333Y-117371428D01*
X120610952Y-117466666D01*
X120658571Y-117514285D01*
X120753809Y-117561904D01*
X120991904Y-117561904D01*
X121087142Y-117514285D01*
X121134761Y-117466666D01*
X121182380Y-117371428D01*
X121182380Y-117133333D01*
X121134761Y-117038095D01*
X121087142Y-116990476D01*
%TO.C,D31*%
X98522380Y-114455714D02*
X97522380Y-114455714D01*
X97522380Y-114693809D01*
X97570000Y-114836666D01*
X97665238Y-114931904D01*
X97760476Y-114979523D01*
X97950952Y-115027142D01*
X98093809Y-115027142D01*
X98284285Y-114979523D01*
X98379523Y-114931904D01*
X98474761Y-114836666D01*
X98522380Y-114693809D01*
X98522380Y-114455714D01*
X97522380Y-115360476D02*
X97522380Y-115979523D01*
X97903333Y-115646190D01*
X97903333Y-115789047D01*
X97950952Y-115884285D01*
X97998571Y-115931904D01*
X98093809Y-115979523D01*
X98331904Y-115979523D01*
X98427142Y-115931904D01*
X98474761Y-115884285D01*
X98522380Y-115789047D01*
X98522380Y-115503333D01*
X98474761Y-115408095D01*
X98427142Y-115360476D01*
X98522380Y-116931904D02*
X98522380Y-116360476D01*
X98522380Y-116646190D02*
X97522380Y-116646190D01*
X97665238Y-116550952D01*
X97760476Y-116455714D01*
X97808095Y-116360476D01*
%TO.C,D6*%
X85858095Y-213572380D02*
X85858095Y-212572380D01*
X85620000Y-212572380D01*
X85477142Y-212620000D01*
X85381904Y-212715238D01*
X85334285Y-212810476D01*
X85286666Y-213000952D01*
X85286666Y-213143809D01*
X85334285Y-213334285D01*
X85381904Y-213429523D01*
X85477142Y-213524761D01*
X85620000Y-213572380D01*
X85858095Y-213572380D01*
X84429523Y-212572380D02*
X84620000Y-212572380D01*
X84715238Y-212620000D01*
X84762857Y-212667619D01*
X84858095Y-212810476D01*
X84905714Y-213000952D01*
X84905714Y-213381904D01*
X84858095Y-213477142D01*
X84810476Y-213524761D01*
X84715238Y-213572380D01*
X84524761Y-213572380D01*
X84429523Y-213524761D01*
X84381904Y-213477142D01*
X84334285Y-213381904D01*
X84334285Y-213143809D01*
X84381904Y-213048571D01*
X84429523Y-213000952D01*
X84524761Y-212953333D01*
X84715238Y-212953333D01*
X84810476Y-213000952D01*
X84858095Y-213048571D01*
X84905714Y-213143809D01*
%TO.C,D16*%
X88727380Y-114910714D02*
X87727380Y-114910714D01*
X87727380Y-115148809D01*
X87775000Y-115291666D01*
X87870238Y-115386904D01*
X87965476Y-115434523D01*
X88155952Y-115482142D01*
X88298809Y-115482142D01*
X88489285Y-115434523D01*
X88584523Y-115386904D01*
X88679761Y-115291666D01*
X88727380Y-115148809D01*
X88727380Y-114910714D01*
X88727380Y-116434523D02*
X88727380Y-115863095D01*
X88727380Y-116148809D02*
X87727380Y-116148809D01*
X87870238Y-116053571D01*
X87965476Y-115958333D01*
X88013095Y-115863095D01*
X87727380Y-117291666D02*
X87727380Y-117101190D01*
X87775000Y-117005952D01*
X87822619Y-116958333D01*
X87965476Y-116863095D01*
X88155952Y-116815476D01*
X88536904Y-116815476D01*
X88632142Y-116863095D01*
X88679761Y-116910714D01*
X88727380Y-117005952D01*
X88727380Y-117196428D01*
X88679761Y-117291666D01*
X88632142Y-117339285D01*
X88536904Y-117386904D01*
X88298809Y-117386904D01*
X88203571Y-117339285D01*
X88155952Y-117291666D01*
X88108333Y-117196428D01*
X88108333Y-117005952D01*
X88155952Y-116910714D01*
X88203571Y-116863095D01*
X88298809Y-116815476D01*
%TO.C,D9*%
X83938095Y-128726380D02*
X83938095Y-127726380D01*
X83700000Y-127726380D01*
X83557142Y-127774000D01*
X83461904Y-127869238D01*
X83414285Y-127964476D01*
X83366666Y-128154952D01*
X83366666Y-128297809D01*
X83414285Y-128488285D01*
X83461904Y-128583523D01*
X83557142Y-128678761D01*
X83700000Y-128726380D01*
X83938095Y-128726380D01*
X82890476Y-128726380D02*
X82700000Y-128726380D01*
X82604761Y-128678761D01*
X82557142Y-128631142D01*
X82461904Y-128488285D01*
X82414285Y-128297809D01*
X82414285Y-127916857D01*
X82461904Y-127821619D01*
X82509523Y-127774000D01*
X82604761Y-127726380D01*
X82795238Y-127726380D01*
X82890476Y-127774000D01*
X82938095Y-127821619D01*
X82985714Y-127916857D01*
X82985714Y-128154952D01*
X82938095Y-128250190D01*
X82890476Y-128297809D01*
X82795238Y-128345428D01*
X82604761Y-128345428D01*
X82509523Y-128297809D01*
X82461904Y-128250190D01*
X82414285Y-128154952D01*
%TO.C,Q1*%
X98425238Y-59647619D02*
X98520476Y-59600000D01*
X98615714Y-59504761D01*
X98758571Y-59361904D01*
X98853809Y-59314285D01*
X98949047Y-59314285D01*
X98901428Y-59552380D02*
X98996666Y-59504761D01*
X99091904Y-59409523D01*
X99139523Y-59219047D01*
X99139523Y-58885714D01*
X99091904Y-58695238D01*
X98996666Y-58600000D01*
X98901428Y-58552380D01*
X98710952Y-58552380D01*
X98615714Y-58600000D01*
X98520476Y-58695238D01*
X98472857Y-58885714D01*
X98472857Y-59219047D01*
X98520476Y-59409523D01*
X98615714Y-59504761D01*
X98710952Y-59552380D01*
X98901428Y-59552380D01*
X97520476Y-59552380D02*
X98091904Y-59552380D01*
X97806190Y-59552380D02*
X97806190Y-58552380D01*
X97901428Y-58695238D01*
X97996666Y-58790476D01*
X98091904Y-58838095D01*
%TO.C,R2*%
X95382380Y-68763333D02*
X94906190Y-68430000D01*
X95382380Y-68191904D02*
X94382380Y-68191904D01*
X94382380Y-68572857D01*
X94430000Y-68668095D01*
X94477619Y-68715714D01*
X94572857Y-68763333D01*
X94715714Y-68763333D01*
X94810952Y-68715714D01*
X94858571Y-68668095D01*
X94906190Y-68572857D01*
X94906190Y-68191904D01*
X94477619Y-69144285D02*
X94430000Y-69191904D01*
X94382380Y-69287142D01*
X94382380Y-69525238D01*
X94430000Y-69620476D01*
X94477619Y-69668095D01*
X94572857Y-69715714D01*
X94668095Y-69715714D01*
X94810952Y-69668095D01*
X95382380Y-69096666D01*
X95382380Y-69715714D01*
%TO.C,D30*%
X100894285Y-206042380D02*
X100894285Y-205042380D01*
X100656190Y-205042380D01*
X100513333Y-205090000D01*
X100418095Y-205185238D01*
X100370476Y-205280476D01*
X100322857Y-205470952D01*
X100322857Y-205613809D01*
X100370476Y-205804285D01*
X100418095Y-205899523D01*
X100513333Y-205994761D01*
X100656190Y-206042380D01*
X100894285Y-206042380D01*
X99989523Y-205042380D02*
X99370476Y-205042380D01*
X99703809Y-205423333D01*
X99560952Y-205423333D01*
X99465714Y-205470952D01*
X99418095Y-205518571D01*
X99370476Y-205613809D01*
X99370476Y-205851904D01*
X99418095Y-205947142D01*
X99465714Y-205994761D01*
X99560952Y-206042380D01*
X99846666Y-206042380D01*
X99941904Y-205994761D01*
X99989523Y-205947142D01*
X98751428Y-205042380D02*
X98656190Y-205042380D01*
X98560952Y-205090000D01*
X98513333Y-205137619D01*
X98465714Y-205232857D01*
X98418095Y-205423333D01*
X98418095Y-205661428D01*
X98465714Y-205851904D01*
X98513333Y-205947142D01*
X98560952Y-205994761D01*
X98656190Y-206042380D01*
X98751428Y-206042380D01*
X98846666Y-205994761D01*
X98894285Y-205947142D01*
X98941904Y-205851904D01*
X98989523Y-205661428D01*
X98989523Y-205423333D01*
X98941904Y-205232857D01*
X98894285Y-205137619D01*
X98846666Y-205090000D01*
X98751428Y-205042380D01*
%TO.C,J5*%
X97793333Y-153932380D02*
X97793333Y-154646666D01*
X97840952Y-154789523D01*
X97936190Y-154884761D01*
X98079047Y-154932380D01*
X98174285Y-154932380D01*
X96840952Y-153932380D02*
X97317142Y-153932380D01*
X97364761Y-154408571D01*
X97317142Y-154360952D01*
X97221904Y-154313333D01*
X96983809Y-154313333D01*
X96888571Y-154360952D01*
X96840952Y-154408571D01*
X96793333Y-154503809D01*
X96793333Y-154741904D01*
X96840952Y-154837142D01*
X96888571Y-154884761D01*
X96983809Y-154932380D01*
X97221904Y-154932380D01*
X97317142Y-154884761D01*
X97364761Y-154837142D01*
%TO.C,D29*%
X90954285Y-185882380D02*
X90954285Y-184882380D01*
X90716190Y-184882380D01*
X90573333Y-184930000D01*
X90478095Y-185025238D01*
X90430476Y-185120476D01*
X90382857Y-185310952D01*
X90382857Y-185453809D01*
X90430476Y-185644285D01*
X90478095Y-185739523D01*
X90573333Y-185834761D01*
X90716190Y-185882380D01*
X90954285Y-185882380D01*
X90001904Y-184977619D02*
X89954285Y-184930000D01*
X89859047Y-184882380D01*
X89620952Y-184882380D01*
X89525714Y-184930000D01*
X89478095Y-184977619D01*
X89430476Y-185072857D01*
X89430476Y-185168095D01*
X89478095Y-185310952D01*
X90049523Y-185882380D01*
X89430476Y-185882380D01*
X88954285Y-185882380D02*
X88763809Y-185882380D01*
X88668571Y-185834761D01*
X88620952Y-185787142D01*
X88525714Y-185644285D01*
X88478095Y-185453809D01*
X88478095Y-185072857D01*
X88525714Y-184977619D01*
X88573333Y-184930000D01*
X88668571Y-184882380D01*
X88859047Y-184882380D01*
X88954285Y-184930000D01*
X89001904Y-184977619D01*
X89049523Y-185072857D01*
X89049523Y-185310952D01*
X89001904Y-185406190D01*
X88954285Y-185453809D01*
X88859047Y-185501428D01*
X88668571Y-185501428D01*
X88573333Y-185453809D01*
X88525714Y-185406190D01*
X88478095Y-185310952D01*
%TO.C,J3*%
X83713333Y-140002380D02*
X83713333Y-140716666D01*
X83760952Y-140859523D01*
X83856190Y-140954761D01*
X83999047Y-141002380D01*
X84094285Y-141002380D01*
X83332380Y-140002380D02*
X82713333Y-140002380D01*
X83046666Y-140383333D01*
X82903809Y-140383333D01*
X82808571Y-140430952D01*
X82760952Y-140478571D01*
X82713333Y-140573809D01*
X82713333Y-140811904D01*
X82760952Y-140907142D01*
X82808571Y-140954761D01*
X82903809Y-141002380D01*
X83189523Y-141002380D01*
X83284761Y-140954761D01*
X83332380Y-140907142D01*
%TO.C,D21*%
X115054285Y-192622380D02*
X115054285Y-191622380D01*
X114816190Y-191622380D01*
X114673333Y-191670000D01*
X114578095Y-191765238D01*
X114530476Y-191860476D01*
X114482857Y-192050952D01*
X114482857Y-192193809D01*
X114530476Y-192384285D01*
X114578095Y-192479523D01*
X114673333Y-192574761D01*
X114816190Y-192622380D01*
X115054285Y-192622380D01*
X114101904Y-191717619D02*
X114054285Y-191670000D01*
X113959047Y-191622380D01*
X113720952Y-191622380D01*
X113625714Y-191670000D01*
X113578095Y-191717619D01*
X113530476Y-191812857D01*
X113530476Y-191908095D01*
X113578095Y-192050952D01*
X114149523Y-192622380D01*
X113530476Y-192622380D01*
X112578095Y-192622380D02*
X113149523Y-192622380D01*
X112863809Y-192622380D02*
X112863809Y-191622380D01*
X112959047Y-191765238D01*
X113054285Y-191860476D01*
X113149523Y-191908095D01*
%TO.C,D23*%
X81124285Y-98192380D02*
X81124285Y-97192380D01*
X80886190Y-97192380D01*
X80743333Y-97240000D01*
X80648095Y-97335238D01*
X80600476Y-97430476D01*
X80552857Y-97620952D01*
X80552857Y-97763809D01*
X80600476Y-97954285D01*
X80648095Y-98049523D01*
X80743333Y-98144761D01*
X80886190Y-98192380D01*
X81124285Y-98192380D01*
X80171904Y-97287619D02*
X80124285Y-97240000D01*
X80029047Y-97192380D01*
X79790952Y-97192380D01*
X79695714Y-97240000D01*
X79648095Y-97287619D01*
X79600476Y-97382857D01*
X79600476Y-97478095D01*
X79648095Y-97620952D01*
X80219523Y-98192380D01*
X79600476Y-98192380D01*
X79267142Y-97192380D02*
X78648095Y-97192380D01*
X78981428Y-97573333D01*
X78838571Y-97573333D01*
X78743333Y-97620952D01*
X78695714Y-97668571D01*
X78648095Y-97763809D01*
X78648095Y-98001904D01*
X78695714Y-98097142D01*
X78743333Y-98144761D01*
X78838571Y-98192380D01*
X79124285Y-98192380D01*
X79219523Y-98144761D01*
X79267142Y-98097142D01*
%TO.C,D1*%
X93882380Y-216171904D02*
X92882380Y-216171904D01*
X92882380Y-216410000D01*
X92930000Y-216552857D01*
X93025238Y-216648095D01*
X93120476Y-216695714D01*
X93310952Y-216743333D01*
X93453809Y-216743333D01*
X93644285Y-216695714D01*
X93739523Y-216648095D01*
X93834761Y-216552857D01*
X93882380Y-216410000D01*
X93882380Y-216171904D01*
X93882380Y-217695714D02*
X93882380Y-217124285D01*
X93882380Y-217410000D02*
X92882380Y-217410000D01*
X93025238Y-217314761D01*
X93120476Y-217219523D01*
X93168095Y-217124285D01*
D12*
%TO.C,R6*%
X95968737Y-95090000D02*
X94521263Y-95090000D01*
X95968737Y-97800000D02*
X94521263Y-97800000D01*
%TO.C,R5*%
X96072064Y-99290000D02*
X95617936Y-99290000D01*
X96072064Y-100760000D02*
X95617936Y-100760000D01*
%TO.C,Q2*%
X94930000Y-90420000D02*
X94280000Y-90420000D01*
X94930000Y-90420000D02*
X95580000Y-90420000D01*
X94930000Y-87300000D02*
X94280000Y-87300000D01*
X94930000Y-87300000D02*
X96605000Y-87300000D01*
D11*
%TO.C,D19*%
X126240000Y-76320000D02*
X126240000Y-78320000D01*
X126240000Y-78320000D02*
X124640000Y-78320000D01*
X124740000Y-76320000D02*
X126240000Y-76320000D01*
%TO.C,D32*%
X96680000Y-182700000D02*
X98680000Y-182700000D01*
X98680000Y-182700000D02*
X98680000Y-184300000D01*
X96680000Y-184200000D02*
X96680000Y-182700000D01*
%TO.C,D24*%
X126560000Y-93750000D02*
X126560000Y-95750000D01*
X126560000Y-95750000D02*
X124960000Y-95750000D01*
X125060000Y-93750000D02*
X126560000Y-93750000D01*
D12*
%TO.C,C1*%
X103815000Y-67651252D02*
X103815000Y-67128748D01*
X102345000Y-67651252D02*
X102345000Y-67128748D01*
D11*
%TO.C,D11*%
X104450000Y-183050000D02*
X106450000Y-183050000D01*
X106450000Y-183050000D02*
X106450000Y-184650000D01*
X104450000Y-184550000D02*
X104450000Y-183050000D01*
%TO.C,D28*%
X100670000Y-168580000D02*
X102670000Y-168580000D01*
X102670000Y-168580000D02*
X102670000Y-170180000D01*
X100670000Y-170080000D02*
X100670000Y-168580000D01*
D12*
%TO.C,C4*%
X113515000Y-142291252D02*
X113515000Y-141768748D01*
X112045000Y-142291252D02*
X112045000Y-141768748D01*
D11*
%TO.C,D17*%
X106600000Y-112860000D02*
X108600000Y-112860000D01*
X108600000Y-112860000D02*
X108600000Y-114460000D01*
X106600000Y-114360000D02*
X106600000Y-112860000D01*
%TO.C,D26*%
X90240000Y-167530000D02*
X92240000Y-167530000D01*
X92240000Y-167530000D02*
X92240000Y-169130000D01*
X90240000Y-169030000D02*
X90240000Y-167530000D01*
%TO.C,D12*%
X126660000Y-85070000D02*
X126660000Y-87070000D01*
X126660000Y-87070000D02*
X125060000Y-87070000D01*
X125160000Y-85070000D02*
X126660000Y-85070000D01*
D12*
%TO.C,C3*%
X116195000Y-142211252D02*
X116195000Y-141688748D01*
X114725000Y-142211252D02*
X114725000Y-141688748D01*
%TO.C,R3*%
X96539564Y-63965000D02*
X96085436Y-63965000D01*
X96539564Y-65435000D02*
X96085436Y-65435000D01*
D11*
%TO.C,D4*%
X106710000Y-208940000D02*
X106710000Y-210940000D01*
X106710000Y-210940000D02*
X105110000Y-210940000D01*
X105210000Y-208940000D02*
X106710000Y-208940000D01*
D12*
%TO.C,R1*%
X100227064Y-63995000D02*
X99772936Y-63995000D01*
X100227064Y-65465000D02*
X99772936Y-65465000D01*
%TO.C,J4*%
X89570000Y-60270000D02*
X89570000Y-61870000D01*
X89570000Y-61870000D02*
X87770000Y-61870000D01*
X87770000Y-61870000D02*
X87770000Y-62810000D01*
X82350000Y-60270000D02*
X82350000Y-61870000D01*
X82350000Y-61870000D02*
X84150000Y-61870000D01*
X88300000Y-57400000D02*
X83620000Y-57400000D01*
D11*
%TO.C,D18*%
X92320000Y-188290000D02*
X92320000Y-190290000D01*
X92320000Y-190290000D02*
X90720000Y-190290000D01*
X90820000Y-188290000D02*
X92320000Y-188290000D01*
%TO.C,D27*%
X110800000Y-167800000D02*
X112800000Y-167800000D01*
X112800000Y-167800000D02*
X112800000Y-169400000D01*
X110800000Y-169300000D02*
X110800000Y-167800000D01*
%TO.C,D10*%
X83000000Y-76290000D02*
X83000000Y-78290000D01*
X83000000Y-78290000D02*
X81400000Y-78290000D01*
X81500000Y-76290000D02*
X83000000Y-76290000D01*
%TO.C,D14*%
X82520000Y-85050000D02*
X82520000Y-87050000D01*
X82520000Y-87050000D02*
X80920000Y-87050000D01*
X81020000Y-85050000D02*
X82520000Y-85050000D01*
D12*
%TO.C,U1*%
X107560000Y-152090000D02*
X105250000Y-152090000D01*
X105250000Y-152090000D02*
X105250000Y-151815000D01*
X107560000Y-152090000D02*
X109870000Y-152090000D01*
X109870000Y-152090000D02*
X109870000Y-151815000D01*
X107560000Y-142170000D02*
X105250000Y-142170000D01*
X105250000Y-142170000D02*
X105250000Y-142445000D01*
X107560000Y-142170000D02*
X109870000Y-142170000D01*
X109870000Y-142170000D02*
X109870000Y-142445000D01*
X109870000Y-142445000D02*
X111160000Y-142445000D01*
%TO.C,R4*%
X97755000Y-143942936D02*
X97755000Y-144397064D01*
X99225000Y-143942936D02*
X99225000Y-144397064D01*
D11*
%TO.C,D20*%
X116510000Y-181220000D02*
X116510000Y-183220000D01*
X116510000Y-183220000D02*
X114910000Y-183220000D01*
X115010000Y-181220000D02*
X116510000Y-181220000D01*
%TO.C,D22*%
X110200000Y-49500000D02*
X110200000Y-51500000D01*
X110200000Y-51500000D02*
X108600000Y-51500000D01*
X108700000Y-49500000D02*
X110200000Y-49500000D01*
%TO.C,D5*%
X122090000Y-201930000D02*
X122090000Y-203930000D01*
X122090000Y-203930000D02*
X120490000Y-203930000D01*
X120590000Y-201930000D02*
X122090000Y-201930000D01*
%TO.C,D2*%
X102340000Y-216060000D02*
X102340000Y-218060000D01*
X102340000Y-218060000D02*
X100740000Y-218060000D01*
X100840000Y-216060000D02*
X102340000Y-216060000D01*
%TO.C,D15*%
X99040000Y-49460000D02*
X99040000Y-51460000D01*
X99040000Y-51460000D02*
X97440000Y-51460000D01*
X97540000Y-49460000D02*
X99040000Y-49460000D01*
%TO.C,D7*%
X87370000Y-202080000D02*
X87370000Y-204080000D01*
X87370000Y-204080000D02*
X85770000Y-204080000D01*
X85870000Y-202080000D02*
X87370000Y-202080000D01*
%TO.C,D8*%
X121460000Y-209500000D02*
X121460000Y-211500000D01*
X121460000Y-211500000D02*
X119860000Y-211500000D01*
X119960000Y-209500000D02*
X121460000Y-209500000D01*
%TO.C,D13*%
X122990000Y-124764000D02*
X122990000Y-126764000D01*
X122990000Y-126764000D02*
X121390000Y-126764000D01*
X121490000Y-124764000D02*
X122990000Y-124764000D01*
D12*
%TO.C,J2*%
X97650000Y-40850000D02*
X97650000Y-43450000D01*
X105570000Y-43450000D02*
X105570000Y-40850000D01*
X98410000Y-45760000D02*
X99560000Y-45760000D01*
X99560000Y-45760000D02*
X99560000Y-46350000D01*
X99560000Y-46350000D02*
X100260000Y-46350000D01*
X103660000Y-45760000D02*
X104810000Y-45760000D01*
X97650000Y-37950000D02*
X97650000Y-36290000D01*
X97650000Y-36290000D02*
X105570000Y-36290000D01*
X105570000Y-36290000D02*
X105570000Y-37950000D01*
%TO.C,C2*%
X102335000Y-144401252D02*
X102335000Y-143878748D01*
X100865000Y-144401252D02*
X100865000Y-143878748D01*
D11*
%TO.C,D3*%
X112650000Y-214270000D02*
X114650000Y-214270000D01*
X114650000Y-214270000D02*
X114650000Y-215870000D01*
X112650000Y-215770000D02*
X112650000Y-214270000D01*
%TO.C,D25*%
X116830000Y-113400000D02*
X118830000Y-113400000D01*
X118830000Y-113400000D02*
X118830000Y-115000000D01*
X116830000Y-114900000D02*
X116830000Y-113400000D01*
%TO.C,D31*%
X94170000Y-112770000D02*
X96170000Y-112770000D01*
X96170000Y-112770000D02*
X96170000Y-114370000D01*
X94170000Y-114270000D02*
X94170000Y-112770000D01*
%TO.C,D6*%
X88020000Y-209220000D02*
X88020000Y-211220000D01*
X88020000Y-211220000D02*
X86420000Y-211220000D01*
X86520000Y-209220000D02*
X88020000Y-209220000D01*
%TO.C,D16*%
X84375000Y-113225000D02*
X86375000Y-113225000D01*
X86375000Y-113225000D02*
X86375000Y-114825000D01*
X84375000Y-114725000D02*
X84375000Y-113225000D01*
%TO.C,D9*%
X86100000Y-124374000D02*
X86100000Y-126374000D01*
X86100000Y-126374000D02*
X84500000Y-126374000D01*
X84600000Y-124374000D02*
X86100000Y-124374000D01*
D12*
%TO.C,Q1*%
X99910000Y-61820000D02*
X99910000Y-62470000D01*
X99910000Y-61820000D02*
X99910000Y-61170000D01*
X96790000Y-61820000D02*
X96790000Y-62470000D01*
X96790000Y-61820000D02*
X96790000Y-60145000D01*
%TO.C,R2*%
X94015000Y-69157064D02*
X94015000Y-68702936D01*
X92545000Y-69157064D02*
X92545000Y-68702936D01*
D11*
%TO.C,D30*%
X102580000Y-201690000D02*
X102580000Y-203690000D01*
X102580000Y-203690000D02*
X100980000Y-203690000D01*
X101080000Y-201690000D02*
X102580000Y-201690000D01*
%TO.C,D29*%
X92640000Y-181530000D02*
X92640000Y-183530000D01*
X92640000Y-183530000D02*
X91040000Y-183530000D01*
X91140000Y-181530000D02*
X92640000Y-181530000D01*
D12*
%TO.C,J3*%
X84710000Y-154370000D02*
X82050000Y-154370000D01*
X84710000Y-144150000D02*
X84710000Y-154370000D01*
X82050000Y-144150000D02*
X82050000Y-154370000D01*
X84710000Y-144150000D02*
X82050000Y-144150000D01*
X84710000Y-142880000D02*
X84710000Y-141550000D01*
X84710000Y-141550000D02*
X83380000Y-141550000D01*
D11*
%TO.C,D21*%
X116740000Y-188270000D02*
X116740000Y-190270000D01*
X116740000Y-190270000D02*
X115140000Y-190270000D01*
X115240000Y-188270000D02*
X116740000Y-188270000D01*
%TO.C,D23*%
X82810000Y-93840000D02*
X82810000Y-95840000D01*
X82810000Y-95840000D02*
X81210000Y-95840000D01*
X81310000Y-93840000D02*
X82810000Y-93840000D01*
%TO.C,D1*%
X89530000Y-214010000D02*
X91530000Y-214010000D01*
X91530000Y-214010000D02*
X91530000Y-215610000D01*
X89530000Y-215510000D02*
X89530000Y-214010000D01*
%TD*%
M02*
