M48
; DRILL file {KiCad (6.0.0)} date Mon Jul  4 20:32:45 2022
; FORMAT={-:-/ absolute / metric / decimal}
; #@! TF.CreationDate,2022-07-04T20:32:45-04:00
; #@! TF.GenerationSoftware,Kicad,Pcbnew,(6.0.0)
; #@! TF.FileFunction,MixedPlating,1,2
FMAT,2
METRIC
; #@! TA.AperFunction,Plated,PTH,ViaDrill
T1C0.400
; #@! TA.AperFunction,Plated,PTH,ComponentDrill
T2C1.000
; #@! TA.AperFunction,NonPlated,NPTH,ComponentDrill
T3C0.900
; #@! TA.AperFunction,NonPlated,NPTH,ComponentDrill
T4C2.100
; #@! TA.AperFunction,NonPlated,NPTH,ComponentDrill
T5C2.200
; #@! TA.AperFunction,NonPlated,NPTH,ComponentDrill
T6C3.000
; #@! TA.AperFunction,NonPlated,NPTH,ComponentDrill
T7C5.000
%
G90
G05
T1
X79.69Y-68.04
X79.798Y-91.047
X80.023Y-98.321
X80.19Y-103.0
X80.378Y-81.925
X80.71Y-106.76
X80.827Y-72.189
X81.095Y-96.225
X81.28Y-65.01
X81.606Y-117.91
X83.09Y-171.17
X83.11Y-97.76
X83.14Y-108.62
X83.16Y-88.79
X83.42Y-205.18
X83.512Y-130.524
X83.89Y-98.822
X84.07Y-92.15
X84.072Y-183.1
X84.16Y-112.1
X84.29Y-84.5
X84.29Y-193.1
X84.35Y-213.29
X84.4Y-108.76
X84.46Y-189.724
X84.645Y-88.33
X84.69Y-74.02
X84.73Y-98.28
X85.03Y-173.36
X85.21Y-139.79
X85.24Y-109.65
X85.25Y-76.78
X85.28Y-69.78
X85.45Y-106.36
X85.55Y-56.98
X85.59Y-72.55
X86.21Y-87.95
X86.28Y-175.48
X86.29Y-130.51
X86.292Y-170.092
X86.55Y-95.16
X86.87Y-121.51
X86.95Y-199.839
X86.99Y-118.11
X86.99Y-190.49
X86.99Y-194.55
X87.09Y-92.34
X87.178Y-213.291
X87.83Y-109.02
X87.9Y-124.82
X87.914Y-206.368
X88.04Y-84.55
X88.241Y-214.406
X88.441Y-147.246
X88.53Y-144.44
X88.64Y-111.581
X88.67Y-139.65
X89.05Y-202.87
X89.11Y-133.27
X89.23Y-68.43
X89.33Y-155.63
X89.47Y-129.44
X89.49Y-97.94
X89.54Y-126.4
X89.675Y-221.185
X89.777Y-117.767
X90.05Y-108.22
X90.19Y-178.89
X90.32Y-198.17
X90.399Y-119.596
X90.86Y-105.62
X91.701Y-143.461
X91.77Y-75.51
X92.1Y-203.53
X92.22Y-191.38
X92.25Y-148.53
X92.33Y-110.19
X92.73Y-162.71
X92.83Y-113.29
X92.92Y-126.73
X93.012Y-54.758
X93.02Y-129.49
X93.11Y-210.44
X93.2Y-133.58
X93.49Y-117.35
X93.53Y-124.84
X93.55Y-175.08
X93.625Y-215.035
X93.66Y-194.65
X93.8Y-204.65
X93.88Y-185.49
X94.246Y-140.916
X94.52Y-106.81
X94.73Y-133.76
X94.852Y-190.137
X95.28Y-119.55
X95.32Y-57.26
X95.351Y-183.097
X95.59Y-202.6
X95.794Y-172.3
X95.89Y-136.14
X95.98Y-83.09
X95.982Y-151.822
X95.99Y-206.72
X96.0Y-68.61
X96.06Y-147.24
X96.13Y-124.21
X96.267Y-158.56
X96.57Y-114.75
X96.64Y-129.31
X96.85Y-154.35
X96.924Y-119.64
X97.02Y-197.84
X97.04Y-174.85
X97.05Y-81.57
X97.13Y-132.73
X97.13Y-199.904
X97.19Y-66.11
X97.29Y-166.3
X97.59Y-68.51
X97.69Y-118.52
X97.75Y-135.6
X97.79Y-116.08
X97.91Y-195.41
X97.92Y-147.5
X98.44Y-204.86
X98.72Y-189.98
X98.98Y-109.41
X99.26Y-146.61
X99.27Y-115.22
X99.38Y-94.43
X99.51Y-133.98
X99.55Y-118.09
X99.64Y-183.64
X99.66Y-66.44
X99.69Y-128.62
X99.9Y-126.88
X100.02Y-77.54
X100.14Y-143.37
X100.14Y-163.39
X100.517Y-148.829
X100.591Y-213.442
X100.6Y-153.98
X100.77Y-78.89
X101.023Y-113.574
X101.54Y-77.53
X101.6Y-139.094
X101.608Y-132.199
X101.61Y-117.19
X101.76Y-166.19
X102.2Y-153.255
X102.2Y-160.22
X102.424Y-206.972
X102.429Y-199.753
X102.456Y-79.49
X102.496Y-220.01
X102.624Y-47.965
X103.18Y-81.82
X103.26Y-143.85
X103.78Y-133.94
X103.79Y-163.31
X103.8Y-127.72
X103.88Y-155.24
X103.88Y-183.59
X103.96Y-218.13
X103.98Y-110.45
X104.64Y-190.52
X104.81Y-136.12
X104.89Y-141.53
X105.1Y-129.07
X105.42Y-195.61
X105.76Y-119.49
X105.82Y-134.08
X105.96Y-84.02
X106.0Y-153.11
X106.11Y-192.3
X106.12Y-143.08
X106.176Y-122.55
X106.19Y-148.5
X106.19Y-151.23
X106.34Y-220.41
X106.74Y-86.35
X106.84Y-119.11
X106.89Y-108.27
X106.99Y-216.53
X107.065Y-172.398
X107.18Y-147.48
X107.19Y-110.24
X107.564Y-140.218
X107.575Y-190.035
X107.71Y-111.93
X107.806Y-181.101
X107.82Y-203.12
X107.853Y-183.097
X108.0Y-211.44
X108.04Y-219.35
X108.06Y-134.87
X108.075Y-124.24
X108.1Y-121.37
X108.138Y-119.45
X108.15Y-154.5
X108.37Y-152.9
X108.551Y-157.368
X108.64Y-150.94
X108.67Y-148.22
X108.755Y-161.075
X108.79Y-166.87
X108.815Y-149.366
X109.82Y-110.23
X109.93Y-136.94
X110.03Y-106.26
X110.13Y-217.29
X110.65Y-206.18
X110.795Y-54.949
X110.89Y-60.77
X111.08Y-214.38
X111.51Y-210.23
X111.64Y-220.817
X111.96Y-176.8
X112.3Y-138.63
X112.51Y-158.74
X112.53Y-115.25
X112.633Y-211.543
X112.91Y-201.37
X113.37Y-122.8
X113.65Y-126.66
X113.9Y-118.584
X114.178Y-212.913
X114.188Y-185.107
X114.22Y-174.94
X114.24Y-194.01
X114.504Y-147.638
X114.62Y-132.32
X114.789Y-113.585
X114.8Y-124.62
X115.44Y-186.56
X115.65Y-62.14
X115.775Y-207.123
X116.059Y-199.334
X116.06Y-56.81
X116.09Y-121.11
X116.59Y-153.37
X116.64Y-130.01
X116.93Y-125.26
X116.981Y-170.09
X117.13Y-60.82
X117.35Y-186.58
X117.39Y-133.86
X117.52Y-136.44
X117.56Y-119.88
X117.63Y-194.65
X117.82Y-68.66
X117.9Y-70.34
X117.99Y-72.33
X118.08Y-81.28
X118.37Y-111.24
X118.61Y-185.23
X118.63Y-108.61
X118.64Y-126.95
X118.76Y-112.79
X119.01Y-148.68
X119.2Y-118.37
X119.2Y-183.077
X119.31Y-123.36
X119.574Y-190.2
X119.79Y-90.0
X119.94Y-58.82
X120.122Y-149.678
X120.52Y-131.009
X120.53Y-151.11
X120.59Y-178.05
X120.68Y-174.86
X120.734Y-107.44
X120.734Y-110.9
X120.74Y-133.89
X120.86Y-83.43
X121.14Y-153.01
X121.14Y-195.43
X121.459Y-100.792
X121.566Y-117.878
X121.67Y-96.47
X121.8Y-121.24
X121.98Y-138.85
X121.98Y-140.73
X122.06Y-68.29
X122.08Y-63.51
X123.024Y-106.15
X123.112Y-90.361
X123.159Y-71.754
X123.251Y-98.316
X123.341Y-82.421
X124.05Y-102.39
T2
X83.38Y-142.88
X83.38Y-145.42
X83.38Y-147.96
X83.38Y-150.5
X83.38Y-153.04
T3
X99.41Y-42.3
X103.81Y-42.3
T4
X86.58Y-217.46
X116.62Y-217.46
T5
X79.62Y-85.95
X79.91Y-94.74
X80.1Y-77.19
X82.57Y-136.99
X83.2Y-125.274
X84.47Y-202.98
X85.12Y-210.12
X85.275Y-116.125
X89.42Y-189.19
X89.74Y-182.43
X90.43Y-216.91
X91.14Y-170.43
X95.07Y-115.67
X96.14Y-50.36
X97.58Y-185.6
X99.44Y-216.96
X99.68Y-202.59
X101.57Y-171.48
X101.6Y-226.1
X101.62Y-52.88
X103.81Y-209.84
X105.35Y-185.95
X107.3Y-50.4
X107.5Y-115.76
X111.7Y-170.7
X113.55Y-217.17
X113.61Y-182.12
X113.84Y-189.17
X117.73Y-116.3
X118.56Y-210.4
X119.19Y-202.83
X120.09Y-125.664
X120.68Y-136.95
X123.34Y-77.22
X123.66Y-94.65
X123.76Y-85.97
T6
X101.6Y-192.55
X101.61Y-178.56
T7
X101.64Y-120.9
T0
M30
