%TF.GenerationSoftware,KiCad,Pcbnew,(6.0.0)*%
%TF.CreationDate,2022-07-04T20:32:36-04:00*%
%TF.ProjectId,800+,3830302b-2e6b-4696-9361-645f70636258,rev?*%
%TF.SameCoordinates,Original*%
%TF.FileFunction,Paste,Bot*%
%TF.FilePolarity,Positive*%
%FSLAX46Y46*%
G04 Gerber Fmt 4.6, Leading zero omitted, Abs format (unit mm)*
G04 Created by KiCad (PCBNEW (6.0.0)) date 2022-07-04 20:32:36*
%MOMM*%
%LPD*%
G01*
G04 APERTURE LIST*
G04 Aperture macros list*
%AMRoundRect*
0 Rectangle with rounded corners*
0 $1 Rounding radius*
0 $2 $3 $4 $5 $6 $7 $8 $9 X,Y pos of 4 corners*
0 Add a 4 corners polygon primitive as box body*
4,1,4,$2,$3,$4,$5,$6,$7,$8,$9,$2,$3,0*
0 Add four circle primitives for the rounded corners*
1,1,$1+$1,$2,$3*
1,1,$1+$1,$4,$5*
1,1,$1+$1,$6,$7*
1,1,$1+$1,$8,$9*
0 Add four rect primitives between the rounded corners*
20,1,$1+$1,$2,$3,$4,$5,0*
20,1,$1+$1,$4,$5,$6,$7,0*
20,1,$1+$1,$6,$7,$8,$9,0*
20,1,$1+$1,$8,$9,$2,$3,0*%
G04 Aperture macros list end*
%ADD10RoundRect,0.250000X0.312500X1.075000X-0.312500X1.075000X-0.312500X-1.075000X0.312500X-1.075000X0*%
%ADD11RoundRect,0.250000X0.262500X0.450000X-0.262500X0.450000X-0.262500X-0.450000X0.262500X-0.450000X0*%
%ADD12RoundRect,0.150000X0.587500X0.150000X-0.587500X0.150000X-0.587500X-0.150000X0.587500X-0.150000X0*%
%ADD13RoundRect,0.450000X1.050000X0.450000X-1.050000X0.450000X-1.050000X-0.450000X1.050000X-0.450000X0*%
%ADD14R,1.400000X1.250000*%
%ADD15R,1.250000X1.400000*%
%ADD16RoundRect,0.250000X0.475000X-0.250000X0.475000X0.250000X-0.475000X0.250000X-0.475000X-0.250000X0*%
%ADD17RoundRect,0.150000X0.150000X0.700000X-0.150000X0.700000X-0.150000X-0.700000X0.150000X-0.700000X0*%
%ADD18RoundRect,0.250000X0.250000X1.150000X-0.250000X1.150000X-0.250000X-1.150000X0.250000X-1.150000X0*%
%ADD19RoundRect,0.100000X0.637500X0.100000X-0.637500X0.100000X-0.637500X-0.100000X0.637500X-0.100000X0*%
%ADD20RoundRect,0.250000X-0.450000X0.262500X-0.450000X-0.262500X0.450000X-0.262500X0.450000X0.262500X0*%
%ADD21R,2.000000X2.500000*%
%ADD22R,0.500000X2.500000*%
%ADD23RoundRect,0.150000X-0.150000X0.587500X-0.150000X-0.587500X0.150000X-0.587500X0.150000X0.587500X0*%
%ADD24RoundRect,0.250000X0.450000X-0.262500X0.450000X0.262500X-0.450000X0.262500X-0.450000X-0.262500X0*%
%ADD25RoundRect,0.375000X0.375000X1.125000X-0.375000X1.125000X-0.375000X-1.125000X0.375000X-1.125000X0*%
%ADD26RoundRect,0.225000X0.225000X1.275000X-0.225000X1.275000X-0.225000X-1.275000X0.225000X-1.275000X0*%
G04 APERTURE END LIST*
D10*
%TO.C,R6*%
X96707500Y-96445000D03*
X93782500Y-96445000D03*
%TD*%
D11*
%TO.C,R5*%
X96757500Y-100025000D03*
X94932500Y-100025000D03*
%TD*%
D12*
%TO.C,Q2*%
X95867500Y-87910000D03*
X95867500Y-89810000D03*
X93992500Y-88860000D03*
%TD*%
D13*
%TO.C,J6*%
X115460000Y-66430000D03*
X110960000Y-66430000D03*
X115460000Y-68630000D03*
X110960000Y-68630000D03*
X110960000Y-70830000D03*
X115460000Y-70830000D03*
X115460000Y-73030000D03*
X110960000Y-73030000D03*
X115460000Y-75230000D03*
X110960000Y-75230000D03*
X115460000Y-77430000D03*
X110960000Y-77430000D03*
X115460000Y-79630000D03*
X110960000Y-79630000D03*
X110960000Y-81830000D03*
X115460000Y-81830000D03*
X110960000Y-84030000D03*
X115460000Y-84030000D03*
X110960000Y-86230000D03*
X115460000Y-86230000D03*
X110960000Y-88430000D03*
X115460000Y-88430000D03*
X110960000Y-90630000D03*
X115460000Y-90630000D03*
X110960000Y-92830000D03*
X115460000Y-92830000D03*
X115460000Y-95030000D03*
X110960000Y-95030000D03*
X115460000Y-97230000D03*
X110960000Y-97230000D03*
X110960000Y-99430000D03*
X115460000Y-99430000D03*
X110960000Y-101630000D03*
X115460000Y-101630000D03*
X115460000Y-103830000D03*
X110960000Y-103830000D03*
%TD*%
D14*
%TO.C,D19*%
X125215000Y-77220000D03*
X121465000Y-77245000D03*
%TD*%
D15*
%TO.C,D32*%
X97580000Y-183725000D03*
X97605000Y-187475000D03*
%TD*%
D14*
%TO.C,D24*%
X125535000Y-94650000D03*
X121785000Y-94675000D03*
%TD*%
D16*
%TO.C,C1*%
X103080000Y-68340000D03*
X103080000Y-66440000D03*
%TD*%
D15*
%TO.C,D11*%
X105350000Y-184075000D03*
X105375000Y-187825000D03*
%TD*%
%TO.C,D28*%
X101570000Y-169605000D03*
X101595000Y-173355000D03*
%TD*%
D16*
%TO.C,C4*%
X112780000Y-142980000D03*
X112780000Y-141080000D03*
%TD*%
D15*
%TO.C,D17*%
X107500000Y-113885000D03*
X107525000Y-117635000D03*
%TD*%
%TO.C,D26*%
X91140000Y-168555000D03*
X91165000Y-172305000D03*
%TD*%
D14*
%TO.C,D12*%
X125635000Y-85970000D03*
X121885000Y-85995000D03*
%TD*%
D16*
%TO.C,C3*%
X115460000Y-142900000D03*
X115460000Y-141000000D03*
%TD*%
D11*
%TO.C,R3*%
X97225000Y-64700000D03*
X95400000Y-64700000D03*
%TD*%
D14*
%TO.C,D4*%
X105685000Y-209840000D03*
X101935000Y-209865000D03*
%TD*%
D11*
%TO.C,R1*%
X100912500Y-64730000D03*
X99087500Y-64730000D03*
%TD*%
D17*
%TO.C,J4*%
X87210000Y-61960000D03*
X85960000Y-61960000D03*
X84710000Y-61960000D03*
D18*
X89060000Y-58610000D03*
X82860000Y-58610000D03*
%TD*%
D14*
%TO.C,D18*%
X91295000Y-189190000D03*
X87545000Y-189215000D03*
%TD*%
D15*
%TO.C,D27*%
X111700000Y-168825000D03*
X111725000Y-172575000D03*
%TD*%
D14*
%TO.C,D10*%
X81975000Y-77190000D03*
X78225000Y-77215000D03*
%TD*%
%TO.C,D14*%
X81495000Y-85950000D03*
X77745000Y-85975000D03*
%TD*%
D19*
%TO.C,U1*%
X110422500Y-142905000D03*
X110422500Y-143555000D03*
X110422500Y-144205000D03*
X110422500Y-144855000D03*
X110422500Y-145505000D03*
X110422500Y-146155000D03*
X110422500Y-146805000D03*
X110422500Y-147455000D03*
X110422500Y-148105000D03*
X110422500Y-148755000D03*
X110422500Y-149405000D03*
X110422500Y-150055000D03*
X110422500Y-150705000D03*
X110422500Y-151355000D03*
X104697500Y-151355000D03*
X104697500Y-150705000D03*
X104697500Y-150055000D03*
X104697500Y-149405000D03*
X104697500Y-148755000D03*
X104697500Y-148105000D03*
X104697500Y-147455000D03*
X104697500Y-146805000D03*
X104697500Y-146155000D03*
X104697500Y-145505000D03*
X104697500Y-144855000D03*
X104697500Y-144205000D03*
X104697500Y-143555000D03*
X104697500Y-142905000D03*
%TD*%
D20*
%TO.C,R4*%
X98490000Y-143257500D03*
X98490000Y-145082500D03*
%TD*%
D14*
%TO.C,D20*%
X115485000Y-182120000D03*
X111735000Y-182145000D03*
%TD*%
%TO.C,D22*%
X109175000Y-50400000D03*
X105425000Y-50425000D03*
%TD*%
%TO.C,D5*%
X121065000Y-202830000D03*
X117315000Y-202855000D03*
%TD*%
%TO.C,D2*%
X101315000Y-216960000D03*
X97565000Y-216985000D03*
%TD*%
%TO.C,D15*%
X98015000Y-50360000D03*
X94265000Y-50385000D03*
%TD*%
%TO.C,D7*%
X86345000Y-202980000D03*
X82595000Y-203005000D03*
%TD*%
%TO.C,D8*%
X120435000Y-210400000D03*
X116685000Y-210425000D03*
%TD*%
%TO.C,D13*%
X121965000Y-125664000D03*
X118215000Y-125689000D03*
%TD*%
D21*
%TO.C,J2*%
X97210000Y-39400000D03*
X106010000Y-39400000D03*
X97210000Y-44900000D03*
X106010000Y-44900000D03*
D22*
X100010000Y-44900000D03*
X100810000Y-44900000D03*
X101610000Y-44900000D03*
X102410000Y-44900000D03*
X103210000Y-44900000D03*
%TD*%
D16*
%TO.C,C2*%
X101600000Y-145090000D03*
X101600000Y-143190000D03*
%TD*%
D15*
%TO.C,D3*%
X113550000Y-215295000D03*
X113575000Y-219045000D03*
%TD*%
%TO.C,D25*%
X117730000Y-114425000D03*
X117755000Y-118175000D03*
%TD*%
%TO.C,D31*%
X95070000Y-113795000D03*
X95095000Y-117545000D03*
%TD*%
D14*
%TO.C,D6*%
X86995000Y-210120000D03*
X83245000Y-210145000D03*
%TD*%
D15*
%TO.C,D16*%
X85275000Y-114250000D03*
X85300000Y-118000000D03*
%TD*%
D14*
%TO.C,D9*%
X85075000Y-125274000D03*
X81325000Y-125299000D03*
%TD*%
D23*
%TO.C,Q1*%
X97400000Y-60882500D03*
X99300000Y-60882500D03*
X98350000Y-62757500D03*
%TD*%
D24*
%TO.C,R2*%
X93280000Y-69842500D03*
X93280000Y-68017500D03*
%TD*%
D14*
%TO.C,D30*%
X101555000Y-202590000D03*
X97805000Y-202615000D03*
%TD*%
D25*
%TO.C,J5*%
X89640000Y-160200000D03*
X105140000Y-160200000D03*
D26*
X102890000Y-157200000D03*
X97390000Y-157200000D03*
X91890000Y-157200000D03*
%TD*%
D14*
%TO.C,D29*%
X91615000Y-182430000D03*
X87865000Y-182455000D03*
%TD*%
%TO.C,D21*%
X115715000Y-189170000D03*
X111965000Y-189195000D03*
%TD*%
%TO.C,D23*%
X81785000Y-94740000D03*
X78035000Y-94765000D03*
%TD*%
D15*
%TO.C,D1*%
X90430000Y-215035000D03*
X90455000Y-218785000D03*
%TD*%
M02*
